<?xml version="1.0" standalone="no"?>
<!DOCTYPE svg PUBLIC "-//W3C//DTD SVG 20010904//EN"
 "http://www.w3.org/TR/2001/REC-SVG-20010904/DTD/svg10.dtd">
<svg version="1.0" xmlns="http://www.w3.org/2000/svg"
 width="512.000000pt" height="512.000000pt" viewBox="0 0 512.000000 512.000000"
 preserveAspectRatio="xMidYMid meet">
<metadata>
Created by potrace 1.11, written by Peter Selinger 2001-2013
</metadata>
<g transform="translate(0.000000,512.000000) scale(0.100000,-0.100000)"
fill="#000000" stroke="none">
<path d="M2059 5091 l-29 -29 0 -146 c0 -217 8 -226 200 -226 l120 0 0 -272 0
-273 210 0 210 0 2 275 3 275 131 3 c126 2 132 4 155 28 23 24 24 34 27 166 2
94 0 150 -9 170 -24 58 -24 58 -529 58 l-462 0 -29 -29z"/>
<path d="M1335 4332 c-220 -120 -221 -121 -231 -168 -4 -24 13 -61 101 -214
58 -102 110 -188 114 -193 4 -4 47 19 97 52 49 32 130 81 181 108 l91 49 -104
179 c-57 99 -113 188 -125 198 -30 24 -66 21 -124 -11z"/>
<path d="M2330 3805 c-582 -82 -1072 -437 -1339 -972 -55 -111 -116 -291 -143
-426 -20 -97 -23 -142 -23 -337 1 -195 4 -239 23 -330 97 -446 341 -823 703
-1083 113 -81 339 -196 467 -237 350 -113 734 -113 1084 0 127 41 353 156 468
237 119 85 317 281 397 393 174 246 278 501 318 789 23 162 16 428 -15 576
-110 521 -435 955 -900 1203 -165 88 -334 145 -530 179 -127 21 -384 25 -510
8z m150 -182 c0 -49 19 -85 53 -101 l27 -13 0 -545 0 -544 33 0 c41 -1 133
-38 181 -75 21 -16 51 -48 67 -72 l30 -43 447 0 c416 0 450 -1 482 -19 41 -21
80 -74 80 -107 0 -23 4 -24 60 -24 53 0 60 -2 60 -19 0 -32 47 -61 99 -61 l47
0 -8 -82 c-16 -167 -63 -344 -132 -492 l-34 -74 -48 24 c-69 35 -124 11 -126
-56 -1 -34 14 -53 72 -91 l25 -16 -59 -79 c-101 -135 -367 -384 -412 -384 -6
0 -20 18 -32 39 -33 59 -85 69 -127 26 -30 -30 -31 -53 -4 -107 11 -22 17 -44
12 -49 -14 -14 -204 -87 -297 -113 -70 -21 -277 -56 -327 -56 -5 0 -9 18 -9
40 0 80 -49 125 -109 101 -34 -15 -51 -48 -51 -102 l0 -40 -57 6 c-193 22
-357 65 -505 133 -43 19 -78 37 -78 39 0 2 9 21 20 43 26 51 25 76 -5 105 -42
43 -94 33 -127 -26 -12 -21 -26 -39 -32 -39 -45 0 -311 249 -412 384 l-59 79
25 16 c56 37 73 58 73 89 0 69 -61 96 -130 58 l-45 -25 -33 72 c-71 153 -120
337 -131 490 l-7 87 45 0 c61 0 98 29 98 76 0 51 -28 74 -91 74 l-52 0 6 83
c11 152 57 330 125 482 20 44 37 82 38 84 2 2 19 -6 39 -18 60 -35 109 -27
130 22 18 43 3 77 -45 107 -22 14 -40 27 -40 30 0 3 29 43 64 90 79 105 215
241 321 321 80 59 80 59 95 38 57 -82 102 -98 145 -54 30 29 31 54 5 105 -11
22 -20 42 -20 45 0 10 136 70 222 98 114 38 284 72 376 76 l42 1 0 -37z"/>
</g>
</svg>
