<svg xmlns="http://www.w3.org/2000/svg" viewBox="0 0 215.53 170.68"><defs><style>.cls-1{isolation:isolate;}.cls-2{fill:#d9d9da;}.cls-3{fill:#4c4c4e;}.cls-4{fill:#1e1e1e;}.cls-5{fill:#d6ab8c;}.cls-6{fill:#ddbaa1;}.cls-7{fill:#d9d8ec;}.cls-8{fill:#c6c5e3;}.cls-9{fill:#3c3c40;}.cls-10{fill:#c69575;}.cls-11{fill:#e2c4af;}.cls-12{fill:#2d241f;}.cls-13{fill:#b37b55;}.cls-14{fill:#151515;}.cls-15{fill:#28b0b8;}.cls-16{fill:#3a3c3b;}.cls-17{fill:#f1e2d7;mix-blend-mode:multiply;}.cls-18{fill:#2f2f2f;}.cls-19{fill:#767676;}.cls-20{fill:#fcbe76;}</style></defs><title>bench2</title><g class="cls-1"><g id="Calque_2" data-name="Calque 2"><g id="Layer_2" data-name="Layer 2"><polygon class="cls-2" points="198.11 165.77 189.41 165.77 189.41 120.13 49.06 120.13 49.06 165.77 40.36 165.77 40.36 111.43 198.11 111.43 198.11 165.77"/><rect class="cls-3" x="189.41" y="159.77" width="8.69" height="6"/><rect class="cls-3" x="40.36" y="159.77" width="8.69" height="6"/><rect class="cls-4" x="29.12" y="101.34" width="180.23" height="12.39" rx="2.7"/><path class="cls-3" d="M203.6,105.63H32.26a3.14,3.14,0,0,0-3.14,3.14v1.85a3.11,3.11,0,0,0,3.12,3.11H205.07V107.1A1.47,1.47,0,0,0,203.6,105.63Z"/><path class="cls-5" d="M21,97.09s1-5.16,7.86-5.53,8.34,26.61,6.25,45.79S33.91,161,33.91,161l-13.32-.39s2.49-2.2,1.31-26.63C20.33,101.54,19.07,97.47,21,97.09Z"/><path class="cls-5" d="M18.36,92.53a78.36,78.36,0,0,0,2.14,11.92l9.43-4.26s9-13.2,3.43-20.86C29.79,74.42,17.5,81.88,18.36,92.53Z"/><path class="cls-6" d="M33.19,162.62s1-4,.28-32.86c-.57-24.57-8.85-29.71-9.71-30.28s-3.17,7.12-3.17,7.12l-.18,1.48c.35,5.49.9,13.68,1.49,25.9.69,14.19.13,20.88-.45,24Z"/><path class="cls-5" d="M32.4,92.4s7.19,12.58,6.86,22.93c-.16,5.07-4.72,21.86-5.61,31.74C33,154.2,32.4,92.4,32.4,92.4Z"/><path class="cls-7" d="M9.91,170.27C6.2,169.75,3,168.77.7,166.81c-1-.81-.38-4,.65-4.73,1.84-.62,5.55-.94,8.5-1.92,3.11-1,6.8-2.56,9.4-5,1.14-1.07,1.64-1.43,2.4-1a11.84,11.84,0,0,1,2.85,3.22c.73,1.07,5.66,1.75,7.76.7,1.3-.66,1.26-3,1.26-3,.26.1,2,.08,2.08,1.19.38,3.67,1,9.18,1,9.18s.62,5-6.82,3.9-7.07.82-11.54,1.18A40.45,40.45,0,0,1,9.91,170.27Z"/><path class="cls-8" d="M36.59,165.51s-.1-.9-.24-2.21c-.88.77-3.64,2.62-9.15,1.65a17.16,17.16,0,0,0-3.49.87c-1.19.55-8.81,3.7-20.89,0l-.63,2a20.68,20.68,0,0,0,7.72,2.41,40.45,40.45,0,0,0,8.32.32c4.47-.36,4.11-2.32,11.54-1.18S36.59,165.51,36.59,165.51Z"/><path class="cls-9" d="M36.88,166.8s-.35-1.84-.45-2.7c-1.75,2.59-7.17,2.16-9.56,1.94s-3.92,1.09-7.62,2-10.77.55-15-1.31C2,165.06.46,162.67.3,163.05c-.54,1.2-.31,3.16.4,3.76,2.33,2,5.5,2.94,9.21,3.46a40.45,40.45,0,0,0,8.32.32c4.47-.36,4.07-2,11.54-1.18C36.66,170.18,36.88,166.8,36.88,166.8Z"/><path class="cls-5" d="M66.85,72.26,31.29,77.32C18.13,79.19,18.43,90.41,18.43,90.41a11,11,0,0,0,10.66,8c8.67.07,14.25-.29,29.76,2.26,5.93,1,11.88-.73,17.22-.72Z"/><path class="cls-6" d="M59.29,85.46l1.62-12.35L31.29,77.32c-5.28.75-8.39,3-10.22,5.44-.49,6.1,2.6,7.94,4.15,6.68,1.94-1.57,8.3-2.48,8.3-2.48Z"/><path class="cls-10" d="M181.85,75.54a7.46,7.46,0,0,1-4.2,2.8L168,77.14l21.75,20.67-.58-18.35Z"/><path class="cls-10" d="M181.85,75.54a14.05,14.05,0,0,1-4.29.82l-3.19,2.31L180,80.48S182.05,79.45,181.85,75.54Z"/><path class="cls-5" d="M189.89,96.31s-10.64.27-17.13,2.8c0,0-5.06-3.54-3.53-14.89L166.63,77,187.9,87.35S193.14,91,189.89,96.31Z"/><path class="cls-11" d="M188.72,93.92c9.11,5.51,15.75,5.92,20.21,2.7,4.64-3.35,7.47-19.36-2.59-23.46-8.78-3.58-20-3.6-22.67-3.55a1.53,1.53,0,0,0-1.13.58c-.53,1-.6,2.81-.84,5.74l1.3,5.18a3.08,3.08,0,0,0,1.39,2.4c2.65,1.77,3.54,4.29,4,7.5Z"/><path class="cls-5" d="M199.12,87s-9.83-4.59-12.73-6.67c-2.51-1.81-2.58-5.61-2.72-10.71-.38,0-1.1.14-1.19.5a38.72,38.72,0,0,0-1.22,6.49l1.05,5.12c.05,1,1.74,2.67,2.55,3.22,2.65,1.76,3.07,2.86,3.48,6.07l.38,2.91a35,35,0,0,0,9.35,4.16Z"/><path class="cls-10" d="M190.76,91.4a37.42,37.42,0,0,0-17.49,1.46l.16,6c6.53-2.29,16.46-2.55,16.46-2.55.63-1,6.16-1.19,6.25-2.08C196.22,93.5,190.92,92,190.76,91.4Z"/><path class="cls-10" d="M196,94.14c-3.2,2.82-7.86-2.94-7.28-5.17.36-1.37,4.4-2,4.4-2S199.46,91.09,196,94.14Z"/><path class="cls-12" d="M207.39,73.61a13,13,0,0,1,7,2.45l.06,12s.22,13.25-11.93,13.82c-5.57.27-11.68-3.18-14.75-5.53l.36-2.76c3.9.52,5.23,1.19,6.85-.82L199,85l3.67-3.19a27.14,27.14,0,0,1,6.58.88C210.23,76.65,207.39,73.61,207.39,73.61Z"/><path class="cls-5" d="M197.11,93.27c-3.2,2.82-7.87-3-7.28-5.18.36-1.36,4.4-2,4.4-2S200.57,90.21,197.11,93.27Z"/><path class="cls-12" d="M207.76,73.66s.89-1.2,3.74-1.08a4.39,4.39,0,0,1,4,3.27s-2.42,1-2.81,6Z"/><polygon class="cls-12" points="193.98 85 200.97 86.42 200.81 83.23 194.33 82.36 193.98 85"/><path class="cls-5" d="M150.63,67.62s-11.23-2.17-13.29-2a29.64,29.64,0,0,0-6.43,1.14,10.71,10.71,0,0,0-4.71-.14,25.43,25.43,0,0,0-3.86,1.14,13.25,13.25,0,0,0-7.13-.38,21.21,21.21,0,0,0-5-.33c-4.49.56-13.74,3.64-24.43,6.85,0,0,10.81,25.72,15.74,24.32s25.7-3.07,39.06,3c4.64,2.1,17.49,3.43,26.48,3.43a9.88,9.88,0,0,0,6.58-2.42,11.38,11.38,0,0,0,2.79-13.37,22,22,0,0,0-5.54-7.42l-3.14-2Z"/><path class="cls-6" d="M156.36,83c-3.05-2-7.27-4.52-8.78-6-2.27-2.23-4.12-4.12-4.29-7.29a14.74,14.74,0,0,1,.33-3.38c-.62-.1-2.26-.27-2.85-.36-1,3.92-1.55,6.53-7.12,11.24-1.34,1.13,10,14.2,22,19.5C159.81,98.53,156.36,83,156.36,83Z"/><path class="cls-5" d="M167.05,104.6c.38,0,.75,0,1.1-.06a190,190,0,0,0-1.4-21.78,26.06,26.06,0,0,1-14.68-5.7c-.17.71-.33,1.37-.48,1.93-1.3,5-3.78,19.69-4.57,23.92A125.13,125.13,0,0,0,167.05,104.6Z"/><path class="cls-10" d="M168.94,100.33l-10.6-20.47-4.88,8.72a20.91,20.91,0,0,0,2.9,13.47s-3.87,1.66-16.73-3.89-23.3-4.81-23.3-4.81A23.55,23.55,0,0,1,106.24,96v1.43c8.29-1,23.67-1,34.33,3.76,4.64,2.1,17.49,3.43,26.48,3.43a10.39,10.39,0,0,0,2.44-.29Z"/><path class="cls-10" d="M114.84,81.48c-8-9.72-6-14-6-14-3.56.44-10.12-.28-18,2.14C97.48,72.46,117.64,84.88,114.84,81.48Z"/><path class="cls-6" d="M92.13,72.4s10.07-.64,14.57,1.29c3.23,1.38,11.57,9.21,9.21,12-1.71-1.71-7.07-7.93-22.5-9.21C78.25,75.21,92.13,72.4,92.13,72.4Z"/><path class="cls-11" d="M165.7,74c-5.64-4.16-11.86-8.44-16-9.17,0,0-2.13-.72-6.64,1.94L143,72.08a10.86,10.86,0,0,0,6,7.74s5,2.18,14.92,7.7c8.9,5,8.42-2.33,11.33,1.06C174.53,86.54,167.42,75.26,165.7,74Z"/><path class="cls-5" d="M142.63,66.76l.34,5.32a10.86,10.86,0,0,0,6,7.74l9,4.65.33-.34,14.81,1.66c-1.65-1.37-16.75-5.4-22.93-15a5.74,5.74,0,0,1-.45-6S147.14,64.1,142.63,66.76Z"/><path class="cls-6" d="M139.63,65.9l-.08-.06a9,9,0,0,0-2.21-.22c-1.31.09-1.81.1-2.13.13a3,3,0,0,0-2.46,1.83,20.61,20.61,0,0,1-3.34,6.11c-1.32,1.65,4.07,2.79,6.22-.21A16.86,16.86,0,0,0,139.63,65.9Z"/><path class="cls-6" d="M121.91,73.05c-.12,1.39,0,2.79,1.29,3.21.64.22,2.57-.5,3.43-1.28,3.13-2.9,4.28-8.22,4.28-8.22a10.71,10.71,0,0,0-4.71-.14l-.76.17A3,3,0,0,0,123.2,69,39.8,39.8,0,0,0,121.91,73.05Z"/><path class="cls-6" d="M116.4,75.3a3,3,0,0,0,4.22-2.11,24.37,24.37,0,0,1,1.72-5.43,13.26,13.26,0,0,0-7.12-.39c-1,4-.69,6,.48,7.39A2.26,2.26,0,0,0,116.4,75.3Z"/><path class="cls-13" d="M115,68.75a11.78,11.78,0,0,1,1.1-1.54c-.28.05-.56.1-.85.17l-.9-.11A3.29,3.29,0,0,1,115,68.75Z"/><path class="cls-14" d="M109.38,97.85s-13.18,6.53-21.09,6.53a58.79,58.79,0,0,1-15-2.24l-23.34-.62S44.55,96,45.84,72.24c0,0,22.46-3.57,32.78-4.5a167.18,167.18,0,0,1,22.11-.43,41.33,41.33,0,0,0,5.2-.21C105.93,74.09,111.84,86,109.38,97.85Z"/><path class="cls-15" d="M46.13,88.58C60.7,87,91.94,85,105.84,84.64c-.41-3-.59-4.36-.59-4.36S85.77,70.75,45.72,75A89.9,89.9,0,0,0,46.13,88.58Z"/><path class="cls-16" d="M101.72,67.35c.21,7.29,6.34,19.76,4.12,31.86,1.74-.68,3.54-1.36,3.54-1.36,2.43-11.73-3.29-23.43-3.44-30.46a.3.3,0,0,0-.32-.29A34.74,34.74,0,0,1,101.72,67.35Z"/><path class="cls-11" d="M167.77,81.86c-5.45-1-12.39,6.88-12.69,9.79-.49,4.69,2.44,13.24,13,12.57A10.73,10.73,0,0,0,176,97.75C178.46,91.92,173.77,83,167.77,81.86Z"/><path class="cls-5" d="M162.77,108.29a15.92,15.92,0,0,0,8.57-4.93c4.5-5.14-.64-16.72-8.36-12.86C154.63,94.68,162.77,108.29,162.77,108.29Z"/><path class="cls-10" d="M150.54,95.21c.72-6.35,11.63-40.14,11.63-40.14s6.58.76,10.46,5.64c0,0-2.45,35.5-3.74,38.54-1.37,3.23-4.89,7.67-6.12,9a7.33,7.33,0,0,1-9.67-1.09C151.8,105.57,150.13,98.86,150.54,95.21Z"/><path class="cls-6" d="M165.16,55.78c-2.85,9-9.87,31.37-10.44,36.43-.42,3.64,1.25,10.36,2.56,12a7.3,7.3,0,0,0,7,2.26,37.1,37.1,0,0,0,4.6-7.2c1.29-3,3.74-38.54,3.74-38.54A15.86,15.86,0,0,0,165.16,55.78Z"/><path class="cls-17" d="M172.25,66c0-.24,0-.48.05-.71L162.21,55.07s-5.88,18.09-9.3,30.29Z"/><circle class="cls-18" cx="170.7" cy="39.59" r="26.51" transform="translate(-4.53 40.28) rotate(-13.28)"/><circle class="cls-19" cx="170.7" cy="39.59" r="16.84" transform="translate(-4.45 34.25) rotate(-11.31)"/><path class="cls-18" d="M166.51,39.59a4.19,4.19,0,1,0,4.19-4.19A4.18,4.18,0,0,0,166.51,39.59Z"/><rect class="cls-20" x="111.54" width="17.74" height="5.91"/><rect class="cls-20" x="111.54" y="10.27" width="17.74" height="31.01"/><polygon class="cls-20" points="104.82 36.54 120.41 56.94 136 36.54 104.82 36.54"/></g></g></g></svg>