<svg xmlns="http://www.w3.org/2000/svg" viewBox="0 0 187.88 258.96"><defs><style>.cls-1{isolation:isolate;}.cls-2{fill:#d9d9da;}.cls-3{fill:#a1a1a4;}.cls-4{fill:#d6ab8c;}.cls-5{fill:#e2c4af;}.cls-6{fill:#c69575;}.cls-7{fill:#2d241f;}.cls-8{fill:#1e1e1e;}.cls-9{fill:#4c4c4e;}.cls-10{fill:#ddbaa1;}.cls-11{fill:#151515;}.cls-12{fill:#3a3c3b;}.cls-13{fill:#d9d8ec;}.cls-14{fill:#c6c5e3;}.cls-15{fill:#3c3c40;}.cls-16{fill:#ebd7c8;mix-blend-mode:multiply;}.cls-17{fill:#2f2f2f;}.cls-18{fill:#767676;}.cls-19{fill:#28b0b8;}.cls-20{fill:#fcbe76;}</style></defs><title>bench2.2</title><g class="cls-1"><g id="Calque_2" data-name="Calque 2"><g id="Layer_2" data-name="Layer 2"><polygon class="cls-2" points="133.24 170.06 165.93 211.81 172.54 206.64 139.42 164.33 133.24 170.06"/><polygon class="cls-3" points="140.24 165.39 139.94 165 137.15 166.44 133.24 170.06 140.24 179 140.24 165.39"/><path class="cls-4" d="M139.58,108.45a7.18,7.18,0,0,1-1.44,4.65l-8,5,5.94,9.77L159,120.35l-11.58-13.41Z"/><path class="cls-4" d="M139.58,108.45s-.36.38-2.24,2.45a1.93,1.93,0,0,0-.41.74l-1.06,3.7,5.36-2.08S142.11,111.26,139.58,108.45Z"/><path class="cls-5" d="M155.9,118.06c10.18-1.4,15.41-5.13,16.8-10.26,1.44-5.33-6.17-19-16.2-16-8.76,2.65-17.16,9.44-19.16,11.12a1.45,1.45,0,0,0-.49,1.12c.18,1,1.26,2.47,2.86,4.81l4.12,3.1a3,3,0,0,0,2.5,1c3.06-.29,5.26,1.06,7.52,3.21Z"/><path class="cls-4" d="M160.58,105.84s-11.25,3.24-14.69,3.43c-3,.17-5.35-2.63-8.55-6.37-.28.23-.74.77-.59,1.1a37.19,37.19,0,0,0,3,5.61l3.89,3.19c.63.7,2.93,1,3.87.86,3.06-.28,4,.29,6.3,2.44l2.05,2a33.89,33.89,0,0,0,9.54-2.57Z"/><path class="cls-6" d="M162.79,115s-12.37,10.8-15.7,16.64c0,0-6,.42-15.42-8.61l-.32-2.86,25.23-8.48S162,109.06,162.79,115Z"/><path class="cls-7" d="M171.68,98.05l-6.91-8.44a3.14,3.14,0,0,1,.26-1.39,4.24,4.24,0,0,0-5,0c-2,1.49-2.15,2.81-2.15,3.05l-.31.22s4,.56,6.89,5.73c-1.74.83-3,1.34-3.87,1.65a2.54,2.54,0,0,0-1.64,2l-.31,1.7L153.08,106l1.35,2.2,1.37-.72a3,3,0,0,1,4,1.16c1,1.69,1.22,4-.12,5.45a31,31,0,0,1-4.41,4.12l1.41,2.29c3.73-.1,10.4-1.23,14.42-4.81C179.9,107.86,171.68,98.05,171.68,98.05Z"/><path class="cls-4" d="M163.34,110.78c-.68,4-7.68,2.57-8.6.54-.56-1.24,2.08-4.17,2.08-4.17S164.08,106.38,163.34,110.78Z"/><polygon class="cls-3" points="176.76 121.53 92.86 199.3 97.7 204.56 181.61 126.8 176.76 121.53"/><path class="cls-8" d="M184.91,118.79,168.62,134a2.6,2.6,0,0,1-3.68-.15l-4.57-5a2.61,2.61,0,0,1,.16-3.68L176.81,110a2.61,2.61,0,0,1,3.69.15l4.56,5A2.6,2.6,0,0,1,184.91,118.79Z"/><path class="cls-9" d="M177.45,115l-13.81,13a3.06,3.06,0,0,0-.18,4.3l1.21,1.31a3,3,0,0,0,4.25.17l14.87-13.94-4.34-4.72A1.42,1.42,0,0,0,177.45,115Z"/><path class="cls-8" d="M160.45,141.57l-56.38,52.3a2.62,2.62,0,0,1-3.69-.15l-4.56-5a2.61,2.61,0,0,1,.15-3.69l56.38-52.3a2.61,2.61,0,0,1,3.69.15l4.56,5A2.61,2.61,0,0,1,160.45,141.57Z"/><path class="cls-9" d="M153,137.8l-53.91,50a3,3,0,0,0-.18,4.29l1.21,1.31a3,3,0,0,0,4.25.18l55-51L155,137.88A1.42,1.42,0,0,0,153,137.8Z"/><rect class="cls-2" x="55.51" y="205.4" width="132.38" height="8.39"/><rect class="cls-2" x="55.51" y="205.4" width="8.39" height="52.45"/><rect class="cls-9" x="55.51" y="252.05" width="8.39" height="5.79"/><rect class="cls-2" x="179.49" y="205.4" width="8.39" height="52.45"/><rect class="cls-9" x="179.49" y="252.05" width="8.39" height="5.79"/><rect class="cls-3" x="55.51" y="198.35" width="36.15" height="7.15"/><rect class="cls-8" x="44.1" y="189.9" width="44.78" height="11.96" rx="2.61"/><path class="cls-9" d="M83.33,194H47.14a3,3,0,0,0-3,3v1.78a3,3,0,0,0,3,3H84.75v-6.4A1.43,1.43,0,0,0,83.33,194Z"/><path class="cls-4" d="M111.86,124.37s-8.74,5.64-10,7.06a25.15,25.15,0,0,0-3.39,4.87,9.14,9.14,0,0,0-3.15,2.89,20.68,20.68,0,0,0-1.73,3.24,11.23,11.23,0,0,0-4.88,4.25,19.2,19.2,0,0,0-3.48,3c-2.53,3.23-6.44,11.23-11.2,20.23,0,0,24.37,10.88,26.62,6.78s9.36-12.1,22.68-17.54c5.94-2.42,18.75-14.33,24.73-22.8,5-7,5.59-12.62,5.59-12.62s-2.48-5.37-16.13-3.31l-6.66,1.26Z"/><path class="cls-6" d="M98,156.64C86.28,155,84.68,150.8,84.68,150.8c-2,2.56-6.74,6.22-10.22,12.9C80.69,161.44,102.14,157.21,98,156.64Z"/><path class="cls-10" d="M77.18,164.8s6.09-6.83,10.31-8.36c3-1.09,13.72-1,14.08,2.43-2.27-.1-9.94-1-20.81,7.92C70.08,175.55,77.18,164.8,77.18,164.8Z"/><path class="cls-5" d="M125,116c-7.72,1.38-13.65,3.38-16.82,5.52,0,0-1.38,2.2-1.81,7l3.54,3.72a10.35,10.35,0,0,0,9.08,1.55s4.61-2.06,14.88-4.16,9.91-6.83,9.91-6.83C142,121.87,127,115.69,125,116Z"/><path class="cls-4" d="M106.1,128.86l3.82,3.45a10.35,10.35,0,0,0,9.08,1.55l9-2.51,0-.44,10.73-8.25c-2,.1-14.5,6.91-25,4.21-3.58-.92-5.51-5.31-5.51-5.31S106.81,123.49,106.1,128.86Z"/><path class="cls-6" d="M138.69,122.66s-4.13.72-13,7.16c-3.08,2.24-6.12,7.81-2.9,15.57l3.25-7.81S137.32,129.78,138.69,122.66Z"/><path class="cls-10" d="M126,131.35c-3.31.58-7.76,1.5-9.74,1.43-3-.09-5.45-.22-7.7-2.3a14.83,14.83,0,0,1-2.07-2.54c-.47.32-1.65,1.25-2.09,1.56,2,3.34,3.4,5.48,3,12.27C107.18,144.42,126,131.35,126,131.35Z"/><path class="cls-10" d="M103.58,130.17h-.1a7.92,7.92,0,0,0-1.58,1.25c-.79.89-1.11,1.22-1.29,1.44a2.7,2.7,0,0,0-.36,2.82,20.23,20.23,0,0,1,2,6.34c.26,2,4.52-.67,3.89-4.1A16.56,16.56,0,0,0,103.58,130.17Z"/><path class="cls-10" d="M96.92,146.34c.86,1,1.91,1.91,3,1.4.56-.26,1.33-2,1.36-3.06.07-4-2.77-8.38-2.77-8.38a9.14,9.14,0,0,0-3.15,2.89l-.38.6a2.81,2.81,0,0,0,0,2.92A36.36,36.36,0,0,0,96.92,146.34Z"/><path class="cls-10" d="M94.87,151.39a2.66,2.66,0,0,0,1.31-4.13,24.17,24.17,0,0,1-2.55-4.83,11.18,11.18,0,0,0-4.88,4.25c2,3.42,3.59,4.56,5.3,4.79A2.12,2.12,0,0,0,94.87,151.39Z"/><path class="cls-11" d="M105.44,171.76a27,27,0,0,0-2.38,3.92c-8.69,19.24-24.69,14.57-24.69,14.57s-21-10.88-14.46-18.49a161.92,161.92,0,0,1,15-15.22,40.49,40.49,0,0,0,3.45-3.66C87,157.7,99.11,161.89,105.44,171.76Z"/><path class="cls-12" d="M79.57,155.89c5.07,4.89,17.13,9.27,23.76,19.11a16.52,16.52,0,0,1,2.11-3.24C99.2,162,87.36,157.82,82.51,153.08a.29.29,0,0,0-.42,0A33.8,33.8,0,0,1,79.57,155.89Z"/><path class="cls-4" d="M20.3,187.94s1-5,7.58-5.34,8.05,25.68,6,44.19-1.19,22.83-1.19,22.83l-12.85-.38s2.41-2.12,1.27-25.7C19.62,192.24,18.4,188.31,20.3,187.94Z"/><path class="cls-4" d="M17.72,183.46a76.74,76.74,0,0,0,2.07,11.59l9.1-4.14s8.68-12.82,3.31-20.27C28.76,165.87,16.89,173.12,17.72,183.46Z"/><path class="cls-10" d="M32,251.18s.92-3.86.28-31.71c-.56-23.71-8.55-28.68-9.38-29.23s-3.06,6.88-3.06,6.88l-.17,1.43c.34,5.3.87,13.2,1.44,25,.66,13.7.12,20.16-.44,23.16Z"/><path class="cls-13" d="M9.57,258.57c-3.59-.51-6.65-1.45-8.9-3.34-.92-.78-.37-3.89.63-4.57,1.78-.6,5.36-.9,8.2-1.86,3-1,6.57-2.46,9.08-4.82,1.1-1,1.58-1.38,2.31-.94a11.21,11.21,0,0,1,2.76,3.11c.7,1,5.46,1.68,7.48.67,1.26-.63,1.22-2.86,1.22-2.86.25.1,1.89.08,2,1.15.38,3.54,1,8.86,1,8.86s.6,4.87-6.57,3.76-6.83.79-11.15,1.14A38.76,38.76,0,0,1,9.57,258.57Z"/><path class="cls-14" d="M35.31,254s-.09-.87-.23-2.13c-.84.74-3.51,2.52-8.83,1.6a15.81,15.81,0,0,0-3.36.84c-1.16.52-8.51,3.57-20.17,0l-.61,2a19.9,19.9,0,0,0,7.46,2.33,38.76,38.76,0,0,0,8,.3c4.32-.35,4-2.24,11.15-1.14S35.31,254,35.31,254Z"/><path class="cls-15" d="M35.59,255.22s-.34-1.78-.43-2.61c-1.69,2.5-6.92,2.09-9.23,1.88s-3.78,1-7.35,1.89-10.4.52-14.49-1.26c-2.21-1.58-3.64-3.89-3.8-3.53-.52,1.17-.3,3.06.38,3.64,2.25,1.89,5.31,2.83,8.9,3.34a38.76,38.76,0,0,0,8,.3c4.32-.35,3.93-1.94,11.15-1.14C35.38,258.48,35.59,255.22,35.59,255.22Z"/><path class="cls-4" d="M64.7,163.13l-34.34,4.73c-12.7,1.75-12.46,12.57-12.46,12.57a10.64,10.64,0,0,0,10.25,7.78c8.37.1,13.75-.23,28.71,2.31,5.72,1,11.47-.66,16.62-.62Z"/><path class="cls-6" d="M31.25,184.7a11.18,11.18,0,0,0,1,3.54c3.6,0,7,.07,11.51.49A38.42,38.42,0,0,0,31.25,184.7Z"/><path class="cls-10" d="M57.35,175.84,59,163.92l-28.61,3.94c-5.09.7-8.1,2.86-9.89,5.2-.49,5.89,2.48,7.68,4,6.47,1.88-1.51,8-2.36,8-2.36Z"/><path class="cls-12" d="M73.65,161.13s-14.82,1.78-28.53,3.67c0,0-4.15,10.8,3.3,26.32H73.15s24.12,2.37,21.39-16.76C92.47,159.89,73.65,161.13,73.65,161.13Z"/><path class="cls-9" d="M100.14,197.36a6.2,6.2,0,1,1-8.77-.37A6.21,6.21,0,0,1,100.14,197.36Z"/><path class="cls-2" d="M95.66,199.39a2.17,2.17,0,1,1-2.26,2.08A2.17,2.17,0,0,1,95.66,199.39Z"/><path class="cls-4" d="M31.27,183.42s6.94,12.14,6.62,22.13c-.15,4.88-4.55,21.09-5.42,30.63C31.85,243.06,31.27,183.42,31.27,183.42Z"/><path class="cls-10" d="M133.83,154.1s10.76-2.9,12.5-11.38c1.33-6.46-.62-16.13-8.06-12.41C130.2,134.34,133.83,154.1,133.83,154.1Z"/><path class="cls-5" d="M142.88,122c-5.25-1-7.51,3.68-7.81,6.48-.47,4.53,4.35,14.68,8.9,15.92,0,0,4.75.42,7.24-5.79C154.4,130.59,148.68,123.07,142.88,122Z"/><path class="cls-16" d="M134.6,144.34c-1.24-5.58-5-11.66-8.9-20.06-1.27-2.72-2.42-5.37-3.38-7.72A51.53,51.53,0,0,0,110,120.5c1.27,9.42,3.2,22.57,4.73,27.15s5.6,8,8.22,9.69A84.5,84.5,0,0,1,111.08,162c-8.06,2.28-11.17,5.8-11.17,5.8l.78,8.89c2.26-4.1,9.37-12.1,22.68-17.53a18,18,0,0,0,2.52-1.33l.52-.33.07,0,.45-.3.13-.09.09-.06.06,0,.27.1.51-.35v-.37a76.66,76.66,0,0,0,6.8-5.55A15.48,15.48,0,0,0,134.6,144.34Z"/><path class="cls-4" d="M117,146.21c-2.48-7.45-6-37.46-6-37.46s4.92-4.56,10.39-2c0,0,2.69,7.74,6.62,16.14s7.65,14.47,8.89,20.06c2.69,12.11-7.32,15.15-9.72,14.06C125.32,156.13,119.07,152.36,117,146.21Z"/><path class="cls-5" d="M117.84,103.81c-3.27.5-6.87,4.93-6.87,4.93s3.57,30,6,37.47c1.38,4.13,4.65,7.18,7.2,9,3.71-.64,9.63-4.52,7.48-14.17C130.46,135.45,118.75,106.3,117.84,103.81Z"/><path class="cls-4" d="M111,108.74s.91,7.64,2.13,16.16l11-11-.11-.44c-1.62-4-2.58-6.8-2.58-6.8C115.89,104.19,111,108.74,111,108.74Z"/><circle class="cls-17" cx="111.57" cy="91.7" r="25.58" transform="translate(-30.47 117.8) rotate(-49.83)"/><circle class="cls-18" cx="111.57" cy="91.7" r="16.25" transform="translate(-10.34 169.14) rotate(-71.84)"/><path class="cls-17" d="M108,93.53a4,4,0,1,0,1.79-5.44A4.05,4.05,0,0,0,108,93.53Z"/><path class="cls-19" d="M85.58,163.13c-4.34,6.89-13,6.89-13,6.89H44.09a36.14,36.14,0,0,0,.69,10.55H71.22a22.78,22.78,0,0,0,13.93-4.64,20.49,20.49,0,0,0,6.49-8.41A15.44,15.44,0,0,0,85.58,163.13Z"/><rect class="cls-20" x="104.02" width="17.12" height="5.71"/><rect class="cls-20" x="104.02" y="9.91" width="17.12" height="29.93"/><polygon class="cls-20" points="127.63 35.27 112.58 54.95 97.54 35.27 127.63 35.27"/></g></g></g></svg>