<svg xmlns="http://www.w3.org/2000/svg" viewBox="0 0 151.03 252.13"><defs><style>.cls-1{isolation:isolate;}.cls-2{fill:#c69575;}.cls-3{fill:#ddbaa1;}.cls-4{fill:#d6ab8c;}.cls-5{fill:#d9d8ec;}.cls-6{fill:#c6c5e3;}.cls-7{fill:#3a3c3b;}.cls-8{fill:#b37b55;}.cls-9{fill:#2d241f;}.cls-10{fill:#9c6a51;}.cls-11{mix-blend-mode:multiply;}.cls-12{fill:#e8c9af;}.cls-13{fill:#c08a67;}.cls-14{fill:#151515;}.cls-15{fill:#28b0b8;}.cls-16{fill:#d8af92;}.cls-17{fill:#2f2f2f;}.cls-18{fill:#cbcbcb;}.cls-19{fill:#ededed;}.cls-20{fill:#767676;}.cls-21{fill:#e2c4af;}.cls-22{fill:#fcbe76;}</style></defs><title>curl2</title><g class="cls-1"><g id="Calque_2" data-name="Calque 2"><g id="Layer_2" data-name="Layer 2"><path class="cls-2" d="M52.69,85.91C53.52,84.56,55,79.12,55,65.22c-3.08-16-8.68-6.54-8.68-6.54V92.52A24.77,24.77,0,0,0,52.69,85.91Z"/><path class="cls-3" d="M52.35,42.59a20.48,20.48,0,0,0-9.25,4.26c-4.13,3.56-5,13.54-1.75,21.25A21,21,0,0,0,53.77,55C56.86,44.93,52.35,42.59,52.35,42.59Z"/><path class="cls-2" d="M43.8,70c2.19-1,9.23-7.79,8.69-12.35-6.68,10.79-13.34,3.69-12.74-3.3C38.31,60.81,40,67.54,43.8,70Z"/><path class="cls-4" d="M74.72,97.1a58.23,58.23,0,0,1-18.27-3.37.14.14,0,0,1,0,.06,201,201,0,0,1-3.14,22.39c-.68,6.1-7,11.43-3.37,49.11l4.77,12a7,7,0,0,0,3.07,2.86l.66.62,0-.4c3,.57,7-6.19,8.08-11.39.58-2.81,5.94-29.9,7.08-38a4,4,0,0,1,1.09-.13Z"/><path class="cls-4" d="M63,174.26s.58,7.19.84,13.48a35,35,0,0,1-3,15.89,21.24,21.24,0,0,1-1.69,3.17S48.64,186.67,63,174.26Z"/><path class="cls-4" d="M51.25,168.74s-4,17.65-3.44,26.47,1.1,26.2.83,32,8,5.52,8,5.52,2.48-23.44,3.86-29.51,2.49-29,2.49-29Z"/><path class="cls-3" d="M51.76,204.17c0,10,.76,23.61,0,28.86a39.56,39.56,0,0,0,4.87-.31s2.1-19.79,3.51-27.71q.3-.58.66-1.38a35,35,0,0,0,3-15.89c-.18-4.29-.51-9-.7-11.56C61.3,178.49,51.76,186.79,51.76,204.17Z"/><path class="cls-5" d="M48.07,228s-1.18-1.23-1.54,1.43.19,4.66-2.15,8.46-4.46,5.61-4.67,7.42a10.72,10.72,0,0,0,0,3.8s1.08,2.13,5.94,2.26c4.34.11,7-.36,8.27-1.79.82-.95,1.34-2.75,1.35-6a14.72,14.72,0,0,1,1.61-7.22c.85-1.33-.48-6.31-.48-6.31a1.88,1.88,0,0,0-1.76-2C49.79,229,48.07,228,48.07,228Z"/><path class="cls-6" d="M56.24,229.2s.78-.28.91-.85a2.63,2.63,0,0,0,.06-1s.79-.47,1,1.43a19.36,19.36,0,0,1,.15,3.52,20.57,20.57,0,0,1-1.06,3.23,28.46,28.46,0,0,0-1.13,5.7c-.17,2.66.4,10.12-9.84,9.55,6.1-1.72,6.32-5.14,6.32-5.14l.15-4.16a27.34,27.34,0,0,1,2.62-10.69Z"/><path class="cls-7" d="M54.25,249.69a14.29,14.29,0,0,0,1.22-3.4c-1.86,2.81-3,3-4.67,3.19a31.41,31.41,0,0,1-4.28-.38c-1.77-.13-3.52.47-5,.09a2.92,2.92,0,0,1-2-1.48,17.44,17.44,0,0,0,.09,1.77s1.06,2.52,5.92,2.64C48,252.19,52.73,252.05,54.25,249.69Z"/><path class="cls-7" d="M57.35,235.57a20.57,20.57,0,0,0,1.06-3.23,19.76,19.76,0,0,0,0-2.3,14.36,14.36,0,0,0-2.66,6.51c-.29,2.58.3,4.9.25,7.34.14-1,.2-1.92.25-2.62A28.46,28.46,0,0,1,57.35,235.57Z"/><path class="cls-4" d="M61.86,160.74s-9.38-1-11.41,3.48c-1.37,3-2.18,14.82,1.6,19.13,1.86,2.13,10.1-5.51,10.1-10.75S61.86,160.74,61.86,160.74Z"/><path class="cls-8" d="M68.54,158.88l-2-10.69L49,152.63c.18,3.76.48,8,.93,12.66l.1.25C49.88,166.1,68.17,160.8,68.54,158.88Z"/><polygon class="cls-4" points="67.98 32.75 54.39 41.94 75.53 41.94 75.53 32.75 67.98 32.75"/><path class="cls-8" d="M66.45,36.64V34l-9.72,6.39A30.66,30.66,0,0,1,66.45,36.64Z"/><polygon class="cls-4" points="66.45 25.57 66.45 39.93 75.53 39.93 75.53 26.33 66.45 25.57"/><path class="cls-9" d="M64,18.29V9.67S64.51.77,75.53,0V5.65L66.68,20.88Z"/><path class="cls-3" d="M65,18.39s-.29-1.73-1.63-1.73-.86,2.49-.57,4.31,2,4.31,3.45,2.78S65,18.39,65,18.39Z"/><path class="cls-10" d="M75.53,33.37H73.66a2.19,2.19,0,0,1-1.53-.62L66.45,27.2h9.08Z"/><path class="cls-4" d="M66.54,7.56l-.28,4.31L65,15v5.65l1.44,6.52,5.48,3.61a2.25,2.25,0,0,0,1.2.36h2.4V4.6C69.4,4.6,66.54,7.56,66.54,7.56Z"/><path class="cls-4" d="M47.72,44.84S46.26,48,49.59,60.05c.59,2.15,4.35,2.76,5.58,6.42C57.38,73,57.23,83.21,57,85.85c-.27,3.56-2.29,18.76-2.29,18.76,0,3.9,20.78,31.85,20.78,31.85l0-50.61V39.46S47.72,40.94,47.72,44.84Z"/><path class="cls-2" d="M55,103.07l12.85,2.06s-3.54-10.31-5-14.76a6.36,6.36,0,0,1,1-6.2c-3.94-4.86-1.38-8.29-1.38-8.29a14.37,14.37,0,0,1-2.54-8.95L53.72,73.7C55.27,77,57.23,83.24,57,85.85,56.82,88.72,55.48,99.11,55,103.07Z"/><g class="cls-11"><path class="cls-12" d="M72,30.81l-3.73-2.45,7.26,15.31V31.17H73.2A2.2,2.2,0,0,1,72,30.81Z"/></g><path class="cls-4" d="M69.11,65.18a39.86,39.86,0,0,1,6.42-1.38V58.51Z"/><path class="cls-2" d="M75.53,126.26V90.9l-1,.86a2.66,2.66,0,0,1-1.67.59H69.18c-4.08,0-5.31-.4-6.36-2A325.62,325.62,0,0,0,75.53,126.26Z"/><path class="cls-13" d="M73.7,44l-1.43-.85a6.71,6.71,0,0,0-3.39-.92H58.38A33.57,33.57,0,0,0,51.7,52.54l-.36-3.62c-3.08,4-2.55,10-1.8,11.42a39.88,39.88,0,0,0,3.36,6.54c.53,1.93.41,1.74.62,5.17.41,3.72,2.85,9.82,3.37,12,.09.12.56-16,3-17.07,0,0,6.51,0,10.14-1.59a10.26,10.26,0,0,0,3.72-2.77l1.73-2.07V47.23A3.73,3.73,0,0,0,73.7,44Z"/><path class="cls-8" d="M75.53,123.09c-9.1-12.47-16.27-22.92-19.16-30-.67,5.38-1.48,11.49-1.48,11.49,0,2.89,11.45,19,17.34,27.18l3.3-.73Z"/><path class="cls-8" d="M74.07,92a2.73,2.73,0,0,1,1.46.64V90.9l-1,.86A2.19,2.19,0,0,1,74.07,92Z"/><path class="cls-8" d="M67.24,92.17s-2.55.58-1.66,7.14l-2.76-8.94A5.47,5.47,0,0,0,67.24,92.17Z"/><path class="cls-2" d="M73.34,70.48C71,71.11,68,72,65.61,72.73a6.34,6.34,0,0,1-3.83-.1,17.17,17.17,0,0,1-1.94-1.14l2.64,4.39a1.56,1.56,0,0,0,1.74.06,21.92,21.92,0,0,1,8.13-2.7,3,3,0,0,1,3.18,1.81V68.48A3.62,3.62,0,0,1,73.34,70.48Z"/><path class="cls-2" d="M73.56,80.57c-2.11.55-4.81,1.35-6.93,2a5.78,5.78,0,0,1-3.42-.08c-.6-.21-.88-.9-1.59-1.28l1.62,3.3a2.39,2.39,0,0,0,2.93.85,33.87,33.87,0,0,1,6.7-1.92c.88-.17,1.39-.35,2.07.06.26.16.59,1.15.59,1.15V78.83A3.23,3.23,0,0,1,73.56,80.57Z"/><path class="cls-3" d="M72.87,44l-1.43-.85a6.68,6.68,0,0,0-3.38-.92H57.56S49.69,46,49.85,56.31a5.22,5.22,0,0,0,1.75,3.51c1.56,1.52,3.06,3.09,5.24,3.09h11A6.74,6.74,0,0,0,73,60.54l.15-.19a6.63,6.63,0,0,0,1.53-4.24v-9A3.66,3.66,0,0,0,72.87,44Z"/><path class="cls-14" d="M55.11,99.72l-.69,1.62-2.77,6.88c-2.66,6.2-3.42,12.41-3.87,19.15l-2.39,30s9.1,7.66,27.1,2.9l3-24V104.48S59.87,103.86,55.11,99.72Z"/><path class="cls-15" d="M55.72,161.44c-.4-8.91-1.07-20.75-2-28.42-.89-7.38-3.12-12-5-14.64-.49,2.92-.76,5.9-1,9l-2.39,30S48.86,160.33,55.72,161.44Z"/><path class="cls-2" d="M98.31,87.15c-.83-1.35-4.19-8-4.19-21.93,3.08-16,10.59-6.54,10.59-6.54V92.52A13.81,13.81,0,0,1,98.31,87.15Z"/><path class="cls-3" d="M98.64,42.59a20.49,20.49,0,0,1,9.26,4.26c4.13,3.56,5,13.54,1.75,21.25A21,21,0,0,1,97.23,55C94.13,44.93,98.64,42.59,98.64,42.59Z"/><path class="cls-2" d="M107.2,70c-2.19-1-9.24-7-8.7-11.52,6.68,10.79,13.34,2.86,12.75-4.13C112.69,60.81,111,67.54,107.2,70Z"/><path class="cls-4" d="M76.28,97.1a58.06,58.06,0,0,0,18.26-3.37l0,.06a199.72,199.72,0,0,0,3.13,22.39c.69,6.1,7,11.43,3.37,49.11l-4.76,12a7,7,0,0,1-3.07,2.86l-.67.62,0-.4c-3,.57-7-6.19-8.08-11.39-.58-2.81-5.94-29.9-7.07-38a4,4,0,0,0-1.09-.13Z"/><path class="cls-4" d="M88,174.26s-.58,7.19-.85,13.48a35,35,0,0,0,3,15.89,22.49,22.49,0,0,0,1.69,3.17S102.36,186.67,88,174.26Z"/><path class="cls-4" d="M99.74,168.74s4,17.65,3.45,26.47-1.11,26.2-.83,32-8,5.52-8,5.52-2.48-23.44-3.86-29.51-2.48-29-2.48-29Z"/><path class="cls-3" d="M99.24,204.17c0,10-.76,23.61,0,28.86a39.61,39.61,0,0,1-4.88-.31s-2.09-19.79-3.5-27.71c-.2-.39-.43-.85-.67-1.38a35,35,0,0,1-3-15.89c.18-4.29.51-9,.7-11.56C89.7,178.49,99.24,186.79,99.24,204.17Z"/><path class="cls-5" d="M102.93,228s1.18-1.23,1.54,1.43-.2,4.66,2.14,8.46,4.47,5.61,4.68,7.42a10.72,10.72,0,0,1,0,3.8s-1.08,2.13-5.94,2.26c-4.35.11-7-.36-8.27-1.79-.82-.95-1.34-2.75-1.36-6a14.85,14.85,0,0,0-1.6-7.22c-.85-1.33.47-6.31.47-6.31a1.89,1.89,0,0,1,1.77-2C101.21,229,102.93,228,102.93,228Z"/><path class="cls-6" d="M94.76,229.2s-.78-.28-.91-.85a2.63,2.63,0,0,1-.06-1s-.79-.47-1.05,1.43a19.36,19.36,0,0,0-.15,3.52,20.57,20.57,0,0,0,1.06,3.23,28.46,28.46,0,0,1,1.13,5.7c.17,2.66-.4,10.12,9.84,9.55-6.11-1.72-6.33-5.14-6.33-5.14l-.14-4.16a27.34,27.34,0,0,0-2.62-10.69Z"/><path class="cls-7" d="M96.74,249.69a14.27,14.27,0,0,1-1.21-3.4c1.85,2.81,3,3,4.67,3.19a31.41,31.41,0,0,0,4.28-.38c1.77-.13,3.52.47,5,.09a2.94,2.94,0,0,0,2-1.48c0,1-.1,1.77-.1,1.77s-1,2.52-5.91,2.64C103,252.19,98.27,252.05,96.74,249.69Z"/><path class="cls-7" d="M93.65,235.57a20.57,20.57,0,0,1-1.06-3.23,17.37,17.37,0,0,1,0-2.3,14.27,14.27,0,0,1,2.65,6.51c.3,2.58-.3,4.9-.25,7.34-.14-1-.2-1.92-.24-2.62A28.46,28.46,0,0,0,93.65,235.57Z"/><path class="cls-4" d="M89.14,160.74s9.38-1,11.4,3.48c1.38,3,2.19,14.82-1.59,19.13-1.86,2.13-10.1-5.51-10.1-10.75S89.14,160.74,89.14,160.74Z"/><path class="cls-8" d="M101.44,158.88l-2-10.69-17.52,4.44c0,1.25.13,2.55.22,3.9.67,3.5,1.29,6.65,1.74,8.92C87.56,164.68,101.11,160.53,101.44,158.88Z"/><polygon class="cls-3" points="83.02 32.75 96.61 41.94 75.53 41.94 75.53 32.75 83.02 32.75"/><path class="cls-8" d="M84.55,36.64V34l9.71,6.39A30.55,30.55,0,0,0,84.55,36.64Z"/><polygon class="cls-3" points="84.55 25.57 84.55 39.93 75.53 39.93 75.53 26.33 84.55 25.57"/><path class="cls-9" d="M87,18.29V9.67S86.54.77,75.53,0V5.65l8.79,15.23Z"/><path class="cls-3" d="M86,18.39s.28-1.73,1.62-1.73.87,2.49.58,4.31-2,4.31-3.45,2.78S86,18.39,86,18.39Z"/><path class="cls-10" d="M75.53,33.37h1.81a2.15,2.15,0,0,0,1.52-.62l5.69-5.55h-9Z"/><path class="cls-3" d="M84.45,7.56l.29,4.31L86,15v5.65L84.55,27.2l-5.49,3.61a2.2,2.2,0,0,1-1.2.36H75.53V4.6C81.65,4.6,84.45,7.56,84.45,7.56Z"/><path class="cls-3" d="M103.28,44.84s1.46,3.15-1.87,15.21c-.59,2.15-4.35,2.76-5.59,6.42C93.61,73,93.76,83.21,94,85.85c.26,3.56,2.28,18.76,2.28,18.76,0,3.9-20.71,31.85-20.71,31.85l0-50.61V39.46S103.28,40.94,103.28,44.84Z"/><path class="cls-16" d="M103.28,44.84c0-1.26-2.88-2.26-6.78-3.05-5.09-1-11.93-.93-16.4-.71a6.91,6.91,0,0,0-4.6,2.63V48.1s0-1,0-1c0-1.29,1.48-2.49,2.6-3.16l1.42-.84a6.74,6.74,0,0,1,3.39-.92h10.5s7.86,3.72,7.7,14.08a4.42,4.42,0,0,1-.79,2.37h1.42C104.62,47.76,103.28,44.84,103.28,44.84Z"/><path class="cls-4" d="M96,103.07l-12.85,2.06s3.53-10.31,5-14.76a6.34,6.34,0,0,0-1-6.2c3.93-4.86,1.38-8.29,1.38-8.29a14.45,14.45,0,0,0,2.54-8.95l6.21,6.77C95.72,77,93.76,83.24,94,85.85,94.17,88.72,95.52,99.11,96,103.07Z"/><g class="cls-11"><path class="cls-12" d="M79,30.81l3.73-2.45-7.2,15.31V31.17H77.8A2.22,2.22,0,0,0,79,30.81Z"/></g><path class="cls-4" d="M81.89,65.18a39,39,0,0,0-6.36-1.38V58.51Z"/><path class="cls-2" d="M75.53,126.26V90.9l1,.86a2.66,2.66,0,0,0,1.67.59h3.63c4.08,0,5.31-.4,6.35-2A315.88,315.88,0,0,1,75.53,126.26Z"/><path class="cls-13" d="M77.3,44l1.42-.85a6.74,6.74,0,0,1,3.39-.92h10.5A33.5,33.5,0,0,1,99.3,52.54l.35-3.62c3.09,4,2.55,10,1.81,11.42a40.68,40.68,0,0,1-3.36,6.54c-.53,1.93-.41,1.74-.62,5.17-.41,3.72-2.85,9.82-3.38,12-.09.12-.56-16-3-17.07,0,0-6.51,0-10.14-1.59a10.21,10.21,0,0,1-3.73-2.77L75.53,60.5V47.23A3.66,3.66,0,0,1,77.3,44Z"/><path class="cls-8" d="M75.53,123.09c9.09-12.47,16.2-22.92,19.1-30,.66,5.38,1.47,11.49,1.47,11.49,0,2.89-11.44,19-17.33,27.18l-3.24-.73Z"/><path class="cls-8" d="M76.92,92a2.52,2.52,0,0,0-1.39.64V90.9l1,.86A2.11,2.11,0,0,0,76.92,92Z"/><path class="cls-8" d="M83.76,92.17s2.55.58,1.66,7.14l2.75-8.94S86.93,92.13,83.76,92.17Z"/><path class="cls-2" d="M77.66,70.48C80,71.11,83,72,85.39,72.73a6.31,6.31,0,0,0,3.82-.1,17.22,17.22,0,0,0,2-1.14l-2.64,4.39a1.56,1.56,0,0,1-1.74.06,21.92,21.92,0,0,0-8.14-2.7,2.85,2.85,0,0,0-3.11,1.81V68.48A3.43,3.43,0,0,0,77.66,70.48Z"/><path class="cls-2" d="M77.44,80.57c2.1.55,4.81,1.35,6.92,2a5.81,5.81,0,0,0,3.43-.08c.6-.21.88-.9,1.59-1.28l-1.63,3.3a2.37,2.37,0,0,1-2.92.85,34.07,34.07,0,0,0-6.7-1.92c-.88-.17-1.39-.35-2.07.06-.26.16-.53,1.15-.53,1.15V78.83A3,3,0,0,0,77.44,80.57Z"/><path class="cls-3" d="M78.13,44l1.42-.85a6.74,6.74,0,0,1,3.39-.92h10.5s7.86,3.72,7.7,14.08a5.17,5.17,0,0,1-1.74,3.51c-1.56,1.52-3.07,3.09-5.25,3.09h-11A6.76,6.76,0,0,1,78,60.54l-.15-.19c-1-1.19-2.32-2.69-2.32-4.24v-9C75.53,45.86,77,44.66,78.13,44Z"/><path class="cls-14" d="M95.89,99.72l.69,1.62,2.77,6.88c2.66,6.2,3.42,12.41,3.86,19.15l2.39,30s-9.1,7.66-27.09,2.9l-3-24V104.48S91.13,103.86,95.89,99.72Z"/><path class="cls-15" d="M95.27,161.44c.41-8.91,1.08-20.75,2-28.42.89-7.38,3.11-12,5-14.64a89,89,0,0,1,1,9l2.39,30S102.14,160.33,95.27,161.44Z"/><rect class="cls-17" x="87.95" y="39.64" width="49.13" height="6.66"/><polygon class="cls-17" points="130.9 54.93 129.73 58.77 129.73 27.17 130.9 31.01 130.9 54.93"/><polygon class="cls-18" points="124.2 54.93 125.38 58.77 125.38 27.17 124.2 31.01 124.2 54.93"/><rect class="cls-17" x="125.38" y="51.02" width="4.35" height="7.75"/><rect class="cls-19" x="125.38" y="27.17" width="4.35" height="7.75"/><rect class="cls-20" x="125.38" y="34.92" width="4.35" height="16.11"/><polygon class="cls-20" points="134.54 50.82 133.91 53.34 133.91 32.59 134.54 35.12 134.54 50.82"/><polygon class="cls-18" points="130.9 50.82 131.54 53.34 131.54 32.59 130.9 35.12 130.9 50.82"/><rect class="cls-17" x="131.54" y="48.26" width="2.37" height="5.09"/><rect class="cls-19" x="131.54" y="32.59" width="2.37" height="5.09"/><rect class="cls-20" x="131.54" y="37.68" width="2.37" height="10.58"/><polygon class="cls-17" points="94.14 54.93 95.31 58.77 95.31 27.17 94.14 31.01 94.14 54.93"/><polygon class="cls-18" points="100.83 54.93 99.66 58.77 99.66 27.17 100.83 31.01 100.83 54.93"/><rect class="cls-17" x="95.31" y="51.02" width="4.35" height="7.75"/><rect class="cls-19" x="95.31" y="27.17" width="4.35" height="7.75"/><rect class="cls-20" x="95.31" y="34.92" width="4.35" height="16.11"/><polygon class="cls-20" points="90.49 50.82 91.13 53.34 91.13 32.59 90.49 35.12 90.49 50.82"/><polygon class="cls-18" points="94.13 50.82 93.5 53.34 93.5 32.59 94.13 35.12 94.13 50.82"/><rect class="cls-17" x="91.13" y="48.26" width="2.37" height="5.09"/><rect class="cls-19" x="91.13" y="32.59" width="2.37" height="5.09"/><rect class="cls-20" x="91.13" y="37.68" width="2.37" height="10.58"/><path class="cls-3" d="M106.79,94.32c4,.55,4.47-.89,5.93-2.9,2.25-3.1,3.72-5.74,3.81-14.34.1-9.37-.26-12.41.46-21.35.91-3.5,2.81-4.53,4-6.72,1.46-2.68-.36-4.06-.2-7.77-.16-.58.26-2-1.72-3.07-1.67-.88-8.82-.93-12.13-.59-.62.06-1.53,1.67-1.72,2.25L104,43.15a5,5,0,0,0-.21,2.82c.64,2.88,2.66,9.69,2.66,9.69.34,3.33-.85,5.33-4,17.65-1.62,6.31-2.71,11.36,1.42,18.39A5.17,5.17,0,0,0,106.79,94.32Zm13-51.07h-.15S119.8,43.2,119.8,43.25Z"/><path class="cls-4" d="M104.35,42.26l.6-1.63a.59.59,0,0,1,.38.93c-2,3.88-.75,4.24,1.74,11.07s.65,8.65-1.66,19.44c-3.1,14.47-1.24,19.85-1.24,19.85-1-.71-2.18-4.13-3.24-7.81,0-1.06.11-2.13.21-3.18a65.92,65.92,0,0,1,1.33-7.62c2.69-11.5,4.22-13.32,4.06-16.81a6.45,6.45,0,0,0-.26-1.52c-.53-1.8-1.94-6.68-2.46-9a5.08,5.08,0,0,1,.09-2.48c0-.11.07-.23.12-.34Z"/><path class="cls-21" d="M120.82,41.24a2.18,2.18,0,0,1,0-.41,1.09,1.09,0,0,0,0-.18,2,2,0,0,0,0-.34l0-.22a2.48,2.48,0,0,0-.23-.64,3,3,0,0,0-1.37-1.28,5.33,5.33,0,0,0-1.4-.4l-.1,0a37.81,37.81,0,0,0-5.32-.36h-1.37c-1.5,0-2.91.08-3.94.19a4.07,4.07,0,0,0-1.5,1.43A43.47,43.47,0,0,0,104,43.15a5.61,5.61,0,0,0-.23.8c.54-.93,1.93-3.21,2.86-3.53,1.86-.62,5.38-.41,10,.14a2.64,2.64,0,0,1,2.45,2.08c.35,2.16,1,5.15,1.79,4.61.27-.18.42-.82.49-1.72-.12-.57-.29-1.19-.42-1.89,0,0,0-.07,0-.1s0-.28-.06-.44a1,1,0,0,1,0-.18c0-.13,0-.25,0-.39a2.81,2.81,0,0,0,0-.29c0-.11,0-.22,0-.33S120.81,41.47,120.82,41.24Zm-1,2.4-.15,0S119.8,43.6,119.8,43.64Z"/><rect class="cls-17" x="13.91" y="39.64" width="49.13" height="6.66"/><polygon class="cls-17" points="20.09 54.93 21.27 58.77 21.27 27.17 20.09 31.01 20.09 54.93"/><polygon class="cls-18" points="26.79 54.93 25.62 58.77 25.62 27.17 26.79 31.01 26.79 54.93"/><rect class="cls-17" x="21.27" y="51.02" width="4.35" height="7.75"/><rect class="cls-19" x="21.27" y="27.17" width="4.35" height="7.75"/><rect class="cls-20" x="21.27" y="34.92" width="4.35" height="16.11"/><polygon class="cls-20" points="16.45 50.82 17.09 53.34 17.09 32.59 16.45 35.12 16.45 50.82"/><polygon class="cls-18" points="20.09 50.82 19.46 53.34 19.46 32.59 20.09 35.12 20.09 50.82"/><rect class="cls-17" x="17.09" y="48.26" width="2.37" height="5.09"/><rect class="cls-19" x="17.09" y="32.59" width="2.37" height="5.09"/><rect class="cls-20" x="17.09" y="37.68" width="2.37" height="10.58"/><polygon class="cls-17" points="56.86 54.93 55.69 58.77 55.69 27.17 56.86 31.01 56.86 54.93"/><polygon class="cls-18" points="50.16 54.93 51.34 58.77 51.34 27.17 50.16 31.01 50.16 54.93"/><rect class="cls-17" x="51.34" y="51.02" width="4.35" height="7.75"/><rect class="cls-19" x="51.34" y="27.17" width="4.35" height="7.75"/><rect class="cls-20" x="51.34" y="34.92" width="4.35" height="16.11"/><polygon class="cls-20" points="60.5 50.82 59.87 53.34 59.87 32.59 60.5 35.12 60.5 50.82"/><polygon class="cls-18" points="56.86 50.82 57.5 53.34 57.5 32.59 56.86 35.12 56.86 50.82"/><rect class="cls-17" x="57.5" y="48.26" width="2.37" height="5.09"/><rect class="cls-19" x="57.5" y="32.59" width="2.37" height="5.09"/><rect class="cls-20" x="57.5" y="37.68" width="2.37" height="10.58"/><path class="cls-3" d="M47.1,91.7c4.14-7,3-12.08,1.43-18.39C45.38,61,44.19,59,44.53,55.66c0,0,2-6.81,2.65-9.69a5,5,0,0,0-.2-2.82l-1.23-3.32c-.19-.58-1.11-2.19-1.72-2.25-3.31-.34-10.46-.29-12.13.59-2,1-1.57,2.49-1.73,3.07C30.34,45,28.51,46.33,30,49c1.21,2.19,3.12,3.22,4,6.72.72,8.94.37,12,.47,21.35.09,8.6,1.55,11.24,3.81,14.34,1.46,2,1.93,3.45,5.93,2.9A5.11,5.11,0,0,0,47.1,91.7ZM31.19,43.2l.15,0S31.2,43.25,31.19,43.2Z"/><path class="cls-4" d="M46.65,42.26l-.6-1.63a.59.59,0,0,0-.38.93c2,3.88.74,4.24-1.74,11.07s-.66,8.65,1.65,19.44c3.11,14.47,1.25,19.85,1.25,19.85,1-.71,2.18-4.13,3.24-7.81,0-1.06-.11-2.13-.21-3.18a68.14,68.14,0,0,0-1.33-7.62C45.84,61.81,44.31,60,44.46,56.5A7,7,0,0,1,44.73,55c.53-1.8,1.94-6.68,2.45-9a5,5,0,0,0-.09-2.48c0-.11-.07-.23-.11-.34Z"/><path class="cls-21" d="M30.18,41.91c0,.11,0,.22,0,.33s0,.2,0,.29,0,.26,0,.39,0,.13,0,.18,0,.3-.07.44,0,.07,0,.1c-.13.7-.3,1.32-.43,1.89.08.9.23,1.54.49,1.72.81.54,1.45-2.45,1.8-4.61a2.64,2.64,0,0,1,2.45-2.08c4.65-.55,8.16-.76,10-.14.94.32,2.33,2.6,2.86,3.53a4.52,4.52,0,0,0-.22-.8A43.47,43.47,0,0,0,45.53,39,4.15,4.15,0,0,0,44,37.58c-1-.11-2.44-.18-3.94-.19H38.72a37.81,37.81,0,0,0-5.32.36l-.1,0a5.22,5.22,0,0,0-1.4.4,3,3,0,0,0-1.38,1.28,2.43,2.43,0,0,0-.22.64c0,.07,0,.15,0,.22l0,.34c0,.06,0,.12,0,.18a2.18,2.18,0,0,1,0,.41C30.18,41.47,30.19,41.69,30.18,41.91Zm1,1.73s.15,0,.15,0Z"/><path class="cls-22" d="M112.51,119.88s31.3-6.1,32.52-43.09L129.59,75S136.61,102.48,112.51,119.88Z"/><polygon class="cls-22" points="137 59.81 123 77.88 151.03 77.86 137 59.81"/><path class="cls-22" d="M38.52,119.88S7.22,113.78,6,76.79L21.44,75S14.42,102.48,38.52,119.88Z"/><polygon class="cls-22" points="14.03 59.81 28.03 77.88 0 77.86 14.03 59.81"/></g></g></g></svg>