<svg xmlns="http://www.w3.org/2000/svg" viewBox="0 0 241.97 178.32"><defs><style>.cls-1{fill:#fcbe76;}.cls-2{fill:#d9d9da;}.cls-3{fill:#4c4c4e;}.cls-4{fill:#1e1e1e;}.cls-5{fill:#d6ab8c;}.cls-6{fill:#ddbaa1;}.cls-7{fill:#d9d8ec;}.cls-8{fill:#c6c5e3;}.cls-9{fill:#3c3c40;}.cls-10{fill:#c69575;}.cls-11{fill:#e2c4af;}.cls-12{fill:#2d241f;}.cls-13{fill:#b37b55;}.cls-14{fill:#151515;}.cls-15{fill:#28b0b8;}.cls-16{fill:#3a3c3b;}.cls-17{fill:#ead5c6;}.cls-18{fill:#2f2f2f;}.cls-19{fill:#767676;}</style></defs><title>forehead2</title><g id="Calque_2" data-name="Calque 2"><g id="Layer_2" data-name="Layer 2"><path class="cls-1" d="M136.81,51.89s8.22-42.16,58-43.81l2.48,20.79S160.25,19.43,136.81,51.89Z"/><polygon class="cls-1" points="217.72 18.9 193.38 37.76 193.41 0 217.72 18.9"/><polygon class="cls-2" points="198.11 173.41 189.41 173.41 189.41 127.76 49.06 127.76 49.06 173.41 40.36 173.41 40.36 119.07 198.11 119.07 198.11 173.41"/><rect class="cls-3" x="189.41" y="167.41" width="8.69" height="6"/><rect class="cls-3" x="40.36" y="167.41" width="8.69" height="6"/><rect class="cls-4" x="29.12" y="108.98" width="180.23" height="12.39" rx="2.7"/><path class="cls-3" d="M203.6,113.26H32.26a3.15,3.15,0,0,0-3.14,3.15v1.84a3.12,3.12,0,0,0,3.12,3.12H205.07v-6.64A1.47,1.47,0,0,0,203.6,113.26Z"/><path class="cls-5" d="M21,104.73s1-5.16,7.86-5.54,8.34,26.62,6.25,45.8-1.23,23.64-1.23,23.64l-13.32-.38s2.49-2.21,1.31-26.64C20.33,109.18,19.07,105.11,21,104.73Z"/><path class="cls-5" d="M18.36,100.17a78.36,78.36,0,0,0,2.14,11.92l9.43-4.26s9-13.2,3.43-20.87C29.79,82.06,17.5,89.52,18.36,100.17Z"/><path class="cls-6" d="M33.19,170.26s1-4,.28-32.86c-.57-24.57-8.85-29.72-9.71-30.29s-3.17,7.13-3.17,7.13l-.18,1.48c.35,5.49.9,13.68,1.49,25.89.69,14.2.13,20.89-.45,24Z"/><path class="cls-5" d="M32.4,100s7.19,12.58,6.86,22.93c-.16,5.06-4.72,21.86-5.61,31.74C33,161.84,32.4,100,32.4,100Z"/><path class="cls-7" d="M9.91,177.9C6.2,177.38,3,176.41.7,174.45c-1-.81-.38-4,.65-4.74,1.84-.62,5.55-.93,8.5-1.92,3.11-1,6.8-2.55,9.4-5,1.14-1.08,1.64-1.43,2.4-1A11.84,11.84,0,0,1,24.5,165c.73,1.07,5.66,1.74,7.76.69,1.3-.65,1.26-3,1.26-3,.26.11,2,.08,2.08,1.2.38,3.66,1,9.18,1,9.18s.62,5-6.82,3.89-7.07.82-11.54,1.19A40.55,40.55,0,0,1,9.91,177.9Z"/><path class="cls-8" d="M36.59,173.15s-.1-.9-.24-2.21c-.88.76-3.64,2.61-9.15,1.65a17.16,17.16,0,0,0-3.49.87c-1.19.54-8.81,3.7-20.89,0l-.63,2a20.33,20.33,0,0,0,7.72,2.41,40.55,40.55,0,0,0,8.32.33c4.47-.37,4.11-2.33,11.54-1.19S36.59,173.15,36.59,173.15Z"/><path class="cls-9" d="M36.88,174.44s-.35-1.84-.45-2.71c-1.75,2.6-7.17,2.17-9.56,2s-3.92,1.09-7.62,2-10.77.54-15-1.31C2,172.7.46,170.31.3,170.68c-.54,1.21-.31,3.17.4,3.77,2.33,2,5.5,2.93,9.21,3.45a40.55,40.55,0,0,0,8.32.33c4.47-.37,4.07-2,11.54-1.19C36.66,177.81,36.88,174.44,36.88,174.44Z"/><path class="cls-5" d="M66.85,79.9,31.29,85C18.13,86.83,18.43,98,18.43,98a11,11,0,0,0,10.66,8c8.67.06,14.25-.3,29.76,2.26,5.93,1,11.88-.73,17.22-.72Z"/><path class="cls-6" d="M59.29,93.09l1.62-12.35L31.29,85c-5.28.75-8.39,3-10.22,5.43-.49,6.1,2.6,7.94,4.15,6.69,1.94-1.58,8.3-2.48,8.3-2.48Z"/><path class="cls-10" d="M181.85,83.17a7.44,7.44,0,0,1-4.2,2.81L168,84.78l21.75,20.66-.58-18.35Z"/><path class="cls-10" d="M181.85,83.17a14.05,14.05,0,0,1-4.29.82l-3.19,2.32L180,88.12S182.05,87.09,181.85,83.17Z"/><path class="cls-5" d="M189.89,103.94s-10.64.28-17.13,2.81c0,0-5.06-3.55-3.53-14.89l-2.6-7.22L187.9,95S193.14,98.65,189.89,103.94Z"/><path class="cls-11" d="M188.72,101.56c9.11,5.51,15.75,5.92,20.21,2.7,4.64-3.35,7.47-19.37-2.59-23.47-8.78-3.57-20-3.6-22.67-3.55a1.54,1.54,0,0,0-1.13.59c-.53,1-.6,2.81-.84,5.74l1.3,5.18a3.08,3.08,0,0,0,1.39,2.4c2.65,1.77,3.54,4.29,4,7.49Z"/><path class="cls-5" d="M199.12,94.62S189.29,90,186.39,88c-2.51-1.8-2.58-5.61-2.72-10.71-.38,0-1.1.15-1.19.51a38.52,38.52,0,0,0-1.22,6.49l1.05,5.11c.05,1,1.74,2.68,2.55,3.22,2.65,1.77,3.07,2.87,3.48,6.07l.38,2.92a35,35,0,0,0,9.35,4.15Z"/><path class="cls-10" d="M190.76,99a37.35,37.35,0,0,0-17.49,1.45l.16,6c6.53-2.3,16.46-2.56,16.46-2.56.63-1,6.16-1.18,6.25-2.08C196.22,101.14,190.92,99.65,190.76,99Z"/><path class="cls-10" d="M196,101.78c-3.2,2.82-7.86-3-7.28-5.17.36-1.37,4.4-2,4.4-2S199.46,98.72,196,101.78Z"/><path class="cls-12" d="M207.39,81.24a13,13,0,0,1,7,2.45l.06,12s.22,13.26-11.93,13.83c-5.57.26-11.68-3.18-14.75-5.54l.36-2.76c3.9.52,5.23,1.2,6.85-.81L199,92.65l3.67-3.18a26.53,26.53,0,0,1,6.58.88C210.23,84.29,207.39,81.24,207.39,81.24Z"/><path class="cls-5" d="M197.11,100.9c-3.2,2.82-7.87-2.94-7.28-5.17.36-1.37,4.4-2,4.4-2S200.57,97.85,197.11,100.9Z"/><path class="cls-12" d="M207.76,81.3s.89-1.21,3.74-1.09a4.41,4.41,0,0,1,4,3.28s-2.42,1-2.81,6Z"/><polygon class="cls-12" points="193.98 92.64 200.97 94.05 200.81 90.86 194.33 90 193.98 92.64"/><path class="cls-5" d="M150.63,75.25s-11.23-2.17-13.29-2a29.6,29.6,0,0,0-6.43,1.15,10.63,10.63,0,0,0-4.71-.15,26,26,0,0,0-3.86,1.15,13.2,13.2,0,0,0-7.13-.39,21.79,21.79,0,0,0-5-.33c-4.49.56-13.74,3.65-24.43,6.86,0,0,10.81,25.72,15.74,24.32s25.7-3.08,39.06,3c4.64,2.09,17.49,3.42,26.48,3.42a9.88,9.88,0,0,0,6.58-2.41,11.39,11.39,0,0,0,2.79-13.37A21.81,21.81,0,0,0,170.88,89l-3.14-2Z"/><path class="cls-6" d="M156.36,90.64c-3.05-2-7.27-4.51-8.78-6-2.27-2.22-4.12-4.11-4.29-7.28a14.74,14.74,0,0,1,.33-3.38c-.62-.11-2.26-.28-2.85-.37-1,3.93-1.55,6.53-7.12,11.25-1.34,1.13,10,14.19,22,19.49C159.81,106.16,156.36,90.64,156.36,90.64Z"/><path class="cls-5" d="M167.05,112.23a9.73,9.73,0,0,0,1.1-.06,189.82,189.82,0,0,0-1.4-21.77,26.06,26.06,0,0,1-14.68-5.7c-.17.71-.33,1.36-.48,1.92-1.3,5-3.78,19.69-4.57,23.92A124,124,0,0,0,167.05,112.23Z"/><path class="cls-10" d="M168.94,108l-10.6-20.48-4.88,8.73a20.89,20.89,0,0,0,2.9,13.46s-3.87,1.66-16.73-3.89-23.3-4.8-23.3-4.8a23.55,23.55,0,0,1-10.09,2.63V105c8.29-1,23.67-1,34.33,3.77,4.64,2.09,17.49,3.42,26.48,3.42a10.41,10.41,0,0,0,2.44-.28Z"/><path class="cls-10" d="M114.84,89.11c-8-9.71-6-14-6-14-3.56.45-10.12-.28-18,2.14C97.48,80.1,117.64,92.52,114.84,89.11Z"/><path class="cls-6" d="M92.13,80s10.07-.64,14.57,1.29c3.23,1.38,11.57,9.21,9.21,12-1.71-1.72-7.07-7.93-22.5-9.22C78.25,82.85,92.13,80,92.13,80Z"/><path class="cls-11" d="M165.7,81.63c-5.64-4.16-11.86-8.45-16-9.17,0,0-2.13-.72-6.64,1.94L143,79.72a10.86,10.86,0,0,0,6,7.74s5,2.18,14.92,7.69c8.9,4.95,8.42-2.32,11.33,1.07C174.53,94.18,167.42,82.9,165.7,81.63Z"/><path class="cls-5" d="M142.63,74.4l.34,5.32a10.86,10.86,0,0,0,6,7.74l9,4.64.33-.34,14.81,1.67c-1.65-1.38-16.75-5.4-22.93-15a5.74,5.74,0,0,1-.45-6S147.14,71.74,142.63,74.4Z"/><path class="cls-6" d="M139.63,73.54l-.08-.06a9.85,9.85,0,0,0-2.21-.23c-1.31.09-1.81.11-2.13.13a3,3,0,0,0-2.46,1.83,20.76,20.76,0,0,1-3.34,6.12c-1.32,1.65,4.07,2.78,6.22-.22A16.77,16.77,0,0,0,139.63,73.54Z"/><path class="cls-6" d="M121.91,80.68c-.12,1.4,0,2.8,1.29,3.22.64.21,2.57-.5,3.43-1.29,3.13-2.89,4.28-8.21,4.28-8.21a10.63,10.63,0,0,0-4.71-.15l-.76.18a3,3,0,0,0-2.24,2.17A40.47,40.47,0,0,0,121.91,80.68Z"/><path class="cls-6" d="M116.4,82.94a3,3,0,0,0,4.22-2.12,24.39,24.39,0,0,1,1.72-5.42,13,13,0,0,0-7.12-.39c-1,4-.69,6,.48,7.39A2.42,2.42,0,0,0,116.4,82.94Z"/><path class="cls-13" d="M115,76.38a12,12,0,0,1,1.1-1.53c-.28,0-.56.09-.85.16l-.9-.11A3.34,3.34,0,0,1,115,76.38Z"/><path class="cls-14" d="M109.38,105.48S96.2,112,88.29,112a58.79,58.79,0,0,1-15-2.24l-23.34-.62s-5.38-5.51-4.09-29.28c0,0,22.46-3.58,32.78-4.5A165.48,165.48,0,0,1,100.73,75a40.57,40.57,0,0,0,5.2-.22C105.93,81.73,111.84,93.59,109.38,105.48Z"/><path class="cls-15" d="M46.13,96.22c14.57-1.62,45.81-3.64,59.71-3.94-.41-3-.59-4.36-.59-4.36s-19.48-9.53-59.53-5.29A90,90,0,0,0,46.13,96.22Z"/><path class="cls-16" d="M101.72,75c.21,7.3,6.34,19.77,4.12,31.86l3.54-1.36c2.43-11.72-3.29-23.42-3.44-30.45a.3.3,0,0,0-.32-.29A35.43,35.43,0,0,1,101.72,75Z"/><path class="cls-11" d="M214.76,67.48l-3.11-13.22c-1-.57-1.11-.67-1.53-.7-3.65.86-6.4,1.14-7.43,1.63-2.62.62-8.09,3.3-10.27,6.83l7.66,9.51,7-.17a55.93,55.93,0,0,1,6.56-2.8Z"/><path class="cls-5" d="M213.66,68.56l1.47-1.44a2,2,0,0,0,.55-1.68,86.63,86.63,0,0,0-2.3-9.75,2.68,2.68,0,0,0-1.14-1.43,7.85,7.85,0,0,0-2.12-.7Z"/><path class="cls-11" d="M166.8,46c-4.88,1.57-6.44,10.25-2.06,13.71.86.68,1.77,1.17,2.45,1.67,3.29,2.39,6.09,3.19,16.08,5.3,6.84,1.44,11.26,1.92,11.26,1.92s6.84-1.77,4.57-7.69c0,0-15.15-10.9-20-12C175,47.85,166.84,45.94,166.8,46Z"/><path class="cls-11" d="M174,86.34c1.22-3.38,2.94-16.08,2.44-18.59-3.14-15.68-14.17-15.89-14.17-15.89s-5.7,19.43-5.52,30.91a135.94,135.94,0,0,0,1.34,16.43c8.47,6.17,16.49-8.39,16.49-8.39S172.81,89.72,174,86.34Z"/><path class="cls-5" d="M170.36,54.52s.43,7.71,5.38,10.42c1.77,1,4.39,1,7.53,1.69,6.84,1.44,11.26,1.92,11.26,1.92s3.32-.86,4.56-3.38Z"/><path class="cls-11" d="M167.37,111.67a10.71,10.71,0,0,0,8.66-5.36c3.61-6,1.07-20.11-1.17-26.67,0,0-10.32,2.57-10.25-1.7a42,42,0,0,1-4.17,7.68c-1,1.36-2.58,4.54-3.95,10.18C155.37,100.39,156.82,110.91,167.37,111.67Z"/><path class="cls-5" d="M175.36,80.22a92.47,92.47,0,0,0,1.15-9.6c-1.8,6-8.27,9.92-13,10.36-5.15-2.67-4.94-9.17-4.94-13.47a80,80,0,0,0-1.75,15.26c.06,3.56,2.61,6,2.87,8.82C164.58,84.52,173.25,83.92,175.36,80.22Z"/><path class="cls-17" d="M199.1,60.86s-15.15-10.9-20-12c-4.12-1-12.24-2.87-12.28-2.86-2.37.76-4,3.2-4.5,5.91,0,0-.43,1.47-1.05,3.85l0,.07c0,.17-.09.33-.13.51l0,.1c0,.15-.08.29-.11.44l-.06.23c0,.14-.07.27-.1.41a2,2,0,0,0-.07.26l-.12.48c0,.08,0,.17-.07.26l-.09.39-.06.25-.15.59-.06.28c0,.14-.07.28-.1.42a2.86,2.86,0,0,0-.07.28l-.15.63c0,.1,0,.2-.07.3l-.09.42c0,.1,0,.21-.08.32s-.09.43-.14.65,0,.19-.07.29-.07.31-.1.47-.05.22-.07.32l-.12.56c0,.12-.05.24-.08.37s-.08.36-.11.54-.05.23-.07.34-.07.34-.11.52,0,.18-.05.27l-.15.73-.06.31c0,.18-.07.35-.1.53a2.93,2.93,0,0,0,0,.29c-.05.25-.1.5-.14.75a2.93,2.93,0,0,0,0,.29c0,.19-.07.37-.1.55s0,.2-.05.29c-.05.26-.09.52-.13.78a1.57,1.57,0,0,0,0,.23c0,.2-.07.4-.1.6s0,.19,0,.29l-.12.78,0,.16-.09.66c0,.09,0,.18,0,.27l-.09.69s0,.09,0,.13l-.09.79,0,.25c0,.21-.05.43-.07.64a1,1,0,0,0,0,.17c0,.26-.05.52-.08.78,0,.07,0,.14,0,.21s0,.42-.05.62,0,.13,0,.2c0,.25,0,.5,0,.75,0,.06,0,.12,0,.17l0,.62a1.21,1.21,0,0,0,0,.19l0,.74v.1c0,.22,0,.43,0,.64v.89c.06,3.6.3,7.07.57,9.89-.29,1-.58,2-.86,3.14-.85,3.46-.23,10.27,4.62,13.75-3.28-3.68-3.64-9.21-2.91-12.2.28-1.16,1.16-4.81,1.45-5.76-.75-7.29-.8-14.29-.19-18.12,1-6.55,2.68-13.17,3.69-16.93.45-1.7.75-2.72.75-2.72.5-2.71,2-5.21,4.34-6,0,0,8.16,1.9,12.28,2.86S195.86,59.45,199.43,62A6.85,6.85,0,0,0,199.1,60.86Z"/><circle class="cls-18" cx="215.46" cy="65.02" r="26.51" transform="translate(17.13 171.4) rotate(-45)"/><circle class="cls-19" cx="215.46" cy="65.02" r="16.84" transform="translate(17.13 171.4) rotate(-45)"/><path class="cls-18" d="M211.27,65a4.19,4.19,0,1,0,4.19-4.2A4.19,4.19,0,0,0,211.27,65Z"/></g></g></svg>