<svg xmlns="http://www.w3.org/2000/svg" viewBox="0 0 101.88 252.13"><defs><style>.cls-1{isolation:isolate;}.cls-2{fill:#ddbaa1;}.cls-3{fill:#e5cab7;}.cls-4{fill:#d6ab8c;}.cls-5{fill:#c69575;}.cls-6{fill:#e2c4af;}.cls-7{fill:#d9d8ec;}.cls-8{fill:#c6c5e3;}.cls-9{fill:#3a3c3b;}.cls-10{fill:#b37b55;}.cls-11{fill:#2d241f;}.cls-12{fill:#9c6a51;}.cls-13{mix-blend-mode:multiply;}.cls-14{fill:#e8c9af;}.cls-15{fill:#151515;}.cls-16{fill:#28b0b8;}.cls-17{fill:#d8af92;}.cls-18{fill:#c08a67;}.cls-19{fill:#2f2f2f;}.cls-20{fill:#535353;}</style></defs><title>lateral_raise1</title><g class="cls-1"><g id="Calque_2" data-name="Calque 2"><g id="Layer_2" data-name="Layer 2"><path class="cls-2" d="M86.21,79.77s4.21,6.75,5.3,19.32c1.27,14.58,1.57,22.28,2.3,30.46l-8.39.81A81.76,81.76,0,0,0,80,111.93c-1.61-3.78-6.76-13.63-4.79-26.16C75.82,81.66,86.21,79.77,86.21,79.77Z"/><path class="cls-3" d="M86.21,79.77s4.21,6.75,5.3,19.32c1.27,14.58,1.57,22.28,2.3,30.46l-2.12.2c-.93-8.68-.51-16.61-.51-26.68S85.8,83.63,83.94,81.56A9.39,9.39,0,0,0,86.21,79.77Z"/><path class="cls-4" d="M75.18,85.77A3.25,3.25,0,0,1,76,84.13l2.75,6.8a18.12,18.12,0,0,0,0,11.31c2,5.62,5.57,9.88,9,27.89l-2.34.23A81.76,81.76,0,0,0,80,111.93C78.36,108.15,73.21,98.3,75.18,85.77Z"/><path class="cls-5" d="M75.94,88.39c-.9-1.24-3.45-5-3-22.34,1.94-16.16,6.69-7.72,6.69-7.72l3,27.69s-3.19.37-3.95,4.91C78.17,90.93,76.74,89.49,75.94,88.39Z"/><path class="cls-2" d="M74.09,42.59a20.48,20.48,0,0,1,9.25,4.26c4.13,3.56,5,13.54,1.75,21.25A21,21,0,0,1,72.67,55C69.58,44.93,74.09,42.59,74.09,42.59Z"/><path class="cls-4" d="M76.1,74.41c.93-8.8,6.54-9.94,6.54-9.94l1.76.65S87.87,68.21,87.11,78c-.49,6.24-3.38,6.69-8.35,13C77.8,90.09,75.24,82.61,76.1,74.41Z"/><path class="cls-6" d="M85.47,63.38a21.16,21.16,0,0,1,2.59,10.24c.22,7.63-3.41,10.92-4.23,11.87,1.11-2.63,1.19-2.63,1.37-7.25.1-2.48-1.15-7.88-3.54-9.91C80.86,67.64,84.41,64.42,85.47,63.38Z"/><path class="cls-5" d="M82.64,70c-2.19-1-9.23-7.79-8.69-12.35,6.68,10.79,13.34,3.69,12.74-3.3C88.13,60.81,86.45,67.54,82.64,70Z"/><path class="cls-2" d="M15.67,79.77s-4.21,6.75-5.3,19.32c-1.26,14.58-1.57,22.28-2.3,30.46l8.39.81a81.76,81.76,0,0,1,5.45-18.43c1.61-3.78,6.76-13.63,4.79-26.16C26.06,81.66,15.67,79.77,15.67,79.77Z"/><path class="cls-3" d="M15.67,79.77s-4.21,6.75-5.3,19.32c-1.26,14.58-1.57,22.28-2.3,30.46l2.12.2c.93-8.68.52-16.61.52-26.68S16.09,83.63,18,81.56A9.29,9.29,0,0,1,15.67,79.77Z"/><path class="cls-4" d="M26.7,85.77a3.32,3.32,0,0,0-.82-1.64l-2.76,6.8a18.08,18.08,0,0,1,0,11.31c-2,5.62-5.57,9.88-9,27.89l2.34.23a81.76,81.76,0,0,1,5.45-18.43C23.52,108.15,28.67,98.3,26.7,85.77Z"/><path class="cls-5" d="M25.94,88.39c.9-1.24,3.45-5,3-22.34-1.95-16.16-6.69-7.72-6.69-7.72L19.17,86s3.19.37,3.95,4.91C23.71,90.93,25.15,89.49,25.94,88.39Z"/><path class="cls-2" d="M27.8,42.59a20.49,20.49,0,0,0-9.26,4.26c-4.13,3.56-5,13.54-1.75,21.25A21,21,0,0,0,29.21,55C32.31,44.93,27.8,42.59,27.8,42.59Z"/><path class="cls-4" d="M25.78,74.41c-.92-8.8-6.54-9.94-6.54-9.94l-1.75.65S14,68.21,14.78,78c.48,6.24,3.37,6.69,8.34,13C24.09,90.09,26.64,82.61,25.78,74.41Z"/><path class="cls-6" d="M16.42,63.38a21,21,0,0,0-2.6,10.24c-.22,7.63,3.41,10.92,4.23,11.87-1.1-2.63-1.18-2.63-1.37-7.25-.09-2.48,1.16-7.88,3.54-9.91C21,67.64,17.48,64.42,16.42,63.38Z"/><path class="cls-5" d="M19.24,70c2.19-1,9.24-7.79,8.7-12.35-6.68,10.79-13.34,3.69-12.75-3.3C13.75,60.81,15.43,67.54,19.24,70Z"/><path class="cls-4" d="M50.11,97.1a58.21,58.21,0,0,1-18.26-3.37s0,0,0,.06a201,201,0,0,1-3.14,22.39c-.68,6.1-7,11.43-3.37,49.11l4.77,12a7,7,0,0,0,3.07,2.86l.66.62,0-.4c3,.57,7-6.19,8.08-11.39.58-2.81,5.94-29.9,7.08-38a4,4,0,0,1,1.08-.13Z"/><path class="cls-4" d="M38.37,174.26s.59,7.19.85,13.48a35,35,0,0,1-3,15.89,21.24,21.24,0,0,1-1.69,3.17S24,186.67,38.37,174.26Z"/><path class="cls-4" d="M26.65,168.74s-4,17.65-3.44,26.47,1.1,26.2.82,32,8,5.52,8,5.52,2.48-23.44,3.86-29.51,2.48-29,2.48-29Z"/><path class="cls-2" d="M27.15,204.17c0,10,.77,23.61,0,28.86a39.61,39.61,0,0,0,4.88-.31s2.1-19.79,3.51-27.71q.3-.58.66-1.38a35,35,0,0,0,3-15.89c-.18-4.29-.51-9-.7-11.56C36.7,178.49,27.15,186.79,27.15,204.17Z"/><path class="cls-7" d="M23.46,228s-1.17-1.23-1.53,1.43.19,4.66-2.15,8.46-4.47,5.61-4.68,7.42a10.8,10.8,0,0,0,0,3.8s1.08,2.13,5.94,2.26c4.34.11,7-.36,8.27-1.79.82-.95,1.33-2.75,1.35-6a14.72,14.72,0,0,1,1.61-7.22c.84-1.33-.48-6.31-.48-6.31a1.88,1.88,0,0,0-1.76-2C25.18,229,23.46,228,23.46,228Z"/><path class="cls-8" d="M31.63,229.2s.78-.28.92-.85a2.63,2.63,0,0,0,.06-1s.79-.47,1,1.43a20.5,20.5,0,0,1,.15,3.52,21.22,21.22,0,0,1-1.07,3.23,28.8,28.8,0,0,0-1.12,5.7c-.18,2.66.39,10.12-9.85,9.55,6.11-1.72,6.33-5.14,6.33-5.14l.15-4.16a27.34,27.34,0,0,1,2.62-10.69Z"/><path class="cls-9" d="M29.65,249.69a14.29,14.29,0,0,0,1.22-3.4c-1.86,2.81-3,3-4.67,3.19a31.53,31.53,0,0,1-4.29-.38c-1.76-.13-3.51.47-5,.09a2.94,2.94,0,0,1-2-1.48c0,1,.1,1.77.1,1.77S16.1,252,21,252.12C23.38,252.19,28.12,252.05,29.65,249.69Z"/><path class="cls-9" d="M32.74,235.57a21.22,21.22,0,0,0,1.07-3.23,19.76,19.76,0,0,0,0-2.3,14.25,14.25,0,0,0-2.66,6.51c-.29,2.58.3,4.9.25,7.34.14-1,.2-1.92.25-2.62A28.8,28.8,0,0,1,32.74,235.57Z"/><path class="cls-4" d="M37.25,160.74s-9.38-1-11.4,3.48c-1.38,3-2.18,14.82,1.6,19.13,1.86,2.13,10.1-5.51,10.1-10.75S37.25,160.74,37.25,160.74Z"/><path class="cls-10" d="M43.94,158.88l-2-10.69-17.52,4.44c.17,3.76.47,8,.93,12.66l.1.25C25.28,166.1,43.56,160.8,43.94,158.88Z"/><polygon class="cls-4" points="43.38 32.75 29.79 41.94 50.92 41.94 50.92 32.75 43.38 32.75"/><path class="cls-10" d="M41.84,36.64V34l-9.71,6.39A30.67,30.67,0,0,1,41.84,36.64Z"/><polygon class="cls-4" points="41.84 25.57 41.84 39.93 50.92 39.93 50.92 26.33 41.84 25.57"/><path class="cls-11" d="M39.36,18.29V9.67S39.91.77,50.92,0V5.65L42.08,20.88Z"/><path class="cls-2" d="M40.41,18.39s-.29-1.73-1.63-1.73-.86,2.49-.57,4.31,2,4.31,3.44,2.78S40.41,18.39,40.41,18.39Z"/><path class="cls-12" d="M50.92,33.37H49.05a2.17,2.17,0,0,1-1.52-.62L41.84,27.2h9.08Z"/><path class="cls-4" d="M41.94,7.56l-.29,4.31L40.41,15v5.65l1.43,6.52,5.49,3.61a2.22,2.22,0,0,0,1.2.36h2.39V4.6C44.79,4.6,41.94,7.56,41.94,7.56Z"/><path class="cls-4" d="M23.12,44.84S21.66,48,25,60.05c.59,2.15,4.34,2.76,5.58,6.42,2.21,6.54,2.06,16.74,1.87,19.38-.27,3.56-2.29,18.76-2.29,18.76,0,3.9,20.77,31.85,20.77,31.85l0-50.61V39.46S23.12,40.94,23.12,44.84Z"/><path class="cls-5" d="M30.35,103.07l12.86,2.06s-3.54-10.31-5-14.76a6.33,6.33,0,0,1,1-6.2c-3.94-4.86-1.38-8.29-1.38-8.29a14.42,14.42,0,0,1-2.55-8.95L29.12,73.7c1.55,3.27,3.51,9.54,3.32,12.15C32.22,88.72,30.87,99.11,30.35,103.07Z"/><g class="cls-13"><path class="cls-14" d="M47.39,30.81l-3.72-2.45,7.25,15.31V31.17H48.59A2.25,2.25,0,0,1,47.39,30.81Z"/></g><path class="cls-4" d="M44.51,65.18a39.93,39.93,0,0,1,6.41-1.38V58.51Z"/><path class="cls-5" d="M50.92,126.26V90.9l-1,.86a2.66,2.66,0,0,1-1.67.59H44.58c-4.08,0-5.31-.4-6.36-2A322.22,322.22,0,0,0,50.92,126.26Z"/><path class="cls-10" d="M49.09,44l-1.42-.85a6.74,6.74,0,0,0-3.39-.92H33.78a33.7,33.7,0,0,0-6.69,10.31l-.35-3.62c-3.08,4-2.55,10-1.81,11.42a41.51,41.51,0,0,0,3.36,6.54c.54,1.93.42,1.74.62,5.17.42,3.72,2.86,9.82,3.38,12,.09.12.56-16,3-17.07,0,0,6.51,0,10.14-1.59a10.21,10.21,0,0,0,3.73-2.77l1.72-2.07V47.23A3.71,3.71,0,0,0,49.09,44Z"/><path class="cls-10" d="M50.92,123.09c-9.09-12.47-16.26-22.92-19.16-30-.66,5.38-1.47,11.49-1.47,11.49,0,2.89,11.45,19,17.34,27.18l3.29-.73Z"/><path class="cls-10" d="M49.47,92a2.67,2.67,0,0,1,1.45.64V90.9l-1,.86A2.57,2.57,0,0,1,49.47,92Z"/><path class="cls-10" d="M42.63,92.17s-2.55.58-1.65,7.14l-2.76-8.94S39.46,92.13,42.63,92.17Z"/><path class="cls-5" d="M48.73,70.48c-2.35.63-5.36,1.56-7.72,2.25a6.34,6.34,0,0,1-3.83-.1,16.33,16.33,0,0,1-1.94-1.14l2.64,4.39a1.56,1.56,0,0,0,1.74.06,21.92,21.92,0,0,1,8.13-2.7,3,3,0,0,1,3.17,1.81V68.48A3.62,3.62,0,0,1,48.73,70.48Z"/><path class="cls-5" d="M49,80.57c-2.11.55-4.81,1.35-6.93,2a5.81,5.81,0,0,1-3.43-.08c-.6-.21-.87-.9-1.59-1.28l1.63,3.3a2.39,2.39,0,0,0,2.93.85,33.87,33.87,0,0,1,6.7-1.92c.87-.17,1.38-.35,2.07.06.26.16.58,1.15.58,1.15V78.83A3.19,3.19,0,0,1,49,80.57Z"/><path class="cls-2" d="M48.27,44l-1.43-.85a6.69,6.69,0,0,0-3.39-.92H33S25.09,46,25.25,56.31A5.14,5.14,0,0,0,27,59.82c1.55,1.52,3.06,3.09,5.24,3.09h11a6.74,6.74,0,0,0,5.13-2.37l.15-.19a6.63,6.63,0,0,0,1.53-4.24v-9A3.68,3.68,0,0,0,48.27,44Z"/><path class="cls-15" d="M30.51,99.72l-.7,1.62-2.76,6.88c-2.66,6.2-3.42,12.41-3.87,19.15l-2.39,30s9.1,7.66,27.09,2.9l3-24V104.48S35.27,103.86,30.51,99.72Z"/><path class="cls-16" d="M31.12,161.44c-.41-8.91-1.07-20.75-2-28.42-.9-7.38-3.12-12-5-14.64-.49,2.92-.76,5.9-1,9l-2.39,30S24.25,160.33,31.12,161.44Z"/><path class="cls-4" d="M51.68,97.1a58.06,58.06,0,0,0,18.26-3.37.14.14,0,0,1,0,.06,201,201,0,0,0,3.14,22.39c.68,6.1,7,11.43,3.37,49.11l-4.77,12a7.08,7.08,0,0,1-3.06,2.86l-.67.62,0-.4c-3,.57-7-6.19-8.08-11.39-.58-2.81-5.94-29.9-7.08-38a4,4,0,0,0-1.08-.13Z"/><path class="cls-4" d="M63.42,174.26s-.59,7.19-.85,13.48a35,35,0,0,0,3,15.89,22.49,22.49,0,0,0,1.69,3.17S77.76,186.67,63.42,174.26Z"/><path class="cls-4" d="M75.14,168.74s4,17.65,3.45,26.47-1.11,26.2-.83,32-8,5.52-8,5.52-2.48-23.44-3.86-29.51-2.48-29-2.48-29Z"/><path class="cls-2" d="M74.64,204.17c0,10-.76,23.61,0,28.86a39.61,39.61,0,0,1-4.88-.31s-2.09-19.79-3.5-27.71c-.21-.39-.43-.85-.67-1.38a35,35,0,0,1-3-15.89c.18-4.29.51-9,.7-11.56C65.09,178.49,74.64,186.79,74.64,204.17Z"/><path class="cls-7" d="M78.33,228s1.17-1.23,1.54,1.43-.2,4.66,2.14,8.46,4.47,5.61,4.68,7.42a11.07,11.07,0,0,1,0,3.8s-1.09,2.13-6,2.26c-4.34.11-7-.36-8.26-1.79-.83-.95-1.34-2.75-1.36-6a14.72,14.72,0,0,0-1.61-7.22C68.71,235,70,230,70,230a1.88,1.88,0,0,1,1.76-2C76.61,229,78.33,228,78.33,228Z"/><path class="cls-8" d="M70.16,229.2s-.78-.28-.91-.85a2.53,2.53,0,0,1-.07-1s-.79-.47-1,1.43a20,20,0,0,0-.16,3.52,21.22,21.22,0,0,0,1.07,3.23,29.27,29.27,0,0,1,1.13,5.7c.17,2.66-.4,10.12,9.84,9.55-6.11-1.72-6.33-5.14-6.33-5.14l-.15-4.16a27.33,27.33,0,0,0-2.61-10.69Z"/><path class="cls-9" d="M72.14,249.69a14.29,14.29,0,0,1-1.22-3.4c1.86,2.81,3,3,4.67,3.19a31.4,31.4,0,0,0,4.29-.38c1.76-.13,3.51.47,5,.09a2.94,2.94,0,0,0,2-1.48c0,1-.1,1.77-.1,1.77s-1,2.52-5.91,2.64C78.41,252.19,73.67,252.05,72.14,249.69Z"/><path class="cls-9" d="M69.05,235.57A21.22,21.22,0,0,1,68,232.34a19.76,19.76,0,0,1,0-2.3,14.14,14.14,0,0,1,2.66,6.51c.29,2.58-.3,4.9-.25,7.34-.14-1-.2-1.92-.24-2.62A29.27,29.27,0,0,0,69.05,235.57Z"/><path class="cls-4" d="M64.54,160.74s9.38-1,11.4,3.48c1.38,3,2.18,14.82-1.59,19.13-1.86,2.13-10.1-5.51-10.1-10.75S64.54,160.74,64.54,160.74Z"/><path class="cls-10" d="M76.83,158.88l-2-10.69-17.52,4.44c.06,1.25.14,2.55.22,3.9.68,3.5,1.3,6.65,1.75,8.92C63,164.68,76.51,160.53,76.83,158.88Z"/><polygon class="cls-2" points="58.41 32.75 72 41.94 50.92 41.94 50.92 32.75 58.41 32.75"/><path class="cls-10" d="M60,36.64V34l9.71,6.39A30.67,30.67,0,0,0,60,36.64Z"/><polygon class="cls-2" points="59.95 25.57 59.95 39.93 50.92 39.93 50.92 26.33 59.95 25.57"/><path class="cls-11" d="M62.44,18.29V9.67S61.94.77,50.92,0V5.65l8.8,15.23Z"/><path class="cls-2" d="M61.38,18.39s.29-1.73,1.63-1.73.86,2.49.58,4.31-2,4.31-3.45,2.78S61.38,18.39,61.38,18.39Z"/><path class="cls-12" d="M50.92,33.37h1.82a2.17,2.17,0,0,0,1.52-.62L60,27.2h-9Z"/><path class="cls-2" d="M59.85,7.56l.29,4.31L61.38,15v5.65L60,27.2l-5.49,3.61a2.22,2.22,0,0,1-1.2.36H50.92V4.6C57.05,4.6,59.85,7.56,59.85,7.56Z"/><path class="cls-2" d="M78.67,44.84S80.13,48,76.81,60.05c-.6,2.15-4.35,2.76-5.59,6.42C69,73,69.16,83.21,69.36,85.85c.26,3.56,2.28,18.76,2.28,18.76,0,3.9-20.72,31.85-20.72,31.85l0-50.61V39.46S78.67,40.94,78.67,44.84Z"/><path class="cls-17" d="M78.67,44.84c0-1.26-2.87-2.26-6.78-3.05-5.09-1-11.92-.93-16.39-.71a6.91,6.91,0,0,0-4.6,2.63V48.1s0-1,0-1c0-1.29,1.49-2.49,2.6-3.16L55,43.15a6.74,6.74,0,0,1,3.39-.92h10.5S76.7,46,76.54,56.31a4.35,4.35,0,0,1-.8,2.37h1.43C80,47.76,78.67,44.84,78.67,44.84Z"/><path class="cls-4" d="M71.44,103.07l-12.85,2.06s3.53-10.31,5-14.76a6.34,6.34,0,0,0-1-6.2c3.93-4.86,1.38-8.29,1.38-8.29a14.45,14.45,0,0,0,2.54-8.95l6.21,6.77c-1.55,3.27-3.51,9.54-3.31,12.15C69.57,88.72,70.92,99.11,71.44,103.07Z"/><g class="cls-13"><path class="cls-14" d="M54.4,30.81l3.72-2.45-7.2,15.31V31.17H53.2A2.25,2.25,0,0,0,54.4,30.81Z"/></g><path class="cls-4" d="M57.28,65.18a38.78,38.78,0,0,0-6.36-1.38V58.51Z"/><path class="cls-5" d="M50.92,126.26V90.9l1,.86a2.7,2.7,0,0,0,1.67.59h3.63c4.08,0,5.31-.4,6.36-2A316.92,316.92,0,0,1,50.92,126.26Z"/><path class="cls-18" d="M52.7,44l1.42-.85a6.74,6.74,0,0,1,3.39-.92H68A33.7,33.7,0,0,1,74.7,52.54l.35-3.62c3.09,4,2.55,10,1.81,11.42a41.51,41.51,0,0,1-3.36,6.54c-.54,1.93-.42,1.74-.62,5.17-.42,3.72-2.86,9.82-3.38,12-.09.12-.56-16-3-17.07,0,0-6.51,0-10.14-1.59a10.21,10.21,0,0,1-3.73-2.77L50.92,60.5V47.23A3.67,3.67,0,0,1,52.7,44Z"/><path class="cls-10" d="M50.92,123.09c9.1-12.47,16.21-22.92,19.11-30,.66,5.38,1.47,11.49,1.47,11.49,0,2.89-11.44,19-17.33,27.18l-3.25-.73Z"/><path class="cls-10" d="M52.32,92a2.57,2.57,0,0,0-1.4.64V90.9l1,.86A2.57,2.57,0,0,0,52.32,92Z"/><path class="cls-10" d="M59.16,92.17s2.55.58,1.65,7.14l2.76-8.94S62.33,92.13,59.16,92.17Z"/><path class="cls-5" d="M53.06,70.48c2.35.63,5.37,1.56,7.73,2.25a6.31,6.31,0,0,0,3.82-.1,16.33,16.33,0,0,0,1.94-1.14l-2.63,4.39a1.58,1.58,0,0,1-1.75.06A21.85,21.85,0,0,0,54,73.24a2.87,2.87,0,0,0-3.12,1.81V68.48A3.46,3.46,0,0,0,53.06,70.48Z"/><path class="cls-5" d="M52.83,80.57c2.11.55,4.81,1.35,6.93,2a5.81,5.81,0,0,0,3.43-.08c.6-.21.88-.9,1.59-1.28l-1.63,3.3a2.37,2.37,0,0,1-2.92.85,34,34,0,0,0-6.71-1.92c-.87-.17-1.38-.35-2.07.06-.25.16-.53,1.15-.53,1.15V78.83A3,3,0,0,0,52.83,80.57Z"/><path class="cls-2" d="M53.52,44,55,43.15a6.74,6.74,0,0,1,3.39-.92h10.5S76.7,46,76.54,56.31a5.14,5.14,0,0,1-1.75,3.51c-1.55,1.52-3.06,3.09-5.24,3.09h-11a6.76,6.76,0,0,1-5.13-2.37l-.15-.19c-1-1.19-2.33-2.69-2.33-4.24v-9C50.92,45.86,52.41,44.66,53.52,44Z"/><path class="cls-15" d="M71.28,99.72l.7,1.62,2.77,6.88c2.66,6.2,3.42,12.41,3.86,19.15l2.39,30s-9.1,7.66-27.09,2.9l-3-24V104.48S66.53,103.86,71.28,99.72Z"/><path class="cls-16" d="M70.67,161.44c.41-8.91,1.08-20.75,2-28.42.9-7.38,3.12-12,5-14.64a89,89,0,0,1,1,9l2.39,30S77.54,160.33,70.67,161.44Z"/><polygon class="cls-19" points="17.47 129.1 23.29 139.18 17.47 149.27 5.82 149.27 0 139.18 5.82 129.1 17.47 129.1"/><path class="cls-20" d="M19,134.93a8.51,8.51,0,1,1-7.37-4.26A8.51,8.51,0,0,1,19,134.93Z"/><polygon class="cls-19" points="96.06 129.1 101.88 139.18 96.06 149.27 84.41 149.27 78.59 139.18 84.41 129.1 96.06 129.1"/><path class="cls-20" d="M97.61,134.93a8.51,8.51,0,1,1-7.37-4.26A8.46,8.46,0,0,1,97.61,134.93Z"/></g></g></g></svg>