<svg xmlns="http://www.w3.org/2000/svg" viewBox="0 0 153.59 180.14"><defs><style>.cls-1{fill:#ebede6;}.cls-2{fill:#d9d9da;}.cls-3{fill:#75757a;}.cls-4{fill:#4c4c4e;}.cls-5{fill:#1e1e1e;}.cls-6{fill:#d6ab8c;}.cls-7{fill:#c69575;}.cls-8{fill:#d9d8ec;}.cls-9{fill:#c6c5e3;}.cls-10{fill:#3c3c40;}.cls-11{fill:#151515;}.cls-12{fill:#e2c4af;}.cls-13{fill:#2d241f;}.cls-14{fill:#ddbaa1;}.cls-15{fill:#e4c9b6;}.cls-16{fill:#3a3c3b;}.cls-17{fill:#2f2f2f;}.cls-18{fill:#e7e7e7;}.cls-19{fill:#535353;}.cls-20{fill:#2c2e2d;}.cls-21{fill:#28b0b8;}.cls-22{fill:#fcbe76;}</style></defs><title>rowing1</title><g id="Calque_2" data-name="Calque 2"><g id="Layer_2" data-name="Layer 2"><ellipse class="cls-1" cx="30.98" cy="172.44" rx="23.8" ry="7.7"/><path class="cls-1" d="M146.84,165.5H17.49v6.29H146.84c1.39,0,2.53-1.41,2.53-3.15S148.23,165.5,146.84,165.5Z"/><rect class="cls-2" x="136.35" y="120.46" width="8.18" height="47.55"/><rect class="cls-2" x="15.44" y="120.46" width="8.18" height="47.55"/><rect class="cls-2" x="15.44" y="116.46" width="129.1" height="8.18"/><polygon class="cls-3" points="120.67 124.64 120.67 116.46 98.67 116.46 78.1 117.43 70.89 124.64 120.67 124.64"/><rect class="cls-4" x="136.35" y="162.81" width="8.18" height="5.19"/><rect class="cls-4" x="15.44" y="162.81" width="8.18" height="5.19"/><rect class="cls-5" x="11.86" y="106.56" width="136.25" height="11.66" rx="2.54"/><path class="cls-4" d="M142.69,110.59H14.82a3,3,0,0,0-3,3v1.74a2.93,2.93,0,0,0,2.94,2.93H144.08V112A1.38,1.38,0,0,0,142.69,110.59Z"/><path class="cls-6" d="M130.27,104.59l-7.39,1.72c-13.67-23.39-13.27-37.15-13.27-37.15s8-4.09,12.78,13.12C125.65,94,130.25,105.18,130.27,104.59Z"/><path class="cls-6" d="M124,99.37c-1.82-6.53-4.21-14.27-5.19-21-.47-3.16-17.66-24.38-18.59-20.85-.26,1.59,5.31,16.92,7.27,22.18,4,10.9,14.43,26.11,15.23,27.32a5.81,5.81,0,0,0,8.42,1.48,5,5,0,0,0,.86-.84S124.75,102,124,99.37Z"/><path class="cls-6" d="M109.68,38.37c-.33,2.53-.71,6.46.57,9.29,3.27,7.29,4.59,10.65,5.16,13.7.66,3.48,1.24,8.16,2.21,13.43-1.07.25-2.83-3-6.73-4.62-3.69-1.49-6.27-11.1-8.17-15.48-3.15-7.24,2.49-24.2,3.43-26.39C108,24.08,110,35.84,109.68,38.37Z"/><path class="cls-6" d="M138,102.75l-10.58-.65-5.9,1.54s.47,6.15,6.89,6.15a46.62,46.62,0,0,0,10.68-1.67l5.63,1.65c2,.55,3.27,1,4-1Z"/><path class="cls-6" d="M93.65,20.42s4-1.34,8.84,2.11c4.06,2.92,5.63,11.17,4.86,16,0,0-8.43,8.73-7.39,12.61a27.8,27.8,0,0,0-5.57-6.06c-3.15-2.37-5.21-3.87-7-7.59S83.94,24.81,93.65,20.42Z"/><path class="cls-6" d="M94.5,53.38S84.77,58,82.85,58.31a28.13,28.13,0,0,1-6.13.46A10,10,0,0,1,72.46,60a24,24,0,0,1-3.79-.13,12.35,12.35,0,0,1-6.4,2,20.54,20.54,0,0,1-4.5,1.48c-4.22.54-13.38-.11-23.87-.54,0,0,5-25.56,9.81-25.44s16-1.77,16-1.77,11.59-6.94,20.71-12.37c11.29-6.72,22.86-2.42,22.86-2.42a38.35,38.35,0,0,1,2.69,8.34l1.4,9.48Z"/><path class="cls-7" d="M61.56,109.57a8.2,8.2,0,0,0,9.12-8.14s.8-5.44-8.31-8.13c-7-2.07-23-1.59-30.85-1.63-18.16-.11-22.25-1.38-22.25-1.38L8.21,102.78s1.84-2.09,24.55,1.69C51.06,107.52,57.25,109.07,61.56,109.57Z"/><path class="cls-8" d="M.39,113c.49,3.49,1.4,6.48,3.25,8.67.76.91,3.8.36,4.45-.61.59-1.73.89-5.23,1.81-8,1-2.93,2.41-6.4,4.71-8.85,1-1.07,1.34-1.54.92-2.25a11.13,11.13,0,0,0-3-2.69c-1-.68-1.65-5.33-.66-7.3.62-1.23,2.79-1.19,2.79-1.19-.1-.24-.08-1.84-1.13-2l-8.64-.94S.12,87.26,1.2,94.26.43,100.91.08,105.12A38.44,38.44,0,0,0,.39,113Z"/><path class="cls-9" d="M4.86,87.84l2.08.23c-.72.82-2.46,3.42-1.55,8.61A16,16,0,0,1,4.57,100c-.51,1.13-3.48,8.3,0,19.67l-1.91.59A19.25,19.25,0,0,1,.39,113a38.44,38.44,0,0,1-.31-7.83c.35-4.21,2.19-3.87,1.12-10.86S4.86,87.84,4.86,87.84Z"/><path class="cls-10" d="M3.65,87.57s1.73.33,2.54.42c-2.44,1.65-2,6.75-1.83,9s-1,3.69-1.84,7.17A27.23,27.23,0,0,0,3.75,118.3c1.54,2.15,3.79,3.54,3.43,3.7-1.13.51-3,.29-3.54-.38C1.79,119.43.88,116.44.39,113a38.44,38.44,0,0,1-.31-7.83c.35-4.21,1.9-3.83,1.12-10.86C.47,87.77,3.65,87.57,3.65,87.57Z"/><path class="cls-6" d="M54.4,59.15S69.63,93.68,70.57,98.88s-2.1,7.6-4.67,7.92c-4.45.55-11.87-3.89-19.13-13-8.25-15.21-11.28-24-11.28-24Z"/><path class="cls-11" d="M50.4,49.06c-1.41-1.94-5-3.07-6.57-4.84L42.36,89l.73,1s15.27.56,22.91-7.47C66,82.54,55.66,56.29,50.4,49.06Z"/><path class="cls-7" d="M117.35,33.89a7,7,0,0,0-4.67.92l-5.49,3.27,7.15-19.44,5.27,7.77Z"/><path class="cls-6" d="M108.88,14.71s-6.71,7.19-12.63,11.22c0,0-1.65,4,6.92,10.57L107,39,121.53.65S113.73,10.07,108.88,14.71Z"/><path class="cls-12" d="M108.2,15.93C110.6,6.2,114.75,1.51,119.86.69c5.31-.86,17.85,7.92,13.88,17.34-3.46,8.23-10.9,15.68-12.74,17.45a.92.92,0,0,1-1,.21,6.88,6.88,0,0,1-3.43-2.19l-3.71-5.24a2.89,2.89,0,0,1-.67-2.52c.58-2.94,3.89-14.07,2-16.48Z"/><path class="cls-13" d="M134.24,16.68a11,11,0,0,0,2.84-6.27l-4.51-4.67a19.15,19.15,0,0,0-7.83-5c-3.83-1.23-8.84-1.49-13,2.9S106,14.37,104.93,18.4l4,.54c2.25-2.94,3.3-5.57,5.71-5.31l4.46,2.09,6.43-.66s1.31-2.38,3.36-5.72C133.57,12.68,134.24,16.68,134.24,16.68Z"/><path class="cls-12" d="M115.71,11.93c-4,.25-3.28,7.19-1.4,8.28,1.14.68,4.25-1.59,4.25-1.59S120.05,11.66,115.71,11.93Z"/><path class="cls-13" d="M134.24,16.68s1.4.2,3.22-1.77A4.16,4.16,0,0,0,138,10s-2.28.94-5.84-2.1Z"/><polygon class="cls-13" points="117.04 18.54 120.11 12.46 122.13 14.69 118.83 19.91 117.04 18.54"/><path class="cls-12" d="M94.5,53.38S84.77,58,82.85,58.31a28.13,28.13,0,0,1-6.13.46A10,10,0,0,1,72.46,60a24,24,0,0,1-3.79-.13,12.35,12.35,0,0,1-6.4,2,20.54,20.54,0,0,1-4.5,1.48c-4.22.54-13.38-.11-23.87-.54,0,0,5-25.56,9.81-25.44s16-1.77,16-1.77,11.59-6.94,20.71-12.37a27.05,27.05,0,0,1,13.76-3.77A11.92,11.92,0,0,1,105.91,29l0,.14,1.4,9.48Z"/><path class="cls-6" d="M99.48,34.81,37.38,48.75c-.5,1.65-1,3.34-1.39,5l5.54,9.46c7.17.34,13.08.6,16.24.2a20.54,20.54,0,0,0,4.5-1.48,12.35,12.35,0,0,0,6.4-2,24,24,0,0,0,3.79.13,10,10,0,0,0,4.26-1.23,28.13,28.13,0,0,0,6.13-.46C84.77,58,94.5,53.38,94.5,53.38l7-8Z"/><path class="cls-12" d="M70.65,48.55c4.08,1.93,7.83,4.54,10.54,4.54,8.38,0,21.3-5.06,19.64-6.72,0,0-20.25-21.21-21.07-20.72-8.34,5-19,11.32-19,11.32S50.59,38.71,46.18,38.6a2,2,0,0,0-1.38.67v.9l2,12.12S66,46.33,70.65,48.55Z"/><path class="cls-14" d="M58.87,38.3l5.5-5.49-4.69,2.8s-4.57.78-9.12,1.31Z"/><path class="cls-6" d="M70.65,48.55s4.9,4,8.93,3.2,10-4,9.14-6.19,3.5,4.31,3.5,4.31L87.4,56l-8.89-.25Z"/><path class="cls-12" d="M99.68,23.86s-8.43-4.81-21,2.07l-.33.18c-4.8,2.63-4.82,8.55,0,11l.13.08a29.41,29.41,0,0,1,5,3.1,13.86,13.86,0,0,0,17.47-.9c3.31-3.19,2.8-2.41,4.64-5.27C105.23,25.44,99.68,23.86,99.68,23.86Z"/><path class="cls-6" d="M85.16,38.37s-.6-6.66,7.46-10.89c0,0-4,8.87-3,13.91Z"/><path class="cls-6" d="M88.46,47.71A12.3,12.3,0,0,0,79.85,37.5,12.54,12.54,0,0,1,93,44.76Z"/><path class="cls-7" d="M58.63,49.12c-5,10.72-2.2,14.16-2.2,14.16-3.34.43-9.15,2.62-16.91,2.26C44.91,61.39,60.39,45.36,58.63,49.12Z"/><path class="cls-6" d="M87.4,56l-.93-4.93c-.2-3.23,1.66-12.6,4.14-14.68l6.61-.11.38.23L93,43a9.56,9.56,0,0,0-1.8,5.63c0,1.16.06,2.52.2,3.9.36,3.65,3,3.62,3,3.62S92.14,57.4,87.4,56Z"/><path class="cls-14" d="M67.05,55.15c-.44-1.25-.63-2.56.42-3.23a4.91,4.91,0,0,1,3.42.37c3.54,1.9,5.83,6.48,5.83,6.48A10,10,0,0,1,72.46,60l-.74,0a2.81,2.81,0,0,1-2.54-1.45A34.55,34.55,0,0,1,67.05,55.15Z"/><path class="cls-14" d="M61.5,54.38a2.78,2.78,0,0,1,4.34.94,23,23,0,0,0,2.83,4.55,12.45,12.45,0,0,1-6.4,2c-1.87-3.42-2-5.29-1.29-6.84A2,2,0,0,1,61.5,54.38Z"/><path class="cls-6" d="M34.38,107.73s-.53-4.92-6.89-5.86-10.12,24.22-9.82,42.37-.88,22.27-.88,22.27l12.51.79s-2.14-2.28,1.07-25.07C34.65,112,36.18,108.26,34.38,107.73Z"/><path class="cls-6" d="M42.5,92.19s-2.56,6.91-2.84,12.16a17.66,17.66,0,0,1-1.09,4c-2.49,4.72-4,6.5-4.61,8.32L21.53,110.4a86.62,86.62,0,0,0,3.4-14.2c.46-3-2.16-6.34-2.09-9.63C23.08,74.29,42.5,92.19,42.5,92.19Z"/><path class="cls-14" d="M17.32,168.1s-.55-3.84,2.57-30.82c2.66-23,10.87-27.09,11.72-27.55s2.35,7,2.35,7l0,1.41c-.8,5.11-2,12.74-3.63,24.14-1.86,13.24-1.92,19.56-1.65,22.53Z"/><path class="cls-6" d="M24.12,102.36s-7.82,11.16-8.4,20.89c-.29,4.76,2.53,20.9,2.51,30.24C18.22,160.22,24.12,102.36,24.12,102.36Z"/><path class="cls-8" d="M39.35,175.39c3.49-.49,6.48-1.41,8.67-3.25.9-.76.36-3.8-.62-4.46-1.73-.58-5.22-.88-8-1.81-2.93-1-6.41-2.4-8.85-4.7-1.08-1-1.55-1.35-2.26-.92a11.11,11.11,0,0,0-2.69,3c-.67,1-5.32,1.64-7.29.66-1.23-.62-1.19-2.79-1.19-2.79-.25.1-1.85.07-2,1.12-.36,3.45-.93,8.64-.93,8.64s-.58,4.74,6.41,3.67,6.66.77,10.87,1.11A37.65,37.65,0,0,0,39.35,175.39Z"/><path class="cls-9" d="M14.24,170.91s.09-.84.23-2.08c.82.72,3.42,2.46,8.61,1.56a16,16,0,0,1,3.28.82c1.12.51,8.29,3.48,19.66,0l.6,1.91a19.25,19.25,0,0,1-7.27,2.27,37.65,37.65,0,0,1-7.83.3c-4.21-.34-3.87-2.19-10.87-1.11S14.24,170.91,14.24,170.91Z"/><path class="cls-10" d="M14,172.13s.34-1.73.43-2.55c1.65,2.44,6.75,2,9,1.83s3.69,1,7.17,1.85A27.19,27.19,0,0,0,44.69,172c2.15-1.54,3.55-3.79,3.71-3.44.5,1.14.29,3-.38,3.55-2.19,1.84-5.18,2.76-8.67,3.25a37.65,37.65,0,0,1-7.83.3c-4.21-.34-3.83-1.9-10.87-1.11C14.17,175.3,14,172.13,14,172.13Z"/><path class="cls-12" d="M103.76,69s.91,7.22,1.37,11c.81,6.72.54,9.41-.81,19.36a145.65,145.65,0,0,0-1.09,15.39s-5.08,5.78-9.13,2.09c0,0-.48-8.8-1.07-14s-2.3-14-1.65-16.87c.7-3,3.22-20.75,4.07-22.12C97.63,60.93,101.21,70.54,103.76,69Z"/><path class="cls-12" d="M88.74,43.22s-1,2-1.63,8,6.46,27.43,6.46,27.43l4.3-3.23S102.22,52.05,88.74,43.22Z"/><path class="cls-12" d="M106.39,46.68s-.4.62.59,4.11.54,11.6,0,14.14c-.81,4-2.69,12.1-3.23,15.86-1.21-.21-2.78-.56-6.18-4-3.21-3.28-2.31-14.8-2.15-20.39S106.39,46.68,106.39,46.68Z"/><path class="cls-14" d="M99,25.21s4.24,0,7.74,4.76c3,4,1.88,12.37-.35,16.71,0,0-10.72,5.68-10.94,9.69A27.87,27.87,0,0,0,92,48.88c-2.26-3.23-3.75-5.3-4.34-9.41S88.4,26.37,99,25.21Z"/><path class="cls-15" d="M100.07,25.59a8.33,8.33,0,0,1,6.4,4.11,12.25,12.25,0,0,1,.26,11.56,10.14,10.14,0,0,1-1.74,2,9.41,9.41,0,0,1-13.81-5.62A6.28,6.28,0,0,1,91,37C90.56,33.7,91.6,26.51,100.07,25.59Z"/><path class="cls-16" d="M25,53.36s.81-17.21,22.59-16.94l4.71-.27S60.22,44.76,60,62.77l-8.07,3.5S32.73,68.09,25,53.36Z"/><path class="cls-16" d="M45.7,38.84c-8.88-3.76-18.56,3.76-20.44,12.1a38.89,38.89,0,0,0-.05,14L21.76,91.28s5.11,4,23.67,4.84c0,0,6.42-21.79,7.53-30.66C54.3,54.71,56.66,43.49,45.7,38.84Z"/><polygon class="cls-17" points="98.84 120.03 91.49 120.03 77.36 120.03 77.36 125.45 90.95 125.45 105.31 125.45 122.64 125.45 122.64 120.03 98.84 120.03"/><polygon class="cls-17" points="77.21 130.84 79.33 133.45 79.33 112.04 77.21 114.64 77.21 130.84"/><polygon class="cls-18" points="89.28 130.84 87.17 133.45 87.17 112.04 89.28 114.64 89.28 130.84"/><rect class="cls-19" x="79.32" y="128.2" width="7.84" height="5.25"/><rect class="cls-18" x="79.32" y="112.04" width="7.84" height="5.25"/><rect class="cls-17" x="79.32" y="117.29" width="7.84" height="10.91"/><polygon class="cls-17" points="110.72 130.84 112.83 133.45 112.83 112.04 110.72 114.64 110.72 130.84"/><polygon class="cls-18" points="122.78 130.84 120.67 133.45 120.67 112.04 122.78 114.64 122.78 130.84"/><rect class="cls-19" x="112.83" y="128.2" width="7.84" height="5.25"/><rect class="cls-18" x="112.83" y="112.04" width="7.84" height="5.25"/><rect class="cls-17" x="112.83" y="117.29" width="7.84" height="10.91"/><path class="cls-12" d="M93.44,126.7h12.79c.73-.76.85-.87,1-1.24a32.06,32.06,0,0,0-.81-7.17c-1.13-1.78-3.38-4.29-3.79-5.19l-7.15-3-2.69,7.53a37.09,37.09,0,0,0-.07,7.83Z"/><path class="cls-12" d="M105.54,122.51h.15S105.54,122.51,105.54,122.51Z"/><path class="cls-6" d="M92.69,125.46l1,1.66a1.91,1.91,0,0,0,1.43.86,79.92,79.92,0,0,0,9.43,0,2.52,2.52,0,0,0,1.55-.74,7.27,7.27,0,0,0,1.1-1.78Z"/><path class="cls-20" d="M52.29,36.15l-4.71.27C36,36.28,30.39,41,27.62,45.55c3.85-5.76,11.2-9.63,18.08-6.71,11,4.65,8.6,15.87,7.26,26.62,0,.12,0,.24-.05.36l7-3C60.22,44.76,52.29,36.15,52.29,36.15Z"/><path class="cls-21" d="M53,46,45,47.24c-6.25,1.21-7.86,8.27-7.86,8.27l-5,39.21.75.14.15,0,1.05.17.17,0,1.12.17.15,0,1.22.16h.12l1.34.15h0l1.49.14c.56.06,1.09.1,1.63.14l1.7.12c1.5-12.45,1.7-40.08,1.7-40.08.2-3.84,3.84-4.24,9.08-5.45A11.84,11.84,0,0,0,53,46Z"/><path class="cls-14" d="M93.1,75.87c-.73,4.45-1.4,8.75-1.72,10.1-.65,2.83,1.05,11.69,1.65,16.87-.81-12.37.4-17.07,1.21-20.3C94.81,80.25,93.76,77.36,93.1,75.87Z"/><path class="cls-6" d="M92.22,60.76S86.84,55,87.11,51.21c-.47,4.57,3.6,18.34,5.51,24.45l.48.21A52.57,52.57,0,0,1,92.22,60.76Z"/><rect class="cls-22" x="133.85" y="35.69" width="14.31" height="4.77"/><rect class="cls-22" x="133.85" y="43.97" width="14.31" height="28.89"/><polygon class="cls-22" points="153.59 69.04 141.01 85.49 128.43 69.04 153.59 69.04"/><path class="cls-14" d="M103,71.65c-2.69-.27-6.46-7.26-6.46-7.26,1.35,4.84,3.77,7.26,6.19,12.37a35.55,35.55,0,0,1,2.86,8.81c0-1.69-.18-3.43-.44-5.58-.13-1.11-.31-2.51-.48-3.93.68-3.36,1.56-7.28,2.14-10C105.76,68.89,104.94,71.84,103,71.65Z"/></g></g></svg>