<svg xmlns="http://www.w3.org/2000/svg" viewBox="0 0 149.37 230.16"><defs><style>.cls-1{fill:#ebede6;}.cls-2{fill:#d9d9da;}.cls-3{fill:#4c4c4e;}.cls-4{fill:#1e1e1e;}.cls-5{fill:#d6ab8c;}.cls-6{fill:#c69575;}.cls-7{fill:#d9d8ec;}.cls-8{fill:#c6c5e3;}.cls-9{fill:#3c3c40;}.cls-10{fill:#151515;}.cls-11{fill:#e2c4af;}.cls-12{fill:#2d241f;}.cls-13{fill:#ddbaa1;}.cls-14{fill:#3a3c3b;}.cls-15{fill:#2c2e2d;}.cls-16{fill:#28b0b8;}.cls-17{fill:#e4c9b6;}.cls-18{fill:#2f2f2f;}.cls-19{fill:#e7e7e7;}.cls-20{fill:#535353;}.cls-21{fill:#ead5c6;}.cls-22{fill:#fcbe76;}</style></defs><title>rowing2</title><g id="Calque_2" data-name="Calque 2"><g id="Layer_2" data-name="Layer 2"><ellipse class="cls-1" cx="30.98" cy="222.46" rx="23.8" ry="7.7"/><path class="cls-1" d="M146.84,215.52H17.49v6.29H146.84c1.39,0,2.53-1.41,2.53-3.15S148.23,215.52,146.84,215.52Z"/><rect class="cls-2" x="136.35" y="170.48" width="8.18" height="47.55"/><rect class="cls-2" x="15.44" y="170.48" width="8.18" height="47.55"/><rect class="cls-2" x="15.44" y="166.48" width="129.1" height="8.18"/><rect class="cls-3" x="136.35" y="212.84" width="8.18" height="5.19"/><rect class="cls-3" x="15.44" y="212.84" width="8.18" height="5.19"/><rect class="cls-4" x="11.86" y="156.58" width="136.25" height="11.66" rx="2.54"/><path class="cls-3" d="M142.69,160.61H14.82a3,3,0,0,0-3,3v1.74a2.93,2.93,0,0,0,2.94,2.93H144.08V162A1.39,1.39,0,0,0,142.69,160.61Z"/><path class="cls-5" d="M130.27,154.61l-7.39,1.72c-13.67-23.38-13.27-37.15-13.27-37.15s8-4.09,12.78,13.12C125.65,144,130.25,155.2,130.27,154.61Z"/><path class="cls-5" d="M124,149.39c-1.82-6.53-4.21-14.27-5.19-21-.47-3.16-17.66-24.38-18.59-20.85-.26,1.59,5.31,16.92,7.27,22.19,4,10.89,14.43,26.1,15.23,27.31a5.81,5.81,0,0,0,8.42,1.48,5,5,0,0,0,.86-.84S124.75,152,124,149.39Z"/><path class="cls-5" d="M109.68,88.39c-.33,2.53-.71,6.46.57,9.29,3.27,7.29,4.59,10.65,5.16,13.7.66,3.48,1.24,8.16,2.21,13.43-1.07.26-2.83-3-6.73-4.62-3.69-1.49-6.27-11.09-8.17-15.48-3.15-7.24,2.49-24.2,3.43-26.38C108,74.11,110,85.86,109.68,88.39Z"/><polygon class="cls-6" points="105.81 92.36 105 116.83 98.55 116.02 98.55 95.32 105.81 92.36"/><path class="cls-5" d="M138,152.78l-10.58-.65-5.9,1.53s.47,6.15,6.89,6.15a46.07,46.07,0,0,0,10.68-1.67l5.63,1.65c2,.55,3.27,1,4-1Z"/><path class="cls-5" d="M94.5,103.4s-9.73,4.6-11.65,4.93a27.52,27.52,0,0,1-6.13.46A10.09,10.09,0,0,1,72.46,110a24.62,24.62,0,0,1-3.79-.14,12.41,12.41,0,0,1-6.4,2,20.91,20.91,0,0,1-4.5,1.47c-4.22.54-13.38-.11-23.87-.54,0,0,5-25.56,9.81-25.43s16-1.78,16-1.78,11.59-6.94,20.71-12.37c11.29-6.72,22.86-2.42,22.86-2.42a38.35,38.35,0,0,1,2.69,8.34l1.4,9.48Z"/><path class="cls-6" d="M61.56,159.59a8.2,8.2,0,0,0,9.12-8.14s.8-5.44-8.31-8.13c-7-2.07-23-1.58-30.85-1.63-18.16-.1-22.25-1.38-22.25-1.38L8.21,152.8s1.84-2.08,24.55,1.69C51.06,157.54,57.25,159.1,61.56,159.59Z"/><path class="cls-7" d="M.39,163c.49,3.5,1.4,6.48,3.25,8.67.76.91,3.8.36,4.45-.61.59-1.73.89-5.22,1.81-8,1-2.93,2.41-6.4,4.71-8.85,1-1.07,1.34-1.54.92-2.25a11.13,11.13,0,0,0-3-2.69c-1-.68-1.65-5.32-.66-7.3.62-1.23,2.79-1.19,2.79-1.19-.1-.24-.08-1.84-1.13-1.95-3.45-.36-8.64-.94-8.64-.94s-4.74-.58-3.66,6.42S.43,150.94.08,155.14A38.44,38.44,0,0,0,.39,163Z"/><path class="cls-8" d="M4.86,137.86l2.08.23c-.72.82-2.46,3.43-1.55,8.62A15.86,15.86,0,0,1,4.57,150c-.51,1.13-3.48,8.3,0,19.67l-1.91.59A19.25,19.25,0,0,1,.39,163a38.44,38.44,0,0,1-.31-7.83c.35-4.2,2.19-3.86,1.12-10.86S4.86,137.86,4.86,137.86Z"/><path class="cls-9" d="M3.65,137.59s1.73.33,2.54.42c-2.44,1.65-2,6.75-1.83,9s-1,3.69-1.84,7.17a27.23,27.23,0,0,0,1.23,14.14c1.54,2.15,3.79,3.55,3.43,3.7-1.13.51-3,.29-3.54-.38C1.79,169.45.88,166.47.39,163a38.44,38.44,0,0,1-.31-7.83c.35-4.2,1.9-3.83,1.12-10.86C.47,137.79,3.65,137.59,3.65,137.59Z"/><path class="cls-5" d="M54.4,109.17S69.63,143.7,70.57,148.9s-2.1,7.61-4.67,7.92c-4.45.55-11.87-3.89-19.13-13-8.25-15.22-11.28-24-11.28-24Z"/><path class="cls-10" d="M50.4,99.08c-1.41-1.94-5-3.07-6.57-4.84L42.36,139l.73,1s15.27.55,22.91-7.48C66,132.56,55.66,106.31,50.4,99.08Z"/><path class="cls-6" d="M117.35,83.91a7,7,0,0,0-4.67.92l-5.49,3.27,7.15-19.44,5.27,7.77Z"/><path class="cls-5" d="M108.88,64.73S102.17,71.92,96.25,76c0,0-1.65,4,6.92,10.57L107,89l14.51-38.3S113.73,60.09,108.88,64.73Z"/><path class="cls-11" d="M108.2,66c2.4-9.73,6.55-14.42,11.66-15.24,5.31-.86,17.85,7.93,13.88,17.35-3.46,8.22-10.9,15.68-12.74,17.44a.92.92,0,0,1-1,.21,6.88,6.88,0,0,1-3.43-2.19l-3.71-5.24a2.89,2.89,0,0,1-.67-2.52c.58-2.94,3.89-14.07,2-16.48Z"/><path class="cls-12" d="M134.24,66.7a11,11,0,0,0,2.84-6.27l-4.51-4.67a19.15,19.15,0,0,0-7.83-5c-3.83-1.23-8.84-1.49-13,2.9S106,64.39,104.93,68.42l4,.54c2.25-2.94,3.3-5.57,5.71-5.31l4.46,2.09,6.43-.66s1.31-2.38,3.36-5.72C133.57,62.71,134.24,66.7,134.24,66.7Z"/><path class="cls-11" d="M115.71,62c-4,.25-3.28,7.19-1.4,8.29,1.14.67,4.25-1.6,4.25-1.6S120.05,61.68,115.71,62Z"/><path class="cls-12" d="M134.24,66.7s1.4.21,3.22-1.77a4.16,4.16,0,0,0,.5-4.87s-2.28.94-5.84-2.1Z"/><polygon class="cls-12" points="117.04 68.57 120.11 62.49 122.13 64.71 118.83 69.93 117.04 68.57"/><path class="cls-13" d="M94.5,103.4s-9.73,4.6-11.65,4.93a27.52,27.52,0,0,1-6.13.46A10.09,10.09,0,0,1,72.46,110a24.62,24.62,0,0,1-3.79-.14,12.41,12.41,0,0,1-6.4,2,20.91,20.91,0,0,1-4.5,1.47c-4.22.54-13.38-.11-23.87-.54,0,0,5-25.56,9.81-25.43s16-1.78,16-1.78,11.59-6.94,20.71-12.37a27.15,27.15,0,0,1,13.76-3.77A11.92,11.92,0,0,1,105.91,79l0,.14-4.16,16.4Z"/><path class="cls-5" d="M99.48,84.83,37.38,98.77c-.5,1.66-1,3.34-1.39,5l5.54,9.47c7.17.33,13.08.59,16.24.19a20.91,20.91,0,0,0,4.5-1.47,12.41,12.41,0,0,0,6.4-2,24.62,24.62,0,0,0,3.79.14,10.09,10.09,0,0,0,4.26-1.24,27.52,27.52,0,0,0,6.13-.46c1.92-.33,11.65-4.93,11.65-4.93l7-8Z"/><path class="cls-13" d="M66.91,83.34,60.8,87s-10.21,1.73-14.62,1.62a2,2,0,0,0-1.38.68v.9l2,12.11s20.35-4.62,27.58-4.84Z"/><path class="cls-6" d="M79.76,99.29A46.52,46.52,0,0,1,74.31,92c-3.19-5.37-6.86-10.42-10.2-15.69l-2.67,7.16c3.06,4.32,11,24.24,12.56,25.27s7,1.73,11.1,1.89C84.09,109.29,80.84,100.52,79.76,99.29Z"/><path class="cls-13" d="M58.87,88.32l5.5-5.49-4.69,2.8s-4.57.78-9.12,1.31Z"/><path class="cls-5" d="M68.16,90.48s13.72-13,21.78-17.22c0,0-1.35,13.11-.34,18.16Z"/><path class="cls-6" d="M58.63,99.14c-5,10.73-2.2,14.17-2.2,14.17-3.34.42-9.15,2.62-16.91,2.25C44.91,111.42,60.39,95.38,58.63,99.14Z"/><path class="cls-6" d="M87.4,106.05l-2.3-3.47c-.2-3.23,1.62-20.44,5.11-22.86l7,6.61.38.23L93,93a9.56,9.56,0,0,0-1.8,5.63c0,1.16.06,2.52.2,3.9.36,3.65,3,3.63,3,3.63S92.14,107.42,87.4,106.05Z"/><path class="cls-13" d="M90.87,86.28s-2.6,16.17-1.44,19.35,2.42,2.51,5.25,2.41,7.74-7,11.21-12.52c1-8.27.86-12.71-2-14.44S90.87,86.28,90.87,86.28Z"/><path class="cls-11" d="M102.85,87.79s1.35,5.37-1.88,14.52q-.1.3-.18.57a89.4,89.4,0,0,0,5.1-7.36c.71-5.92.84-9.87-.2-12.28l-.15,0A14.85,14.85,0,0,1,102.85,87.79Z"/><path class="cls-5" d="M67.05,105.17c-.44-1.24-.63-2.56.42-3.23a4.91,4.91,0,0,1,3.42.37c3.54,1.9,5.83,6.48,5.83,6.48A10.09,10.09,0,0,1,72.46,110l-.74,0a2.84,2.84,0,0,1-2.54-1.46A34.55,34.55,0,0,1,67.05,105.17Z"/><path class="cls-5" d="M34.38,157.75s-.53-4.92-6.89-5.86-10.12,24.22-9.82,42.38-.88,22.26-.88,22.26l12.51.79s-2.14-2.28,1.07-25.07C34.65,162,36.18,158.28,34.38,157.75Z"/><path class="cls-5" d="M42.5,142.21s-2.56,6.91-2.84,12.16a17.66,17.66,0,0,1-1.09,4c-2.49,4.72-4,6.5-4.61,8.33l-12.43-6.29a86.31,86.31,0,0,0,3.4-14.19c.46-3-2.16-6.35-2.09-9.63C23.08,124.31,42.5,142.21,42.5,142.21Z"/><path class="cls-13" d="M17.32,218.12s-.55-3.84,2.57-30.82c2.66-23,10.87-27.09,11.72-27.55s2.35,7,2.35,7l0,1.4c-.8,5.11-2,12.74-3.63,24.14-1.86,13.24-1.92,19.56-1.65,22.53Z"/><path class="cls-5" d="M24.12,152.38s-7.82,11.17-8.4,20.9c-.29,4.76,2.53,20.89,2.51,30.23C18.22,210.24,24.12,152.38,24.12,152.38Z"/><path class="cls-7" d="M39.35,225.41c3.49-.49,6.48-1.41,8.67-3.25.9-.76.36-3.8-.62-4.46-1.73-.58-5.22-.88-8-1.81-2.93-1-6.41-2.4-8.85-4.7-1.08-1-1.55-1.34-2.26-.92a11.33,11.33,0,0,0-2.69,3c-.68,1-5.32,1.64-7.29.66-1.23-.62-1.19-2.79-1.19-2.79-.25.1-1.85.08-2,1.12-.36,3.46-.93,8.65-.93,8.65s-.58,4.74,6.41,3.66,6.66.77,10.87,1.11A37.65,37.65,0,0,0,39.35,225.41Z"/><path class="cls-8" d="M14.24,220.94s.09-.85.23-2.08c.82.71,3.42,2.46,8.61,1.55a16,16,0,0,1,3.28.82c1.12.51,8.29,3.48,19.66,0l.6,1.91a19.25,19.25,0,0,1-7.27,2.27,37.65,37.65,0,0,1-7.83.3c-4.21-.34-3.87-2.18-10.87-1.11S14.24,220.94,14.24,220.94Z"/><path class="cls-9" d="M14,222.15s.34-1.73.43-2.55c1.65,2.45,6.75,2,9,1.83s3.69,1,7.17,1.85a27.19,27.19,0,0,0,14.13-1.23c2.15-1.54,3.55-3.79,3.71-3.44.5,1.14.29,3-.38,3.55-2.19,1.84-5.18,2.76-8.67,3.25a37.65,37.65,0,0,1-7.83.3c-4.21-.34-3.83-1.9-10.87-1.11C14.17,225.33,14,222.15,14,222.15Z"/><path class="cls-14" d="M25,103.38s.81-17.21,22.59-16.94l4.71-.27S60.22,94.78,60,112.8l-8.07,3.49S32.73,118.11,25,103.38Z"/><path class="cls-14" d="M45.7,88.86C36.82,85.1,27.14,92.63,25.26,101a38.89,38.89,0,0,0-.05,14L21.76,141.3s5.11,4,23.67,4.84c0,0,6.42-21.78,7.53-30.65C54.3,104.73,56.66,93.51,45.7,88.86Z"/><path class="cls-11" d="M105.54,172.53h.15S105.54,172.53,105.54,172.53Z"/><path class="cls-15" d="M52.29,86.17l-4.71.27c-11.54-.14-17.19,4.62-20,9.13,3.85-5.76,11.2-9.62,18.08-6.71,11,4.65,8.6,15.87,7.26,26.63,0,.11,0,.23-.05.36l7-3C60.22,94.78,52.29,86.17,52.29,86.17Z"/><path class="cls-16" d="M53,96,45,97.27c-6.25,1.21-7.86,8.26-7.86,8.26l-5,39.22.75.13.15,0,1.05.17.17,0,1.12.16.15,0,1.22.16h.12c.43.06.88.11,1.34.15h0l1.49.15,1.63.13c.56,0,1.13.08,1.7.12,1.5-12.45,1.7-40.08,1.7-40.08.2-3.83,3.84-4.24,9.08-5.45A11.84,11.84,0,0,0,53,96Z"/><path class="cls-17" d="M93,65.79s-7.82-5.53-14.24-6.32-15.46.17-15.46.17l1.78,5.21S79.9,75.17,93,65.79Z"/><path class="cls-13" d="M85.05,80.69s-2.08-.29-5.7-.62-12.74-3.52-14.61-5.31c-2.79-2.67-4.6-3.48-8.27-4.8.64-1.06.62-1.09,4.81-3.56,2-1.2,13.19-.29,17.64,3.1A16.77,16.77,0,0,1,85.05,80.69Z"/><path class="cls-13" d="M106.08,81.87s-2.3,5.79-8.17,6.52c-8,1-13.18-6.73-15.49-12.81-1.08-2.85-2.86-6-4.85-6.89,0,0,2.61.53,8.07-1.07,3.78-1.11,7.18-2.38,11.23-1.45S108.83,71.57,106.08,81.87Z"/><path class="cls-5" d="M66.38,64.59s3.93.61,7.43,6.25,2.42,8.07,8.6,10.22c5.64,2-12.64,8.07-12.64,8.07L60.9,70.57Z"/><path class="cls-6" d="M73.81,70.84c-3.5-5.64-7.43-6.25-7.43-6.25l-.63.69c.31.19.72.43,1.23.71q-.95-.08-1.8-.09L60.9,70.57l.85,1.78a19.36,19.36,0,0,1,3,2.41c1.87,1.79,11,5,14.61,5.31l.9.08C76.44,78.19,76.82,75.72,73.81,70.84Z"/><path class="cls-11" d="M63.89,59.58s-.6,2.75,2.49,5c7.43,5.45,6.41,9.23,10.39,17A154.53,154.53,0,0,0,87.52,99s-4.51,3.55-9.94,2.88c0,0-7.24-8.1-10.73-12s-9.47-10.91-10.58-13.6a58.25,58.25,0,0,1-2.86-10.86C53.5,61.74,56.42,60.11,63.89,59.58Z"/><polygon class="cls-18" points="84.46 106.86 77.11 106.86 62.98 106.86 62.98 112.28 76.57 112.28 90.93 112.28 108.26 112.28 108.26 106.86 84.46 106.86"/><polygon class="cls-18" points="62.84 117.67 64.95 120.27 64.95 98.86 62.84 101.47 62.84 117.67"/><polygon class="cls-19" points="74.9 117.67 72.79 120.27 72.79 98.86 74.9 101.47 74.9 117.67"/><rect class="cls-20" x="64.95" y="115.02" width="7.84" height="5.25"/><rect class="cls-19" x="64.95" y="98.86" width="7.84" height="5.25"/><rect class="cls-18" x="64.95" y="104.11" width="7.84" height="10.91"/><polygon class="cls-18" points="96.34 117.67 98.45 120.27 98.45 98.86 96.34 101.47 96.34 117.67"/><polygon class="cls-19" points="108.41 117.67 106.29 120.27 106.29 98.86 108.41 101.47 108.41 117.67"/><rect class="cls-20" x="98.45" y="115.02" width="7.84" height="5.25"/><rect class="cls-19" x="98.45" y="98.86" width="7.84" height="5.25"/><rect class="cls-18" x="98.45" y="104.11" width="7.84" height="10.91"/><path class="cls-11" d="M79.07,113.53H91.85c.73-.77.85-.87,1-1.25a32.23,32.23,0,0,0-.81-7.17c-1.13-1.77-5.29-7.37-6.64-9.39l-8.07,4.71-.13,5.24a53,53,0,0,1,1.15,6.61Z"/><path class="cls-21" d="M92,105.11c-1.13-1.77-5.29-7.37-6.64-9.39l-.07,0A141.69,141.69,0,0,1,76.77,81.6c-4-7.78-3-11.56-10.39-17-3.09-2.26,4.86,4.1,8.56,18.38a141.69,141.69,0,0,0,8.53,14.16l.07,0c1.35,2,5.51,7.62,6.64,9.4a32.32,32.32,0,0,1,.81,7h.86c.73-.77.85-.87,1-1.25A32.23,32.23,0,0,0,92,105.11Z"/><path class="cls-11" d="M91.16,109.34h.15S91.16,109.34,91.16,109.34Z"/><path class="cls-5" d="M78.32,112.28l1,1.66a1.89,1.89,0,0,0,1.43.87,82.14,82.14,0,0,0,9.43,0,2.55,2.55,0,0,0,1.55-.74,7.48,7.48,0,0,0,1.1-1.79Z"/><path class="cls-17" d="M106.35,75.15c-1.18-5.17-5.65-7.83-8.71-8.77a10.25,10.25,0,0,0-8.5,3.93c-3.77,5.11,3.49,10.48,7.53,11C101.76,82,105.54,80.79,106.35,75.15Z"/><path class="cls-5" d="M66.85,89.85c3.26,3.63-5.68-8.25-8.1-12s-1.35-5.65-2.42-8.07a18,18,0,0,0-2.92-4.38,58.25,58.25,0,0,0,2.86,10.86C57.38,78.94,63.37,86,66.85,89.85Z"/><rect class="cls-22" x="55.2" y="45.04" width="14.31" height="4.77"/><rect class="cls-22" x="55.2" y="12.63" width="14.31" height="28.89"/><polygon class="cls-22" points="49.77 16.46 62.35 0 74.93 16.46 49.77 16.46"/><path class="cls-6" d="M87.86,84.56s2.82,3.63,8.87,3.7c0,0-4.57,1.61-7.86.53Z"/></g></g></svg>