<svg xmlns="http://www.w3.org/2000/svg" viewBox="0 0 103.55 176.29"><defs><style>.cls-1{fill:silver;}.cls-2{fill:#acacac;}.cls-3{fill:#909090;}.cls-4{fill:#ddbaa1;}.cls-5{fill:#d6ab8c;}.cls-6{fill:#d1a07d;}.cls-7{fill:#b37b55;}.cls-8{fill:#e2c4af;}.cls-9{fill:#d8af92;}.cls-10{fill:#c69575;}.cls-11{fill:#dab498;}.cls-12{fill:#e4c9b5;}.cls-13{fill:#dbb69c;}.cls-14{fill:#e8d1c1;}.cls-15{fill:#d9d8ec;}.cls-16{fill:#3a3c3b;}.cls-17{fill:#1c1b16;}.cls-18{fill:#4d4f4e;}.cls-19{fill:#d4a685;}.cls-20{fill:#2f2924;}.cls-21{fill:#151515;}.cls-22{fill:#28b0b8;}.cls-23{fill:#fcbe76;}.cls-24{fill:#bdbdbe;}</style></defs><title>traction2</title><g id="Calque_2" data-name="Calque 2"><g id="Layer_2" data-name="Layer 2"><rect class="cls-1" x="3.97" y="14.54" width="95.61" height="2.43"/><rect class="cls-2" x="3.97" y="15.28" width="95.61" height="0.95"/><rect class="cls-3" x="45.21" y="14.54" width="13.11" height="2.43"/><polygon class="cls-3" points="14.02 16.97 19.94 16.97 16.62 14.54 16.45 14.54 14.02 16.97"/><polygon class="cls-3" points="77.38 16.97 83.31 16.97 79.99 14.54 79.81 14.54 77.38 16.97"/><path class="cls-4" d="M71.66,30.55s5,2.1,7.1,10A15.36,15.36,0,0,1,79.08,47c-4.32-2.3-11.85-4.63-13.72-15.17C63.87,23.5,71.66,30.55,71.66,30.55Z"/><path class="cls-5" d="M76.76,35.22c2.11-7.16,2.1-7.34,2.83-14l5.76.84a67.44,67.44,0,0,0-.36,9c0,2.38.47,7.31-1.51,12.06-.51,1.24-1.12,2.21-1.42,3a2.12,2.12,0,0,1-3,.94C78,46.53,74.82,41.83,76.76,35.22Z"/><path class="cls-4" d="M77.84,34.73a80.86,80.86,0,0,0,3.21-14.87l3.48.51S84,26.91,84,32.43c0,1.86-.66,9.81-2,12.12-.4.67-1.52.83-2.67.12C78.48,44.17,76.32,39.9,77.84,34.73Z"/><path class="cls-5" d="M71.66,30.55s5,2.1,7.1,10a15.13,15.13,0,0,1,.52,3.38,2,2,0,0,1-2.83,1.84c-4.25-2.11-9.56-5.25-11.09-13.86C63.87,23.5,71.66,30.55,71.66,30.55Z"/><path class="cls-6" d="M76.45,45.73l-.17-.09L76,45.48l-.16-.08-.31-.16-.16-.09L75,45l-.13-.07-.47-.27-.09-.05c-.13-.07-.26-.14-.38-.22l-.16-.1-.32-.19L73.26,44l-.33-.21-.15-.11-.43-.29,0,0L71.84,43l-.14-.11-.32-.26-.17-.13-.3-.26-.16-.14-.33-.31-.12-.11-.44-.43-.09-.1-.33-.37-.15-.16L69,40.26l-.15-.18-.28-.36-.12-.17c-.13-.17-.25-.35-.37-.53s-.27-.41-.38-.61a1.74,1.74,0,0,1-.11-.18l-.25-.43-.12-.23c-.07-.15-.15-.29-.22-.44l-.11-.23c-.08-.17-.16-.34-.23-.52l-.08-.17c-.1-.24-.19-.48-.28-.72l-.06-.18c-.07-.19-.14-.39-.2-.59L66,34.45l-.15-.54c0-.09,0-.19-.08-.29s-.1-.39-.14-.59,0-.18-.07-.27c-.06-.29-.12-.58-.17-.89A7.34,7.34,0,0,1,65.27,29l5.29,3.33s-2.85,2.13.81,7c2.88,3.84,5.46,3.91,7.82,5.31L79.08,47C78.29,46.62,77.4,46.2,76.45,45.73Z"/><path class="cls-4" d="M69,30.22s.72-1.35,1.55-1.08l1.14,1.41a4.15,4.15,0,0,0,2.06.16,15.55,15.55,0,0,1,5,9.8,18.23,18.23,0,0,0-6.11-8.34A16.8,16.8,0,0,0,69,30.22Z"/><path class="cls-7" d="M65.18,29.67l3.79.55a4.4,4.4,0,0,1-.12.43,12.22,12.22,0,0,0,1.62,11c.09.13.18.26.28.38a17,17,0,0,1-5.39-10.19A9.29,9.29,0,0,1,65.18,29.67Z"/><path class="cls-8" d="M80.71,16.82a.9.9,0,0,0,.9-.91V14a.91.91,0,1,0-1.81,0v1.94A.91.91,0,0,0,80.71,16.82Z"/><path class="cls-8" d="M82.53,16.82a.9.9,0,0,0,.9-.91V14a.91.91,0,1,0-1.81,0v1.94A.91.91,0,0,0,82.53,16.82Z"/><path class="cls-8" d="M84.33,16.82a.91.91,0,0,0,.91-.91V14a.91.91,0,1,0-1.82,0v1.94A.91.91,0,0,0,84.33,16.82Z"/><path class="cls-8" d="M86.17,17.32a.91.91,0,0,0,.91-.91V14.47a.91.91,0,1,0-1.82,0v1.94A.91.91,0,0,0,86.17,17.32Z"/><path class="cls-4" d="M51.79,20.82s14.87.77,14.87,2.86c0,0,1,1.51-.34,7a60,60,0,0,1-1.88,8.63s-2.5,8.45-2.51,8.4A79,79,0,0,0,51.79,61.44Z"/><path class="cls-9" d="M58,52.38a86,86,0,0,0-5,7.11H51.79V37.89S54.12,44.3,58,48.43Z"/><path class="cls-6" d="M64.14,32.87c.17-1.94,2.18-2.21,1.8.15-.33,1.73-.85,4.12-1.5,6.27,0,0-2.5,8.45-2.51,8.4s-5,5.68-8.55,10.77C56.48,43.34,63,46.74,64.14,32.87Z"/><path class="cls-7" d="M65,23.84c0,.32.64,1,1.3,1.87,0,1.06,0,6.56-.49,8.55,0,.45-.63.46-1.14.65a8.88,8.88,0,0,1-2.88.1c-1.68-.23-4-.44-5.75-2.5l.33-5.23a13.43,13.43,0,0,0,3.06-3.18Z"/><path class="cls-4" d="M64.11,22.37l-5.57.26a28.42,28.42,0,0,0-3.17,1.71v9c1.92.47,4.24.86,5.42,1a8.6,8.6,0,0,0,8.74-5C69.63,29.09,64.13,23.45,64.11,22.37Z"/><path class="cls-10" d="M62.93,55.64c0,2.09-11.14,17-11.14,17V61.44A79,79,0,0,1,61.93,47.69C61.87,48.1,62.91,55.36,62.93,55.64Z"/><path class="cls-4" d="M52.2,59.93a20,20,0,0,1,6-8.4s3.48-1.85,3.8,6S52.2,59.93,52.2,59.93Z"/><path class="cls-11" d="M77.11,17H78a2.17,2.17,0,0,0,1.77-.88l.1-.06a1.73,1.73,0,0,1,1.73.06,1.85,1.85,0,0,1,1.86,0,1.71,1.71,0,0,1,1.76,0,.13.13,0,0,0,.1,0,1.41,1.41,0,0,1,1.73.47,30.86,30.86,0,0,1-.44,3.21,9.35,9.35,0,0,1-1.37,2.64,11.44,11.44,0,0,0-5.53-.19l-2.26-2.56a1.65,1.65,0,0,1-.37-1.37Z"/><path class="cls-4" d="M58.44,11.42c-.42.86-1.29,1.84-2,1.25-.42-.34,0-1.69.41-2.56s1.1-1.4,1.6-1.18S58.84,10.57,58.44,11.42Z"/><polygon class="cls-5" points="56.33 13.81 57.11 11.9 56.82 10.11 54.9 10.09 56.33 13.81"/><path class="cls-10" d="M51.79,8.72V23.23c2.26.18,4.5-.07,4.73-.86V10.57Z"/><path class="cls-10" d="M51.76,8.72V23.23c2.26.18,4.5-.07,4.73-.86V10.57Z"/><path class="cls-11" d="M63.55,21.48a26,26,0,0,0-4.24-2.17c-2.14-.81-4.55-1-4.55-3.32V11.86h-3v26a27.11,27.11,0,0,0,5.75-6.34C60.12,27.22,60.16,23.92,63.55,21.48Z"/><path class="cls-12" d="M59.31,19.31a26,26,0,0,1,4.24,2.17,9.09,9.09,0,0,0-1.73,1.64c0-1.13-5.4-4.64-8.44-2.41-2.05,1.5-.05-1.61,1.46-4C55.29,18.33,57.41,18.59,59.31,19.31Z"/><path class="cls-5" d="M54.76,11.86V16c0,1.65,1.26,2.22,2.77,2.72a6.67,6.67,0,0,0-5.74,4.52V11.86Z"/><path class="cls-13" d="M63.54,21c2.95-.52,9.68-.57,10.18,9.67,0,0-6.92-.25-9.06-2.92C63,25.68,62,24.29,61.89,23.18A2,2,0,0,1,63.54,21Z"/><path class="cls-14" d="M63.54,21a8.59,8.59,0,0,1,6.93,1.44l.07.05.17.14.14.14L71,23l.15.16.14.15.15.18c0,.05.09.1.13.16l.15.2.12.17c0,.07.09.14.14.21l.11.18.14.24a1.62,1.62,0,0,0,.1.18l.13.27.09.19c0,.1.09.19.13.3a1.34,1.34,0,0,1,.07.18c0,.11.09.22.13.33a16.19,16.19,0,0,1,.84,4.65,5,5,0,0,1-1.87-.38s1.56-4.41-2.25-7.12c-3.48-2.47-7.71,0-7.71,0A2,2,0,0,1,63.54,21Z"/><path class="cls-5" d="M71.66,30.55s2.44-3.89-1.2-8.08c1.71,1.38,3.05,3.88,3.26,8.24A4.15,4.15,0,0,1,71.66,30.55Z"/><path class="cls-7" d="M78.76,40.51a19.2,19.2,0,0,0-1.88-5.81c.18-.59.33-1.13.48-1.63C78.83,35.94,78.76,40.51,78.76,40.51Z"/><path class="cls-8" d="M82.47,42.27c.22-1.65,1.21-3.65,1.32-8.29s.45-12.06.45-12.06a8,8,0,0,0,2.06-2.86,10.57,10.57,0,0,0,.78-2.54,30.86,30.86,0,0,1-.44,3.21,8.76,8.76,0,0,1-1.32,2.56A78.3,78.3,0,0,0,85,31.08c0,2.38.47,7.31-1.51,12.06-.51,1.24-1.12,2.21-1.42,3C82.06,46.1,82.25,43.93,82.47,42.27Z"/><path class="cls-6" d="M77.11,18.25V17H78a4.76,4.76,0,0,1,0,.95c0,1.25,1.59,2.11,1.92,2.41a1.92,1.92,0,0,1,.75,1.7c-.6.08-1,.16-1,.16s-.7-.7-2.26-2.56A1.69,1.69,0,0,1,77.11,18.25Z"/><path class="cls-10" d="M38.75,78.48a98.63,98.63,0,0,0,.44,11.06s.65,8.25,4.62,8.13c1.55.3,4.89-.76,5.64-6.29.14-1.07.78-6.82,1.47-12.9Z"/><path class="cls-7" d="M50.06,86.85l-2.35-6.58-9.05,2.37c.09,2,.25,4.25.48,6.76l0,.14C39.12,89.84,48.4,88.06,50.06,86.85Z"/><path class="cls-5" d="M45.62,105.72A54,54,0,0,0,43,100.63c-1.17-2.06-2.8-3-3.46-6.85a4.28,4.28,0,0,1,4.5-5.16c2.2.19,5.45,1.32,6,6,.29,2.28.75,4.32.22,5.75C49.14,103.59,45.62,105.72,45.62,105.72Z"/><path class="cls-6" d="M46.47,104.27a52.58,52.58,0,0,0-2.58-5.09c-1.17-2.06-2.8-3-3.46-6.86a4.69,4.69,0,0,1,.1-2.27,4.18,4.18,0,0,0-1,3.73c.66,3.83,2.29,4.79,3.46,6.85a54,54,0,0,1,2.58,5.09,12.87,12.87,0,0,0,4.51-4.87A13.92,13.92,0,0,1,46.47,104.27Z"/><path class="cls-15" d="M45,97.91s-.89.81-.91,4.66-1.89,7.27-1.62,11,5.3-3.12,5.3-3.12l0-8.84Z"/><path class="cls-15" d="M51,97s1.1.19.67,5.2a46,46,0,0,0-.13,5.75c.07,2.1.13,4.79,0,6.71-.25,3.62-5.51-4.8-5.51-4.8l2.06-9.63Z"/><path class="cls-16" d="M48.62,95.69s-3.68-.57-4.11,3.81.62,5.33-.55,7.83c-1.08,2.3-2,4.68-1.48,7.59s2,5.29,4.51,5.8c2.32.48,4.29-1.62,4.57-5.68s-1.7-6.46-1.51-8,1.2-4.17,1.44-6.07S52.17,96.36,48.62,95.69Z"/><path class="cls-17" d="M45.33,106.91a.85.85,0,0,0,.26-.94,16.76,16.76,0,0,1-1-6.9c0,.14,0,.28-.05.43-.43,4.38.62,5.33-.55,7.83a15.35,15.35,0,0,0-1.58,4.88A9.81,9.81,0,0,1,45.33,106.91Z"/><path class="cls-17" d="M51.56,115c.27-4.06-1.7-6.46-1.51-8s1.2-4.17,1.44-6.07l0-.25a18.19,18.19,0,0,1-1.3,3.77,14.63,14.63,0,0,0-.76,2.1c-.11.65-.07,1.35.71,3.14a12.48,12.48,0,0,1,1.38,5.41S51.56,115.06,51.56,115Z"/><path class="cls-18" d="M50.23,113.56c.19,2.91-1.07,5.36-2.82,5.48s-3.33-2.15-3.52-5.05,1.06-5.36,2.81-5.47S50,110.66,50.23,113.56Z"/><path class="cls-18" d="M50.41,100.77c-.24,2.23-1.43,4.29-2.86,4s-2.19-2.26-2-4.5,1.27-3.63,2.72-3.48C50.24,97,50.66,98.44,50.41,100.77Z"/><path class="cls-4" d="M31.89,30.55s-5,2.1-7.1,10A15.36,15.36,0,0,0,24.47,47c4.32-2.3,11.85-4.63,13.72-15.17C39.68,23.5,31.89,30.55,31.89,30.55Z"/><path class="cls-5" d="M26.79,35.22c-2.11-7.16-2.1-7.34-2.83-14l-5.76.84a67.44,67.44,0,0,1,.36,9c0,2.38-.47,7.31,1.51,12.06.51,1.24,1.12,2.21,1.42,3a2.12,2.12,0,0,0,3,.94C25.57,46.53,28.73,41.83,26.79,35.22Z"/><path class="cls-4" d="M25.71,34.73A80,80,0,0,1,22.5,19.86L19,20.37s.54,6.54.55,12.06c0,1.86.66,9.81,2,12.12.4.67,1.52.83,2.67.12C25.07,44.17,27.23,39.9,25.71,34.73Z"/><path class="cls-5" d="M31.89,30.55s-5,2.1-7.1,10a15.13,15.13,0,0,0-.52,3.38,2,2,0,0,0,2.83,1.84c4.25-2.11,9.56-5.25,11.09-13.86C39.68,23.5,31.89,30.55,31.89,30.55Z"/><path class="cls-6" d="M27.1,45.73l.17-.09.32-.16.17-.08.3-.16.17-.09.34-.18.13-.07.47-.27.09-.05c.13-.07.26-.14.38-.22l.16-.1.32-.19.17-.11.32-.21.16-.11.43-.29,0,0,.47-.35.14-.11.32-.26.17-.13.3-.26.16-.14.33-.31.12-.11.44-.43.09-.1.33-.37.15-.16.27-.33.15-.18.27-.36.13-.17c.13-.17.25-.35.37-.53s.26-.41.38-.61a1.74,1.74,0,0,0,.11-.18c.08-.15.17-.29.25-.43l.12-.23.22-.44.11-.23c.08-.17.15-.34.23-.52a1.3,1.3,0,0,1,.08-.17l.28-.72.06-.18c.07-.19.14-.39.2-.59a2.76,2.76,0,0,0,.08-.27c.06-.18.11-.35.16-.54s.05-.19.08-.29.1-.39.14-.59l.06-.27c.07-.29.13-.58.18-.89a8.58,8.58,0,0,0-.26-3.29l-5.62,2.47s4.08,2.34-.13,8.31c-2.77,3.92-5.46,3.91-7.82,5.31L24.47,47C25.26,46.62,26.15,46.2,27.1,45.73Z"/><path class="cls-4" d="M34.57,30.22s-.72-1.35-1.54-1.08l-1.14,1.41a4.15,4.15,0,0,1-2.06.16,15.55,15.55,0,0,0-5,9.8,18.23,18.23,0,0,1,6.11-8.34A17,17,0,0,1,34.57,30.22Z"/><path class="cls-7" d="M38.37,29.67,36,29.78s1.54,6.89-2.91,11.9c-.1.12-.18.26-.28.38a17,17,0,0,0,5.39-10.19A9.85,9.85,0,0,0,38.37,29.67Z"/><path class="cls-8" d="M22.84,16.82a.91.91,0,0,1-.91-.91V14a.91.91,0,0,1,1.82,0v1.94A.91.91,0,0,1,22.84,16.82Z"/><path class="cls-8" d="M21,16.82a.91.91,0,0,1-.91-.91V14a.91.91,0,0,1,1.82,0v1.94A.91.91,0,0,1,21,16.82Z"/><path class="cls-8" d="M19.22,16.82a.91.91,0,0,1-.91-.91V14a.91.91,0,1,1,1.81,0v1.94A.9.9,0,0,1,19.22,16.82Z"/><path class="cls-8" d="M17.38,17.32a.91.91,0,0,1-.91-.91V14.47a.91.91,0,0,1,1.82,0v1.94A.91.91,0,0,1,17.38,17.32Z"/><path class="cls-5" d="M51.76,20.82s-14.87.77-14.87,2.86c0,0-1,1.51.34,7a60,60,0,0,0,1.88,8.63s2.5,8.45,2.51,8.4A79,79,0,0,1,51.76,61.44Z"/><path class="cls-19" d="M45.6,52.38a86,86,0,0,1,5,7.11h1.18V37.89S49.43,44.3,45.6,48.43Z"/><path class="cls-10" d="M40.44,32.87c-.17-1.94-3.9-2.5-3.51-.15.32,1.74,1,4.61,1.6,6.76,0,0,3.08,8.26,3.09,8.21s5,5.68,8.55,10.77C47.07,43.34,41.62,46.74,40.44,32.87Z"/><path class="cls-7" d="M37.67,23.84c0,.32-.64,1-1.31,1.87,0,1.06,0,6.56.5,8.55,0,.45.63.46,1.14.65a8.88,8.88,0,0,0,2.88.1c1.68-.23,4-.44,5.75-2.5l-.33-5.23a13.43,13.43,0,0,1-3.06-3.18Z"/><path class="cls-11" d="M50.28,25.81A27.62,27.62,0,0,0,45,22.63l-5.57-.26c0,1.08-3.61,6.7-3.58,7a6,6,0,0,0,6.9,5,43,43,0,0,0,7.52-1.65Z"/><path class="cls-7" d="M40.61,55.64c0,2.09,11.15,17,11.15,17V61.44A79,79,0,0,0,41.62,47.69C41.68,48.1,40.64,55.36,40.61,55.64Z"/><path class="cls-5" d="M51.35,59.93a20,20,0,0,0-6.05-8.4s-3.49-1.85-3.81,6S51.35,59.93,51.35,59.93Z"/><path class="cls-11" d="M26.44,17h-.92a2.17,2.17,0,0,1-1.77-.88l-.1-.06a1.73,1.73,0,0,0-1.73.06,1.85,1.85,0,0,0-1.86,0,1.71,1.71,0,0,0-1.76,0,.13.13,0,0,1-.1,0,1.41,1.41,0,0,0-1.73.47,28.34,28.34,0,0,0,.44,3.21,9.35,9.35,0,0,0,1.37,2.64,11.44,11.44,0,0,1,5.53-.19l2.26-2.56a1.65,1.65,0,0,0,.37-1.37Z"/><path class="cls-10" d="M45.11,11.42c.42.86,1.29,1.84,2,1.25.42-.34,0-1.69-.41-2.56s-1.11-1.4-1.6-1.18S44.71,10.57,45.11,11.42Z"/><polygon class="cls-10" points="47.21 13.81 46.44 11.9 46.73 10.11 48.65 10.09 47.21 13.81"/><path class="cls-7" d="M51.76,8.72V23.23c-2.27.18-4.51-.07-4.73-.86V10.57Z"/><path class="cls-5" d="M40,21.48a26.36,26.36,0,0,1,4.25-2.17c2.14-.81,4.55-1,4.55-3.32V11.86h3v26A27.11,27.11,0,0,1,46,31.55C43.43,27.22,43.39,23.92,40,21.48Z"/><path class="cls-4" d="M44.24,19.31A26.36,26.36,0,0,0,40,21.48a8.87,8.87,0,0,1,1.74,1.64c0-1.13,5.4-4.64,8.44-2.41,2,1.5,0-1.61-1.47-4C48.26,18.33,46.14,18.59,44.24,19.31Z"/><path class="cls-6" d="M48.79,11.86V16c0,1.65-1.26,2.22-2.77,2.72a6.67,6.67,0,0,1,5.74,4.52V11.86Z"/><path class="cls-20" d="M49.52.35a5.36,5.36,0,0,0-3.93,4.48V7.58A5.19,5.19,0,0,0,46.16,10l2.34,4.59s.4-.12,1-.26a10.35,10.35,0,0,1,4.5,0c.61.14,1,.27,1,.26L57.36,10a5.31,5.31,0,0,0,.57-2.38V4.83A5.38,5.38,0,0,0,54,.35,7.26,7.26,0,0,0,49.52.35Z"/><path class="cls-13" d="M40,21c-2.95-.52-9.68-.57-10.18,9.67,0,0,4,1.25,8.9-2.93,2.21-1.87,2.81-3.49,2.93-4.6A2,2,0,0,0,40,21Z"/><path class="cls-10" d="M24.79,40.51a19.2,19.2,0,0,1,1.88-5.81c-.18-.59-.33-1.13-.48-1.63C24.72,35.94,24.79,40.51,24.79,40.51Z"/><path class="cls-8" d="M21.08,42.27c-.22-1.65-1.22-3.65-1.33-8.29s-.44-12.06-.44-12.06a8,8,0,0,1-2.06-2.86,10.57,10.57,0,0,1-.78-2.54,28.34,28.34,0,0,0,.44,3.21,9,9,0,0,0,1.31,2.56,76.61,76.61,0,0,1,.34,8.79c0,2.38-.47,7.31,1.51,12.06.51,1.24,1.12,2.21,1.42,3C21.49,46.1,21.3,43.93,21.08,42.27Z"/><path class="cls-21" d="M40.86,54.35s-2.19,3.41-3.49,13.89l1,17.61s2.77,3.45,12.39.91l1-12.82,0-17S43.4,56.56,40.86,54.35Z"/><path class="cls-10" d="M64.78,78.48a98.42,98.42,0,0,1-.43,11.06s-.66,8.25-4.62,8.13c-1.56.3-4.9-.76-5.64-6.29-.15-1.07-.78-6.82-1.48-12.9Z"/><path class="cls-7" d="M64.56,86.91q0-.73.09-1.44v-5.2L53.09,82.64v.06c.32,2.79.59,5.25.78,6.87C55.35,89.49,62.87,88,64.56,86.91Z"/><path class="cls-16" d="M62.67,54.35s2.2,3.19,3.49,13.67l-1,17.83s-2.76,3.45-12.39.91l-1-12.82,0-17S60.13,56.56,62.67,54.35Z"/><path class="cls-5" d="M57.91,105.72a54,54,0,0,1,2.58-5.09c1.17-2.06,2.8-3,3.47-6.85a4.28,4.28,0,0,0-4.5-5.16c-2.2.19-5.46,1.32-6.05,6-.29,2.28-.74,4.32-.22,5.75C54.39,103.59,57.91,105.72,57.91,105.72Z"/><path class="cls-6" d="M57.06,104.27a55.62,55.62,0,0,1,2.58-5.09c1.17-2.06,2.81-3,3.47-6.86A4.81,4.81,0,0,0,63,90.05a4.18,4.18,0,0,1,1,3.73c-.67,3.83-2.3,4.79-3.47,6.85a54,54,0,0,0-2.58,5.09,12.8,12.8,0,0,1-4.5-4.87A14,14,0,0,0,57.06,104.27Z"/><path class="cls-15" d="M58.54,97.91s.9.81.91,4.66,1.9,7.27,1.63,11-5.3-3.12-5.3-3.12l0-8.84Z"/><path class="cls-15" d="M52.52,97s-1.09.19-.66,5.2a48,48,0,0,1,.13,5.75c-.08,2.1-.13,4.79,0,6.71.25,3.62,5.51-4.8,5.51-4.8l-2.06-9.63Z"/><path class="cls-16" d="M54.92,95.69S58.6,95.12,59,99.5s-.63,5.33.55,7.83c1.07,2.3,2,4.68,1.47,7.59s-2,5.29-4.5,5.8c-2.32.48-4.3-1.62-4.57-5.68s1.7-6.46,1.5-8-1.2-4.17-1.43-6.07S51.36,96.36,54.92,95.69Z"/><path class="cls-17" d="M58.2,106.91A.84.84,0,0,1,58,106a17,17,0,0,0,1-6.9l.06.43c.43,4.38-.63,5.33.55,7.83a15.87,15.87,0,0,1,1.58,4.88A9.77,9.77,0,0,0,58.2,106.91Z"/><path class="cls-17" d="M52,115c-.28-4.06,1.7-6.46,1.5-8s-1.2-4.17-1.43-6.07a2.17,2.17,0,0,1,0-.25,18.39,18.39,0,0,0,1.31,3.77,13.75,13.75,0,0,1,.75,2.1c.12.65.07,1.35-.7,3.14A12.48,12.48,0,0,0,52,115.11Z"/><path class="cls-18" d="M53.31,113.56c-.2,2.91,1.07,5.36,2.82,5.48s3.33-2.15,3.52-5.05-1.07-5.36-2.82-5.47S53.5,110.66,53.31,113.56Z"/><path class="cls-18" d="M53.12,100.77c.24,2.23,1.44,4.29,2.86,4s2.2-2.26,2-4.5-1.27-3.63-2.72-3.48C53.3,97,52.87,98.44,53.12,100.77Z"/><path class="cls-6" d="M26.44,18.25V17h-.92a4.76,4.76,0,0,0,0,.95c0,1.25-1.59,2.11-1.92,2.41a1.93,1.93,0,0,0-.76,1.7c.61.08,1,.16,1,.16s.7-.7,2.26-2.56A1.69,1.69,0,0,0,26.44,18.25Z"/><path class="cls-8" d="M40,21a8.61,8.61,0,0,0-6.94,1.44l-.07.05a1.07,1.07,0,0,1-.16.14l-.15.14-.15.15a1.07,1.07,0,0,0-.14.16l-.14.15-.15.18a1,1,0,0,0-.13.16l-.15.2-.12.17-.14.21-.11.18c-.05.08-.1.16-.14.24l-.1.18-.13.27-.09.19a2.71,2.71,0,0,0-.13.3l-.08.18-.12.33a15.85,15.85,0,0,0-.84,4.65,3.05,3.05,0,0,0,2,.16S30.14,25.92,34,23.21c3.47-2.47,7.71,0,7.71,0A2,2,0,0,0,40,21Z"/><path class="cls-22" d="M39.11,67.6l-1-4.33c-.29,1.47-.56,3.12-.79,5l1,17.61a5,5,0,0,0,2.22,1.29Z"/><path class="cls-22" d="M64.43,67.38,65.37,63c.29,1.48.57,3.13.79,5l-1,17.83A4.93,4.93,0,0,1,63,87.14Z"/><rect class="cls-23" x="19.33" y="92.26" width="7.91" height="2.63"/><rect class="cls-23" x="19.33" y="77.27" width="7.91" height="13.05"/><polygon class="cls-23" points="30.23 79.38 23.28 70.29 16.33 79.38 30.23 79.38"/><rect class="cls-23" x="76.31" y="92.26" width="7.91" height="2.63"/><rect class="cls-23" x="76.31" y="77.27" width="7.91" height="13.05"/><polygon class="cls-23" points="87.22 79.38 80.27 70.29 73.32 79.38 87.22 79.38"/><rect class="cls-24" y="10.93" width="4.59" height="165.37"/><rect class="cls-24" x="98.96" y="10.93" width="4.59" height="165.37"/></g></g></svg>