<svg xmlns="http://www.w3.org/2000/svg" viewBox="0 0 270.31 620.53"><defs><style>.cls-1{isolation:isolate;}.cls-2{fill:#d6ab8c;}.cls-3{fill:#ddbaa1;}.cls-4{fill:#c69575;}.cls-5{fill:#b37b55;}.cls-6{fill:#e2c4af;}.cls-7{fill:#2d241f;}.cls-8{fill:#9c6a51;}.cls-9{mix-blend-mode:multiply;}.cls-10{fill:#e8c9af;}.cls-11{fill:#2f2f2f;}.cls-12{fill:#cbcbcb;}.cls-13{fill:#ededed;}.cls-14{fill:#767676;}.cls-15{fill:#fcbe76;}.cls-16{fill:#bdbdbe;}.cls-17{fill:#a6a6a8;}.cls-18{fill:#4c4c4e;}.cls-19{fill:#78787a;}.cls-20{fill:#3a3c3b;}.cls-21{fill:#151515;}.cls-22{fill:#c08a67;}.cls-23{fill:#313131;}.cls-24{fill:#28b0b8;}.cls-25{fill:#d9d8ec;}.cls-26{fill:#c6c5e3;}</style></defs><title>up_raise</title><g class="cls-1"><g id="Calque_2" data-name="Calque 2"><g id="Layer_2" data-name="Layer 2"><path class="cls-2" d="M150.77,261.37s29.69,7.22,31.75,19.6c1.38,7.8-47.36-.51-47.36-.51V261.37Z"/><path class="cls-3" d="M183,286.48s8.41,29.22,1.5,54.27c-3.44,12.45-11.6,22.33-11,30.89.55,7.39,4.74,38.95,4.74,38.95,0,8.09-43.07,66.13-43.07,66.13V275.31S183,278.38,183,286.48Z"/><path class="cls-2" d="M177.81,407.38l-26.68,4.29s7.34-21.41,10.34-30.64a13.22,13.22,0,0,0-2.14-12.89c8.17-10.09,2.86-17.21,2.86-17.21a30,30,0,0,0,5.28-18.59l11.95,21.16c-3.22,6.78-6.33,12.73-5.93,18.14C173.93,377.59,176.73,399.18,177.81,407.38Z"/><path class="cls-2" d="M148.42,328.72s-9.83-2.86-13.26-2.86v-11Z"/><path class="cls-4" d="M135.16,455.55V382.12l2.11,1.78a5.54,5.54,0,0,0,3.47,1.22h7.54c8.47,0,11-.81,13.19-4.09C162,380.19,149,424.06,135.16,455.55Z"/><path class="cls-4" d="M138.9,284.73l3-1.75a13.82,13.82,0,0,1,7-1.93H170.7s9.67.52,14,12.26c0,0,12.47-7.09,13-1.86-1.24,8-10.49,40.95-12.79,49.3-2.78,10.07-9.28,19.68-11.09,27.05-.19.25-1.58-29.34-6.73-31.63,0,0-7.88-1.67-20.64-7.12a20.67,20.67,0,0,1-7.74-5.76l-3.52-4.3V291.45A7.71,7.71,0,0,1,138.9,284.73Z"/><path class="cls-2" d="M192.44,310.77A60.08,60.08,0,0,1,202.75,300c12.37-9.55,28.12-26,21.47-82.31A66.06,66.06,0,0,0,203,234.23c-7.41,8.6-11.83,43-12,47C190.64,292.17,192.44,310.77,192.44,310.77Z"/><path class="cls-5" d="M135.16,449c18.88-25.9,33.71-47.6,39.73-62.24,1.37,11.17,3.06,23.86,3.06,23.86,0,6-23.77,39.57-36,56.44l-6.79-1.52Z"/><path class="cls-5" d="M138.12,384.45a5.53,5.53,0,0,0-3,1.33v-3.66l2.11,1.78A5.14,5.14,0,0,0,138.12,384.45Z"/><path class="cls-5" d="M152.32,384.77s5.29,1.2,3.43,14.81L161.47,381S158.9,384.68,152.32,384.77Z"/><path class="cls-4" d="M139.65,339.73c4.88,1.31,11.14,3.23,16,4.66a13,13,0,0,0,7.94-.2c1.4-.5,2.39-1.47,4-2.37l-5.48,9.11a3.28,3.28,0,0,1-3.61.14,44.87,44.87,0,0,0-16.89-5.61,6,6,0,0,0-6.53,3.76V335.57A7.35,7.35,0,0,0,139.65,339.73Z"/><path class="cls-4" d="M139.18,360.68c4.38,1.14,10,2.8,14.38,4.05a12,12,0,0,0,7.12-.18c1.25-.43,1.82-1.87,3.3-2.65l-3.38,6.85a4.92,4.92,0,0,1-6.07,1.76,71.63,71.63,0,0,0-13.92-4c-1.81-.34-2.87-.72-4.29.13-.54.33-1.16,2.4-1.16,2.4v-12A6.46,6.46,0,0,0,139.18,360.68Z"/><path class="cls-6" d="M154,276.29c16.59-8,33.77-21.78,33.77-21.78s7.38,20-3,38.8c-9.16,16.6-13.31,31.12-21.47,31.12L151,324a14,14,0,0,1-10.65-4.93l-.32-.38a13.85,13.85,0,0,1-3.17-8.8V291.28c0-.22,0-.44,0-.67C137.18,287.42,137.37,284.32,154,276.29Z"/><polygon class="cls-6" points="153.95 246.46 153.95 276.29 135.16 284.06 135.16 248.05 153.95 246.46"/><path class="cls-7" d="M159.12,231.35v-17.9s-1.1-18.49-24-20.08V205.1l18.31,31.62Z"/><path class="cls-3" d="M156.93,231.55s.6-3.58,3.38-3.58,1.79,5.17,1.2,8.95-4.18,9-7.16,5.76S156.93,231.55,156.93,231.55Z"/><path class="cls-8" d="M135.16,262.67H139a4.56,4.56,0,0,0,3.17-1.29L154,249.84H135.16Z"/><path class="cls-6" d="M153.75,209.08l.6,8.95,2.58,6.56v11.73l-3,13.52-11.39,7.51a4.59,4.59,0,0,1-2.49.74h-4.91V202.92C147.88,202.92,153.75,209.08,153.75,209.08Z"/><g class="cls-9"><path class="cls-10" d="M142.43,257.35l7.74-5.1-15,31.81v-26h4.78A4.59,4.59,0,0,0,142.43,257.35Z"/></g><path class="cls-3" d="M198.74,219.15c-8.88-26.05,3.72-33.49-3.33-90.69l22.51-2.92a385.06,385.06,0,0,0,5.73,40.08c2.86,14.31,8,31.49,4.58,48.67-.47,2.34-30.11,28.31-36.08,30.92S200.05,223,198.74,219.15Z"/><path class="cls-4" d="M198.74,219.15c-8.66-25.42,3.12-33.13-2.86-86.62l9,1.74s3.87,80.59,3.3,82.31c-2.64,7.91-10.88,9.73-10.88,9.73l-.15-.43C198.33,222.75,199.09,220.19,198.74,219.15Z"/><path class="cls-3" d="M222.32,118l-34.92.29,9.41,23.11s6.63,2.07,8.08-6.54c5.8,7.08,12.79,4.32,14.33,2.7,0,0,3.1-9.17,3.1-13.06Z"/><path class="cls-2" d="M222.16,124.58h-8.82s-6.87.89-10.2,5.51v-11l19.11-1.22Z"/><path class="cls-2" d="M212.4,99.08s5.44.86,6,8-6.58,4-6.58,4Z"/><path class="cls-5" d="M202.28,133.17s2.87-11.47,12.6-14.62c7.8-2.53,0-4.58,0-4.58l-28.34-.58L184,126Z"/><rect class="cls-11" x="149.82" y="104.56" width="102.02" height="13.82"/><polygon class="cls-11" points="239 136.3 236.57 144.28 236.57 78.66 239 86.64 239 136.3"/><polygon class="cls-12" points="225.09 136.3 227.53 144.28 227.53 78.66 225.09 86.64 225.09 136.3"/><rect class="cls-11" x="227.53" y="128.2" width="9.04" height="16.09"/><rect class="cls-13" x="227.53" y="78.66" width="9.04" height="16.09"/><rect class="cls-14" x="227.53" y="94.75" width="9.04" height="33.45"/><polygon class="cls-14" points="246.56 127.78 245.24 133.02 245.24 89.93 246.56 95.17 246.56 127.78"/><polygon class="cls-12" points="239 127.78 240.33 133.02 240.33 89.93 239 95.17 239 127.78"/><rect class="cls-11" x="240.33" y="122.45" width="4.91" height="10.56"/><rect class="cls-13" x="240.33" y="89.93" width="4.91" height="10.56"/><rect class="cls-14" x="240.33" y="100.49" width="4.91" height="21.96"/><polygon class="cls-11" points="162.66 136.3 165.09 144.28 165.09 78.66 162.66 86.64 162.66 136.3"/><polygon class="cls-12" points="176.56 136.3 174.13 144.28 174.13 78.66 176.56 86.64 176.56 136.3"/><rect class="cls-11" x="165.09" y="128.2" width="9.04" height="16.09"/><rect class="cls-13" x="165.09" y="78.66" width="9.04" height="16.09"/><rect class="cls-14" x="165.09" y="94.75" width="9.04" height="33.45"/><polygon class="cls-14" points="155.09 127.78 156.41 133.02 156.41 89.93 155.09 95.17 155.09 127.78"/><polygon class="cls-12" points="162.65 127.78 161.33 133.02 161.33 89.93 162.65 95.17 162.65 127.78"/><rect class="cls-11" x="156.42" y="122.45" width="4.91" height="10.56"/><rect class="cls-13" x="156.42" y="89.93" width="4.91" height="10.56"/><rect class="cls-14" x="156.42" y="100.49" width="4.91" height="21.96"/><path class="cls-6" d="M191.78,119.43A3.43,3.43,0,0,0,195.2,116V102.44a3.43,3.43,0,1,0-6.85,0V116A3.43,3.43,0,0,0,191.78,119.43Z"/><path class="cls-6" d="M212.21,119.43a3.43,3.43,0,0,0,3.42-3.42V102.44a3.43,3.43,0,1,0-6.85,0V116A3.43,3.43,0,0,0,212.21,119.43Z"/><path class="cls-6" d="M198.54,99a3.44,3.44,0,0,0-3.43,3.43v15.9a3.43,3.43,0,0,0,6.85,0v-15.9A3.43,3.43,0,0,0,198.54,99Z"/><path class="cls-6" d="M205.35,99a3.44,3.44,0,0,0-3.43,3.43v15.9a3.43,3.43,0,0,0,6.85,0v-15.9A3.43,3.43,0,0,0,205.35,99Z"/><path class="cls-2" d="M191.78,119.37a3.44,3.44,0,0,0,3.42-3.43v-7.48a3.43,3.43,0,1,0-6.85,0v7.48A3.44,3.44,0,0,0,191.78,119.37Z"/><path class="cls-4" d="M191.07,104.18a6.23,6.23,0,0,1,.15,10.11l-2.84,2.38,0,.94V106.54A18.71,18.71,0,0,0,191.07,104.18Z"/><path class="cls-2" d="M212.21,119.37a3.44,3.44,0,0,0,3.42-3.43v-7.48a3.43,3.43,0,1,0-6.85,0v7.48A3.44,3.44,0,0,0,212.21,119.37Z"/><path class="cls-2" d="M198.54,105a3.44,3.44,0,0,0-3.43,3.43v9.81a3.43,3.43,0,1,0,6.85,0v-9.81A3.43,3.43,0,0,0,198.54,105Z"/><path class="cls-2" d="M205.35,105a3.44,3.44,0,0,0-3.43,3.43v9.81a3.43,3.43,0,1,0,6.85,0v-9.81A3.43,3.43,0,0,0,205.35,105Z"/><path class="cls-6" d="M196.81,141.37a55.2,55.2,0,0,1-13-11.68,8,8,0,0,1-2.12-5V112s6.91-5,9.14-8a5.7,5.7,0,0,1,.11,8.37l-2,2-.13,5.66a18.4,18.4,0,0,1,12.84,5.91c3.94,4.45,1.7,10.66-.71,13A10,10,0,0,1,196.81,141.37Z"/><path class="cls-6" d="M200.38,141.14c2.84-1.3,4.51-6.87,4.51-6.87a11.37,11.37,0,0,0,6.87,5.15s5.64,32.13,8,50.27c1.13,8.7-.55,21.52-3.55,24.6-4.49,4.6-10.3,2.86-14-3.79C196.81,201,203.61,188,200.38,141.14Z"/><path class="cls-6" d="M209.9,220.59s-14.31-4-21.75,19.46c-6.7,21.11-8,60.13-8,60.13s26.84-16.89,33.21-42.37C216.2,246.35,219.39,223.56,209.9,220.59Z"/><polygon class="cls-5" points="182.99 268.69 173.83 316.78 184.14 297.89 182.99 268.69"/><path class="cls-2" d="M222.16,124.58l.15.32c-.21,4.09-3.09,12.63-3.09,12.63-1.22,1.28-5.83,3.27-10.57.56C218.73,137.27,222.16,124.58,222.16,124.58Z"/><path class="cls-2" d="M185.48,131.58l0-.16c7.22,7.22,13.89,7.06,16.05,6.76a5.71,5.71,0,0,1-.6.68,10,10,0,0,1-4.15,2.51A54.18,54.18,0,0,1,185.48,131.58Z"/><path class="cls-2" d="M46.1,238.91s-2.3-10.31-4.59-16S46.1,180.5,46.1,180.5l12,18.33Z"/><path class="cls-2" d="M119.54,261.37S89.85,268.59,87.8,281c-1.39,7.8,47.36-.51,47.36-.51V261.37Z"/><path class="cls-2" d="M87.37,286.48S79,315.7,85.87,340.75c3.43,12.45,11.59,22.33,10.95,30.89-.55,7.39-4.74,38.95-4.74,38.95,0,8.09,43.08,66.13,43.08,66.13V275.31S87.37,278.38,87.37,286.48Z"/><path class="cls-2" d="M92.5,407.38l26.69,4.29s-7.34-21.41-10.35-30.64A13.21,13.21,0,0,1,111,368.14c-8.18-10.09-2.87-17.21-2.87-17.21a30,30,0,0,1-5.28-18.59L90.9,353.5c3.21,6.78,6.33,12.73,5.92,18.14C96.38,377.59,93.58,399.18,92.5,407.38Z"/><path class="cls-2" d="M121.89,328.72s9.83-2.86,13.27-2.86v-11Z"/><path class="cls-4" d="M135.16,455.55V382.12L133,383.9a5.51,5.51,0,0,1-3.46,1.22H122c-8.48,0-11-.81-13.2-4.09C108.28,380.19,121.35,424.06,135.16,455.55Z"/><path class="cls-4" d="M131.41,284.73,128.46,283a13.88,13.88,0,0,0-7-1.93H99.62s-9.67.52-14,12.26c0,0-12.47-7.09-13-1.86,1.25,8,10.49,40.95,12.8,49.3,2.77,10.07,9.28,19.68,11.09,27.05.18.25,1.57-29.34,6.72-31.63,0,0,7.88-1.67,20.65-7.12a20.83,20.83,0,0,0,7.74-5.76l3.52-4.3V291.45A7.72,7.72,0,0,0,131.41,284.73Z"/><path class="cls-5" d="M135.16,449c-18.88-25.9-33.72-47.6-39.73-62.24-1.38,11.17-3.06,23.86-3.06,23.86,0,6,23.77,39.57,36,56.44l6.79-1.52Z"/><path class="cls-5" d="M132.2,384.45a5.56,5.56,0,0,1,3,1.33v-3.66L133,383.9A5.06,5.06,0,0,1,132.2,384.45Z"/><path class="cls-5" d="M118,384.77s-5.3,1.2-3.44,14.81L108.84,381S111.42,384.68,118,384.77Z"/><path class="cls-4" d="M130.67,339.73c-4.89,1.31-11.15,3.23-16,4.66a13,13,0,0,1-7.94-.2c-1.39-.5-2.39-1.47-4-2.37l5.47,9.11a3.3,3.3,0,0,0,3.62.14,44.8,44.8,0,0,1,16.89-5.61,6,6,0,0,1,6.53,3.76V335.57A7.35,7.35,0,0,1,130.67,339.73Z"/><path class="cls-4" d="M131.13,360.68c-4.38,1.14-10,2.8-14.38,4.05a12,12,0,0,1-7.12-.18c-1.25-.43-1.82-1.87-3.3-2.65l3.38,6.85a4.93,4.93,0,0,0,6.07,1.76,72.05,72.05,0,0,1,13.92-4c1.82-.34,2.88-.72,4.29.13.54.33,1.17,2.4,1.17,2.4v-12A6.49,6.49,0,0,1,131.13,360.68Z"/><path class="cls-3" d="M116.36,276.29c-16.58-8-33.76-21.78-33.76-21.78s-7.39,20,3,38.8c9.17,16.6,13.32,31.12,21.48,31.12L119.3,324A14,14,0,0,0,130,319.07l.31-.38a13.79,13.79,0,0,0,3.17-8.8V291.28c0-.22,0-.44,0-.67C133.13,287.42,133,284.32,116.36,276.29Z"/><polygon class="cls-2" points="116.36 246.46 116.36 276.29 135.16 284.06 135.16 248.05 116.36 246.46"/><path class="cls-7" d="M111.19,231.35v-17.9s1.1-18.49,24-20.08V205.1l-18.32,31.62Z"/><path class="cls-3" d="M113.38,231.55S112.78,228,110,228s-1.79,5.17-1.19,8.95,4.17,9,7.15,5.76S113.38,231.55,113.38,231.55Z"/><path class="cls-8" d="M135.16,262.67h-3.83a4.54,4.54,0,0,1-3.16-1.29l-11.81-11.54h18.8Z"/><path class="cls-2" d="M116.56,209.08,116,218l-2.58,6.56v11.73l3,13.52,11.4,7.51a4.54,4.54,0,0,0,2.49.74h4.91V202.92C122.43,202.92,116.56,209.08,116.56,209.08Z"/><g class="cls-9"><path class="cls-10" d="M127.89,257.35l-7.74-5.1,15,31.81v-26h-4.78A4.57,4.57,0,0,1,127.89,257.35Z"/></g><path class="cls-2" d="M77.87,310.77A60.24,60.24,0,0,0,67.57,300c-12.37-9.55-28.12-26-21.47-82.31a66,66,0,0,1,21.24,16.51c7.41,8.6,11.83,43,12,47C79.67,292.17,77.87,310.77,77.87,310.77Z"/><path class="cls-3" d="M71.58,219.15c8.87-26.05-3.73-33.49,3.33-90.69l-22.52-2.92a383.34,383.34,0,0,1-5.72,40.08c-2.87,14.31-8,31.49-4.58,48.67.47,2.34,30.1,28.31,36.07,30.92S70.27,223,71.58,219.15Z"/><path class="cls-2" d="M71.58,219.15c8.66-25.42-3.12-33.13,2.85-86.62l-9,1.74s-3.86,80.59-3.29,82.31c2.63,7.91,10.88,9.73,10.88,9.73l.15-.43C72,222.75,71.22,220.19,71.58,219.15Z"/><path class="cls-3" d="M48,118l34.93.29-9.41,23.11s-6.64,2.07-8.09-6.54c-5.8,7.08-12.78,4.32-14.33,2.7,0,0-3.1-9.17-3.1-13.06Z"/><path class="cls-2" d="M48.15,124.58H57s6.87.89,10.2,5.51v-11l-19.11-1.22Z"/><path class="cls-2" d="M57.92,99.08s-5.44.86-6,8,6.59,4,6.59,4Z"/><path class="cls-5" d="M68,133.17s-2.86-11.47-12.6-14.62c-7.8-2.53,0-4.58,0-4.58l28.35-.58L86.35,126Z"/><rect class="cls-11" x="18.48" y="104.56" width="102.02" height="13.82"/><polygon class="cls-11" points="31.31 136.3 33.75 144.28 33.75 78.66 31.31 86.64 31.31 136.3"/><polygon class="cls-12" points="45.22 136.3 42.79 144.28 42.79 78.66 45.22 86.64 45.22 136.3"/><rect class="cls-11" x="33.75" y="128.2" width="9.04" height="16.09"/><rect class="cls-13" x="33.75" y="78.66" width="9.04" height="16.09"/><rect class="cls-14" x="33.75" y="94.75" width="9.04" height="33.45"/><polygon class="cls-14" points="23.75 127.78 25.07 133.02 25.07 89.93 23.75 95.17 23.75 127.78"/><polygon class="cls-12" points="31.31 127.78 29.99 133.02 29.99 89.93 31.31 95.17 31.31 127.78"/><rect class="cls-11" x="25.07" y="122.45" width="4.91" height="10.56"/><rect class="cls-13" x="25.07" y="89.93" width="4.91" height="10.56"/><rect class="cls-14" x="25.07" y="100.49" width="4.91" height="21.96"/><polygon class="cls-11" points="107.66 136.3 105.22 144.28 105.22 78.66 107.66 86.64 107.66 136.3"/><polygon class="cls-12" points="93.75 136.3 96.18 144.28 96.18 78.66 93.75 86.64 93.75 136.3"/><rect class="cls-11" x="96.18" y="128.2" width="9.04" height="16.09"/><rect class="cls-13" x="96.18" y="78.66" width="9.04" height="16.09"/><rect class="cls-14" x="96.18" y="94.75" width="9.04" height="33.45"/><polygon class="cls-14" points="115.22 127.78 113.9 133.02 113.9 89.93 115.22 95.17 115.22 127.78"/><polygon class="cls-12" points="107.66 127.78 108.98 133.02 108.98 89.93 107.66 95.17 107.66 127.78"/><rect class="cls-11" x="108.98" y="122.45" width="4.91" height="10.56"/><rect class="cls-13" x="108.98" y="89.93" width="4.91" height="10.56"/><rect class="cls-14" x="108.98" y="100.49" width="4.91" height="21.96"/><path class="cls-6" d="M78.54,119.43A3.43,3.43,0,0,1,75.11,116V102.44a3.43,3.43,0,1,1,6.85,0V116A3.43,3.43,0,0,1,78.54,119.43Z"/><path class="cls-6" d="M58.11,119.43A3.43,3.43,0,0,1,54.68,116V102.44a3.43,3.43,0,1,1,6.85,0V116A3.43,3.43,0,0,1,58.11,119.43Z"/><path class="cls-6" d="M71.78,99a3.43,3.43,0,0,1,3.42,3.43v15.9a3.43,3.43,0,0,1-6.85,0v-15.9A3.44,3.44,0,0,1,71.78,99Z"/><path class="cls-6" d="M65,99a3.43,3.43,0,0,1,3.42,3.43v15.9a3.43,3.43,0,0,1-6.85,0v-15.9A3.44,3.44,0,0,1,65,99Z"/><path class="cls-2" d="M78.54,119.37a3.44,3.44,0,0,1-3.43-3.43v-7.48a3.43,3.43,0,1,1,6.85,0v7.48A3.44,3.44,0,0,1,78.54,119.37Z"/><path class="cls-4" d="M79.25,104.18a6.24,6.24,0,0,0-.16,10.11l2.85,2.38,0,.94V106.54A18,18,0,0,1,79.25,104.18Z"/><path class="cls-2" d="M58.11,119.37a3.44,3.44,0,0,1-3.43-3.43v-7.48a3.43,3.43,0,1,1,6.85,0v7.48A3.44,3.44,0,0,1,58.11,119.37Z"/><path class="cls-2" d="M71.78,105a3.43,3.43,0,0,1,3.42,3.43v9.81a3.43,3.43,0,1,1-6.85,0v-9.81A3.44,3.44,0,0,1,71.78,105Z"/><path class="cls-2" d="M65,105a3.43,3.43,0,0,1,3.42,3.43v9.81a3.43,3.43,0,1,1-6.85,0v-9.81A3.44,3.44,0,0,1,65,105Z"/><path class="cls-6" d="M73.51,141.37a55.28,55.28,0,0,0,12.95-11.68,8,8,0,0,0,2.12-5V112s-6.91-5-9.13-8a5.69,5.69,0,0,0-.11,8.37l2,2,.13,5.66a18.41,18.41,0,0,0-12.85,5.91c-3.94,4.45-1.7,10.66.71,13A10,10,0,0,0,73.51,141.37Z"/><path class="cls-6" d="M69.93,141.14c-2.84-1.3-4.51-6.87-4.51-6.87a11.35,11.35,0,0,1-6.87,5.15s-5.64,32.13-8,50.27c-1.13,8.7.55,21.52,3.55,24.6,4.5,4.6,10.31,2.86,14-3.79C73.51,201,66.71,188,69.93,141.14Z"/><path class="cls-6" d="M60.41,220.59s14.31-4,21.76,19.46c6.69,21.11,8,60.13,8,60.13S63.34,283.29,57,257.81C54.11,246.35,50.93,223.56,60.41,220.59Z"/><polygon class="cls-5" points="87.32 268.69 96.48 316.78 86.18 297.89 87.32 268.69"/><path class="cls-2" d="M48.15,124.58l-.15.32c.21,4.09,3.09,12.63,3.09,12.63,1.22,1.28,5.84,3.27,10.58.56C51.59,137.27,48.15,124.58,48.15,124.58Z"/><path class="cls-2" d="M84.83,131.58l0-.16c-7.22,7.22-13.88,7.06-16,6.76a8.28,8.28,0,0,0,.6.68,10,10,0,0,0,4.16,2.51A54,54,0,0,0,84.83,131.58Z"/><path class="cls-4" d="M61.13,289.3c-15.46-18.9-12-58-13.36-66-.58-2-1.13-3.8-1.65-5.59-3.08-10.81-4.54-20.18.55-52.12C44,179,39.32,194.87,41.52,210.92c-.11,1.15-.21,2.25-.28,3.3s-.12,1.9-.16,2.75a2.81,2.81,0,0,1,0,.29c0,.31,0,.62,0,.92v.3c0,.37,0,.73,0,1.06s0,.73,0,1c0,.11,0,.19,0,.29l.06.63c.05.3.09.55.14.77s.12.44.18.61q.23.56.45,1.17l0,.08q.21.59.42,1.2l0,.13.12.36c.09.29.19.57.28.86a.88.88,0,0,0,0,.15l.21.7c.06.18.11.36.17.54l0,.16.09.32c.49,1.66.94,3.33,1.33,4.84,0,.1.06.2.08.29a140.19,140.19,0,0,0,1.84,30.22h-.38a71.56,71.56,0,0,0,3.76,13.41l0,.06,0,.08c.31.77.62,1.51.95,2.23.06.14.12.28.19.42.31.7.64,1.36,1,2l.23.43c.33.64.67,1.26,1,1.86l.23.4c.36.6.71,1.18,1.08,1.75l.2.3c.38.58.77,1.15,1.16,1.69l.11.16c.39.54.79,1.06,1.19,1.56l.12.16c.41.51.82,1,1.23,1.48.07.07.13.15.19.22l1.23,1.35a.52.52,0,0,1,.1.11A62.24,62.24,0,0,0,67.57,300a60.24,60.24,0,0,1,10.3,10.74s0-.34.09-.94C76,301.74,67.57,297.17,61.13,289.3Z"/><path class="cls-4" d="M209.19,289.3c15.46-18.9,12-58,13.36-66,.57-2,1.13-3.8,1.64-5.59,3.08-10.81,4.55-20.18-.54-52.12,2.67,13.38,7.35,29.25,5.14,45.3.12,1.15.21,2.25.29,3.3s.12,1.9.15,2.75c0,.1,0,.19,0,.29,0,.31,0,.62,0,.92v.3c0,.37,0,.73,0,1.06s0,.73,0,1c0,.11,0,.19,0,.29s0,.43-.06.63-.09.55-.14.77a3.45,3.45,0,0,1-.18.61q-.23.56-.45,1.17l0,.08q-.21.59-.42,1.2l0,.13-.12.36-.27.86-.05.15c-.08.23-.15.46-.22.7s-.11.36-.16.54l0,.16c0,.11-.07.22-.1.32-.49,1.66-.94,3.33-1.33,4.84a2.45,2.45,0,0,1-.08.29,139.56,139.56,0,0,1-1.84,30.22H224a72.36,72.36,0,0,1-3.75,13.41l0,.06,0,.08c-.3.77-.62,1.51-.94,2.23-.07.14-.13.28-.19.42-.32.7-.65,1.36-1,2l-.22.43q-.49,1-1,1.86l-.23.4c-.35.6-.71,1.18-1.08,1.75l-.2.3c-.38.58-.76,1.15-1.16,1.69a.91.91,0,0,1-.11.16c-.39.54-.78,1.06-1.18,1.56l-.13.16c-.4.51-.82,1-1.23,1.48l-.19.22-1.23,1.35-.1.11a63,63,0,0,1-7.27,6.45,60.08,60.08,0,0,0-10.31,10.74s0-.34-.09-.94C194.3,301.74,202.75,297.17,209.19,289.3Z"/><rect class="cls-15" x="56.63" y="73.04" width="25.39" height="8.46"/><rect class="cls-15" x="56.63" y="22.42" width="25.39" height="44.39"/><polygon class="cls-15" points="47.01 29.2 69.33 0 91.65 29.2 47.01 29.2"/><rect class="cls-15" x="190.8" y="73.04" width="25.39" height="8.46"/><rect class="cls-15" x="190.8" y="22.42" width="25.39" height="44.39"/><polygon class="cls-15" points="181.18 29.2 203.49 0 225.81 29.2 181.18 29.2"/><rect class="cls-16" x="123.47" y="488.23" width="23.56" height="99.66"/><rect class="cls-17" x="126.41" y="505.48" width="17.68" height="167.9" transform="translate(-454.18 724.68) rotate(-90)"/><rect class="cls-18" x="51.3" y="580.59" width="16.64" height="17.68"/><rect class="cls-18" x="202.56" y="580.59" width="16.64" height="17.68"/><rect class="cls-19" x="85.5" y="455.69" width="99.51" height="37.24" rx="7.01"/><rect class="cls-18" x="85.5" y="480.32" width="99.51" height="22.77" rx="7.01"/><path class="cls-20" d="M39.17,579.43v10.3S36.85,594,33,594C33,594,30.75,584.16,39.17,579.43Z"/><path class="cls-21" d="M48.61,423.38s-10.88,1.72-9.16,13.74,21.19,45.24,42.37,37.79S89.27,424.53,48.61,423.38Z"/><path class="cls-2" d="M84.11,419.37,44,426.82c-10.88,3.31-21.49,10-20.92,21.18.81,15.78,13.53,16.68,19.47,15.76,35.07-5.44,38.74,14.05,77-8.89C145.39,439.43,84.11,419.37,84.11,419.37Z"/><path class="cls-22" d="M109.4,460.41,107,450.86l-36.39-1.42c-7.83-.49-21.21,6.2-22.14,14.85,16.63-2.06,23.15,6,39.9,5.19S107.71,465.19,109.4,460.41Z"/><path class="cls-21" d="M91.38,408.45l-7,12.78s33.8,10.37,44,46.86l6.79-.86V411.52s-32.46-1.29-42.34-9.88Z"/><path class="cls-23" d="M128.37,468.09l-46.55,6.82s5.16-5.15,2.86-15.46c-2.92-13.15-17-30.16-36.07-36.07,0,0,24-5.15,39.9-9.48C88.51,413.9,132.38,432.79,128.37,468.09Z"/><path class="cls-24" d="M62.51,430.09c11.62-4.6,26.43-9.41,26-16.19-14.69,3.68-39.9,9.48-39.9,9.48A53.84,53.84,0,0,1,62.51,430.09Z"/><path class="cls-2" d="M48.65,458.83s1.21,14.93,1.76,28a72.79,72.79,0,0,1-6.27,33,43.51,43.51,0,0,1-3.51,6.58S18.87,484.59,48.65,458.83Z"/><path class="cls-3" d="M23.11,446s-9.74,30.35-7.44,55c2.19,23.55,3.43,60.7,2.86,72.72s16.95,6.53,16.95,6.53,5.15-48.67,8-61.27,5.15-60.12,5.15-60.12Z"/><path class="cls-3" d="M49,464.23s-1-4.21,6.33-9.78c9-6.87.44-20.82-12-21.47-9-.47-17.29,4.17-20.08,12.81C19.33,457.82,49,464.23,49,464.23Z"/><path class="cls-2" d="M30.74,520.93c-.76,24.56-2,41.31-2.91,59.94,2.18.26,7.65-.65,7.65-.65s3-33,6-49.47c.42-.82,9.74-23.48,9-43.93-.33-8.91-.71-20.18-1.1-25.5C45.52,466.12,32.05,478.66,30.74,520.93Z"/><path class="cls-25" d="M17.69,570.35s-2.44-2.57-3.19,3,.4,9.67-4.45,17.57S.77,602.52.33,606.27c-.69,5.93-.08,7.9-.08,7.9s2.25,4.43,12.34,4.7c9,.23,14.61-.75,17.17-3.72,1.71-2,2.78-5.72,2.81-12.43s1.58-12.24,3.34-15-1-13.11-1-13.11.07-3.87-3.66-4.06C21.26,572.52,17.69,570.35,17.69,570.35Z"/><path class="cls-26" d="M34.66,572.91s1.61-.59,1.89-1.77a5.49,5.49,0,0,0,.13-2s1.64-1,2.17,3a40.7,40.7,0,0,1,.32,7.31A43.56,43.56,0,0,1,37,586.14,59.21,59.21,0,0,0,34.62,598c-.36,5.53.83,21-20.44,19.82,12.68-3.56,13.14-10.67,13.14-10.67l.3-8.64a56.74,56.74,0,0,1,5.44-22.19Z"/><path class="cls-20" d="M30.54,615.46c1.1-1.58,2-5.11,2.53-7.06-3.86,5.83-6.26,6.23-9.7,6.62-2.37.27-5-.51-8.9-.79-3.67-.26-7.3,1-10.41.2-2.25-.57-2.93-1.51-4.06-3.08,0,2,.2,3.67.2,3.67s2.19,5.23,12.28,5.49C17.52,620.64,27.37,620.35,30.54,615.46Z"/><path class="cls-20" d="M37,586.14a43.56,43.56,0,0,0,2.21-6.71,39.9,39.9,0,0,0-.06-4.78,29.58,29.58,0,0,0-5.52,13.53c-.61,5.35.62,10.18.52,15.23.29-2.07.41-4,.51-5.43A59.21,59.21,0,0,1,37,586.14Z"/><path class="cls-20" d="M231.14,579.43v10.3s2.32,4.29,6.19,4.29C237.33,594,239.56,584.16,231.14,579.43Z"/><path class="cls-21" d="M221.7,423.38s10.88,1.72,9.16,13.74-21.18,45.24-42.37,37.79S181.05,424.53,221.7,423.38Z"/><path class="cls-2" d="M186.2,419.37l40.08,7.45c10.88,3.31,21.5,10,20.92,21.18-.8,15.78-13.52,16.68-19.46,15.76-35.08-5.44-38.74,14.05-77-8.89C124.92,439.43,186.2,419.37,186.2,419.37Z"/><path class="cls-22" d="M160.91,460.41l2.39-9.55,36.38-1.42c7.83-.49,21.21,6.2,22.14,14.85-16.63-2.06-23.14,6-39.89,5.19S162.6,465.19,160.91,460.41Z"/><path class="cls-20" d="M178.93,408.45l7,12.78S152.09,431.6,142,468.09l-6.79-.86V411.52s32.45-1.29,42.33-9.88Z"/><path class="cls-21" d="M142,468.09l46.54,6.82s-5.15-5.15-2.86-15.46c2.92-13.15,17-30.16,36.07-36.07,0,0-24-5.15-39.89-9.48C181.81,413.9,137.93,432.79,142,468.09Z"/><path class="cls-24" d="M207.81,430.09c-11.63-4.6-26.44-9.41-26-16.19,14.68,3.68,39.89,9.48,39.89,9.48A53.78,53.78,0,0,0,207.81,430.09Z"/><path class="cls-2" d="M221.66,458.83s-1.21,14.93-1.76,28a72.79,72.79,0,0,0,6.27,33,44.69,44.69,0,0,0,3.51,6.58S251.44,484.59,221.66,458.83Z"/><path class="cls-3" d="M247.2,446s9.74,30.35,7.45,55c-2.19,23.55-3.44,60.7-2.86,72.72s-17,6.53-17,6.53-5.15-48.67-8-61.27-5.16-60.12-5.16-60.12Z"/><path class="cls-3" d="M221.32,464.23s1-4.21-6.32-9.78c-9-6.87-.45-20.82,12-21.47,9-.47,17.29,4.17,20.08,12.81C251,457.82,221.32,464.23,221.32,464.23Z"/><path class="cls-2" d="M239.57,520.93c.76,24.56,2.05,41.31,2.91,59.94-2.17.26-7.65-.65-7.65-.65s-3-33-6-49.47c-.42-.82-9.73-23.48-9-43.93.33-8.91.71-20.18,1.11-25.5C224.79,466.12,238.27,478.66,239.57,520.93Z"/><path class="cls-25" d="M252.63,570.35s2.43-2.57,3.19,3-.41,9.67,4.45,17.57,9.27,11.64,9.71,15.39c.7,5.93.08,7.9.08,7.9s-2.24,4.43-12.34,4.7c-9,.23-14.61-.75-17.16-3.72-1.71-2-2.78-5.72-2.82-12.43s-1.58-12.24-3.34-15,1-13.11,1-13.11-.08-3.87,3.66-4.06C249.05,572.52,252.63,570.35,252.63,570.35Z"/><path class="cls-26" d="M235.66,572.91s-1.62-.59-1.89-1.77a5.22,5.22,0,0,1-.13-2s-1.64-1-2.18,3a41.84,41.84,0,0,0-.32,7.31,43.56,43.56,0,0,0,2.21,6.71A59.67,59.67,0,0,1,235.7,598c.35,5.53-.83,21,20.43,19.82C243.45,614.24,243,607.13,243,607.13l-.31-8.64a56.74,56.74,0,0,0-5.44-22.19Z"/><path class="cls-20" d="M239.77,615.46c-1.09-1.58-2-5.11-2.52-7.06,3.86,5.83,6.25,6.23,9.7,6.62,2.37.27,5-.51,8.89-.79,3.67-.26,7.3,1,10.41.2,2.26-.57,2.93-1.51,4.06-3.08,0,2-.19,3.67-.19,3.67s-2.2,5.23-12.29,5.49C252.8,620.64,243,620.35,239.77,615.46Z"/><path class="cls-20" d="M233.35,586.14a43.56,43.56,0,0,1-2.21-6.71,41.44,41.44,0,0,1,.07-4.78,29.81,29.81,0,0,1,5.52,13.53c.6,5.35-.63,10.18-.53,15.23-.28-2.07-.41-4-.5-5.43A59.67,59.67,0,0,0,233.35,586.14Z"/></g></g></g></svg>