<svg xmlns="http://www.w3.org/2000/svg" viewBox="0 0 215.53 197.92"><defs><style>.cls-1{fill:#c69575;}.cls-2{fill:#d6ab8c;}.cls-3{fill:#e2c4af;}.cls-4{fill:#2d241f;}.cls-5{fill:#d9d9da;}.cls-6{fill:#4c4c4e;}.cls-7{fill:#1e1e1e;}.cls-8{fill:#ddbaa1;}.cls-9{fill:#d9d8ec;}.cls-10{fill:#c6c5e3;}.cls-11{fill:#3c3c40;}.cls-12{fill:#b37b55;}.cls-13{fill:#151515;}.cls-14{fill:#28b0b8;}.cls-15{fill:#3a3c3b;}.cls-16{fill:#2f2f2f;}.cls-17{fill:#767676;}.cls-18{fill:#fcbe76;}</style></defs><title>bench1</title><g id="Calque_2" data-name="Calque 2"><g id="Layer_2" data-name="Layer 2"><path class="cls-1" d="M181.85,102.77a7.44,7.44,0,0,1-4.2,2.81l-9.65-1.2L189.75,125l-.58-18.35Z"/><path class="cls-1" d="M181.85,102.77a14.05,14.05,0,0,1-4.29.82l-3.19,2.32,5.67,1.81S182.05,106.69,181.85,102.77Z"/><path class="cls-2" d="M189.89,123.55s-10.64.27-17.13,2.8c0,0-5.06-3.55-3.53-14.89l-2.6-7.22,21.27,10.34S193.14,118.25,189.89,123.55Z"/><path class="cls-3" d="M188.72,121.16c9.11,5.51,15.75,5.92,20.21,2.7,4.64-3.35,7.47-19.37-2.59-23.47-8.78-3.57-20-3.6-22.67-3.54a1.5,1.5,0,0,0-1.13.58c-.53,1-.6,2.81-.84,5.74l1.3,5.18a3.08,3.08,0,0,0,1.39,2.4c2.65,1.77,3.53,4.29,4,7.49Z"/><path class="cls-2" d="M199.12,114.22s-9.83-4.58-12.73-6.67c-2.51-1.8-2.58-5.61-2.72-10.7-.38,0-1.1.14-1.19.5a38.52,38.52,0,0,0-1.22,6.49l1.05,5.11c.05,1,1.74,2.68,2.55,3.22,2.65,1.77,3.06,2.87,3.48,6.07l.38,2.92a35,35,0,0,0,9.35,4.15Z"/><path class="cls-1" d="M190.76,118.64a37.42,37.42,0,0,0-17.49,1.46l.16,6c6.53-2.3,16.46-2.55,16.46-2.55.63-1,6.16-1.19,6.25-2.08C196.22,120.74,190.92,119.25,190.76,118.64Z"/><path class="cls-1" d="M196,121.38c-3.2,2.82-7.86-2.95-7.28-5.17.36-1.37,4.4-2,4.4-2S199.46,118.33,196,121.38Z"/><path class="cls-4" d="M207.39,100.84a13,13,0,0,1,7,2.45l.06,12s.22,13.26-11.93,13.83c-5.57.26-11.68-3.18-14.75-5.54l.36-2.76c3.9.52,5.23,1.2,6.85-.81l3.95-7.8,3.67-3.19a27.14,27.14,0,0,1,6.58.88C210.23,103.89,207.39,100.84,207.39,100.84Z"/><path class="cls-2" d="M197.11,120.5c-3.2,2.82-7.87-2.94-7.28-5.17.36-1.36,4.4-2,4.4-2S200.57,117.45,197.11,120.5Z"/><path class="cls-4" d="M207.76,100.9s.89-1.21,3.74-1.09a4.41,4.41,0,0,1,4,3.28s-2.42,1-2.81,6Z"/><polygon class="cls-4" points="193.98 112.24 200.97 113.65 200.81 110.46 194.33 109.6 193.98 112.24"/><polygon class="cls-5" points="198.11 193.01 189.41 193.01 189.41 147.36 49.06 147.36 49.06 193.01 40.36 193.01 40.36 138.67 198.11 138.67 198.11 193.01"/><rect class="cls-6" x="189.41" y="187.01" width="8.69" height="6"/><rect class="cls-6" x="40.36" y="187.01" width="8.69" height="6"/><rect class="cls-7" x="29.12" y="128.58" width="180.23" height="12.39" rx="2.7"/><path class="cls-6" d="M203.6,132.86H32.26A3.15,3.15,0,0,0,29.12,136v1.84A3.11,3.11,0,0,0,32.24,141H205.07v-6.64A1.47,1.47,0,0,0,203.6,132.86Z"/><path class="cls-2" d="M21,124.33s1-5.16,7.86-5.54,8.34,26.62,6.25,45.8-1.23,23.64-1.23,23.64l-13.32-.38s2.49-2.21,1.31-26.64C20.33,128.78,19.07,124.71,21,124.33Z"/><path class="cls-2" d="M18.36,119.77a78.36,78.36,0,0,0,2.14,11.92l9.43-4.26s9-13.2,3.43-20.87C29.79,101.66,17.5,109.12,18.36,119.77Z"/><path class="cls-8" d="M33.19,189.86s1-4,.28-32.86c-.57-24.57-8.85-29.72-9.71-30.29s-3.17,7.13-3.17,7.13l-.18,1.48c.35,5.49.9,13.68,1.49,25.89.69,14.2.13,20.89-.45,24Z"/><path class="cls-2" d="M32.4,119.64s7.19,12.58,6.86,22.93c-.16,5.06-4.72,21.86-5.61,31.74C33,181.44,32.4,119.64,32.4,119.64Z"/><path class="cls-9" d="M9.91,197.51C6.2,197,3,196,.7,194.05c-1-.81-.38-4,.65-4.73,1.84-.63,5.55-.94,8.5-1.93,3.11-1,6.8-2.55,9.4-5,1.14-1.08,1.64-1.43,2.4-1a11.84,11.84,0,0,1,2.85,3.22c.72,1.07,5.66,1.74,7.76.7,1.3-.66,1.26-3,1.26-3,.26.11,2,.08,2.08,1.2.38,3.66,1,9.18,1,9.18s.62,5-6.82,3.89-7.07.82-11.54,1.19A41.17,41.17,0,0,1,9.91,197.51Z"/><path class="cls-10" d="M36.59,192.75s-.1-.9-.24-2.21c-.88.76-3.64,2.61-9.15,1.65a17.16,17.16,0,0,0-3.49.87c-1.19.55-8.81,3.7-20.89,0l-.63,2a20.51,20.51,0,0,0,7.72,2.42,41.17,41.17,0,0,0,8.32.32c4.47-.37,4.11-2.33,11.54-1.19S36.59,192.75,36.59,192.75Z"/><path class="cls-11" d="M36.88,194s-.35-1.84-.45-2.7c-1.75,2.59-7.17,2.16-9.56,1.94s-3.92,1.09-7.62,2-10.77.54-15-1.31C2,192.3.46,189.91.3,190.28c-.54,1.21-.31,3.17.4,3.77C3,196,6.2,197,9.91,197.51a41.17,41.17,0,0,0,8.32.32c4.47-.37,4.07-2,11.54-1.19C36.66,197.41,36.88,194,36.88,194Z"/><path class="cls-2" d="M66.85,99.5l-35.56,5.06c-13.16,1.87-12.86,13.08-12.86,13.08a11,11,0,0,0,10.66,8c8.67.07,14.25-.3,29.76,2.26,5.93,1,11.88-.73,17.22-.72Z"/><path class="cls-8" d="M59.29,112.69l1.62-12.35-29.62,4.22c-5.28.75-8.39,3-10.22,5.44-.49,6.1,2.6,7.94,4.15,6.68,1.94-1.58,8.3-2.48,8.3-2.48Z"/><path class="cls-2" d="M150.63,94.85s-11.23-2.16-13.29-2A29.6,29.6,0,0,0,130.91,94a10.63,10.63,0,0,0-4.71-.15A26,26,0,0,0,122.34,95a13.2,13.2,0,0,0-7.13-.39,21.79,21.79,0,0,0-5-.33c-4.49.56-13.74,3.65-24.43,6.86,0,0,10.81,25.72,15.74,24.32s25.7-3.07,39.06,3c4.64,2.09,17.49,3.42,26.48,3.42a10,10,0,0,0,7.35-3.12,12.72,12.72,0,0,0,3.51-9.94c-.27-3.21-1.06-7.8-3.41-11l-6.76-1.16Z"/><path class="cls-8" d="M156.36,110.24c-3.05-2-7.27-4.51-8.78-6-2.27-2.22-4.12-4.11-4.29-7.28a14.74,14.74,0,0,1,.33-3.38c-.62-.11-2.26-.28-2.85-.37-1,3.93-1.55,6.53-7.12,11.25-1.34,1.13,12.18,16.13,24.2,21.43C162,127.7,156.36,110.24,156.36,110.24Z"/><path class="cls-1" d="M168.94,127.57l-15.06-22-.42,10.21a20.93,20.93,0,0,0,2.9,13.47s-3.87,1.65-16.73-3.9-23.3-4.8-23.3-4.8a23.55,23.55,0,0,1-10.09,2.63v1.42c8.29-1,23.67-1,34.33,3.77,4.64,2.09,17.49,3.42,26.48,3.42a10.41,10.41,0,0,0,2.44-.28Z"/><path class="cls-1" d="M114.84,108.71c-8-9.71-6-14-6-14-3.56.45-10.12-.28-18,2.15C97.48,99.7,117.64,112.12,114.84,108.71Z"/><path class="cls-8" d="M92.13,99.64s10.07-.64,14.57,1.29c3.23,1.38,11.57,9.21,9.21,12-1.71-1.72-7.07-7.93-22.5-9.22C78.25,102.45,92.13,99.64,92.13,99.64Z"/><path class="cls-3" d="M165.7,101.23c-5.64-4.16-11.86-8.45-16-9.17,0,0-2.13-.72-6.64,1.94L143,99.32a10.86,10.86,0,0,0,6,7.74s5,2.18,14.92,7.7c8.9,4.94,8.42-2.33,11.33,1.06C174.53,113.78,167.42,102.5,165.7,101.23Z"/><path class="cls-2" d="M142.63,94l.34,5.32a10.86,10.86,0,0,0,6,7.74l9,4.64.33-.34L173.08,113c-1.65-1.38-16.75-5.4-22.93-15a5.74,5.74,0,0,1-.45-6S147.14,91.34,142.63,94Z"/><path class="cls-8" d="M139.63,93.14l-.08-.06a9.85,9.85,0,0,0-2.21-.23l-2.13.14a3,3,0,0,0-2.46,1.82,20.64,20.64,0,0,1-3.34,6.12c-1.32,1.65,4.07,2.78,6.22-.22C135.65,100.68,138.2,98.36,139.63,93.14Z"/><path class="cls-8" d="M121.91,100.28c-.12,1.4,0,2.8,1.29,3.22.64.21,2.57-.5,3.43-1.29,3.13-2.89,4.28-8.21,4.28-8.21a10.63,10.63,0,0,0-4.71-.15l-.76.18a3,3,0,0,0-2.24,2.17A40.47,40.47,0,0,0,121.91,100.28Z"/><path class="cls-8" d="M116.4,102.54a3,3,0,0,0,4.22-2.12A24.39,24.39,0,0,1,122.34,95a13.15,13.15,0,0,0-7.12-.39c-1,4-.69,6,.48,7.39A2.42,2.42,0,0,0,116.4,102.54Z"/><path class="cls-12" d="M115,96a11.78,11.78,0,0,1,1.1-1.54c-.28,0-.56.09-.85.16l-.9-.11A3.33,3.33,0,0,1,115,96Z"/><path class="cls-13" d="M109.38,125.09s-13.18,6.53-21.09,6.53a58.79,58.79,0,0,1-15-2.24l-23.34-.62s-5.38-5.51-4.09-29.28c0,0,22.46-3.58,32.78-4.5a167.15,167.15,0,0,1,22.11-.43,38.69,38.69,0,0,0,5.2-.22C105.93,101.33,111.84,113.19,109.38,125.09Z"/><path class="cls-14" d="M46.13,115.82c14.57-1.62,45.81-3.64,59.71-3.94-.41-3-.59-4.36-.59-4.36S85.77,98,45.72,102.23A90,90,0,0,0,46.13,115.82Z"/><path class="cls-15" d="M101.72,94.59c.21,7.29,6.34,19.76,4.12,31.85l3.54-1.35c2.43-11.73-3.29-23.43-3.44-30.46a.3.3,0,0,0-.32-.29A37.39,37.39,0,0,1,101.72,94.59Z"/><path class="cls-3" d="M167.31,90.93s1.56-9.69,3.06-13.47,1.79-4.61,1.6-14.81-.85-20-.85-20S168.7,31,164.07,34.55c0,0-4.68,13.63-5.8,19.06s-2.51,12.59-2.09,15.65c.45,3.26,1.15,9.13,1.91,10.67C160.13,83.23,164.76,89,167.31,90.93Z"/><path class="cls-3" d="M168.07,131.56a10.71,10.71,0,0,0,8.14-6.12c3-6.3-.62-16.36-3.45-22.69,0,0-10.17-.28-10.5-4.53a41.9,41.9,0,0,1-3.45,8c-.86,1.44-2.32,6.43-3.18,12.18C154.94,123.1,157.49,131.76,168.07,131.56Z"/><path class="cls-3" d="M173.89,90.69a90.78,90.78,0,0,1-2.3-17.23c-1.19.24-13.07-.38-13.07-.38s-4.54,19.21-3.61,30.66c.51,6.33.63,15.68.63,15.68,7.84,4.17,18.81-5.86,17.85-9.29,0,0-.41-.6.5-4.07S174.44,93.19,173.89,90.69Z"/><path class="cls-2" d="M156.45,103.1c-1.56-7.74,2.05-19.63,3.33-26.07-.52-2.47-1.26-4-1.83-8-.43-3,1-10.21,2.09-15.64s6.58-18.24,6.58-18.24a3.56,3.56,0,0,1,.85-.49,2.45,2.45,0,0,0-3.4-.06s-4.68,13.63-5.8,19.06-2.51,12.59-2.09,15.65c.33,2.38.79,6.17,1.32,8.63-1.28,6.45-3.23,18-2.59,25.85C155.42,110.07,158.39,112.69,156.45,103.1Z"/><path class="cls-2" d="M171.68,53.4c0-.79-.07-1.56-.1-2.29L168.33,38l-5.82,1.17c-1.47,4.47-3.54,11-4.24,14.4-1,4.62-2.1,10.47-2.16,14C161.28,62.84,166.45,58.1,171.68,53.4Z"/><path class="cls-2" d="M174,105.63a51.48,51.48,0,0,0,.33-10.86c-1.46,6.91-6.76,14.34-12,14.11-4.22-.18-5.73-3.08-7.5-8,0,1,.05,1.92.13,2.82s.15,1.83.23,2.82a35.81,35.81,0,0,0,6.71,12c5.49-4.58,10.14-8.33,12-12.48l.14-.33A.42.42,0,0,1,174,105.63Z"/><circle class="cls-16" cx="166.8" cy="26.51" r="26.51" transform="translate(30.11 125.71) rotate(-45)"/><circle class="cls-17" cx="166.8" cy="26.51" r="16.84" transform="translate(78.48 170.47) rotate(-67.5)"/><path class="cls-16" d="M162.61,26.51a4.19,4.19,0,1,0,4.19-4.19A4.2,4.2,0,0,0,162.61,26.51Z"/><rect class="cls-18" x="116.15" y="78.26" width="17.74" height="5.91"/><rect class="cls-18" x="116.15" y="42.9" width="17.74" height="31.01"/><polygon class="cls-18" points="109.43 47.64 125.02 27.24 140.61 47.64 109.43 47.64"/></g></g></svg>