<svg xmlns="http://www.w3.org/2000/svg" viewBox="0 0 245.41 279.6"><defs><style>.cls-1{isolation:isolate;}.cls-2{fill:#ebede6;}.cls-3{fill:#e2c4af;}.cls-4{fill:#d6ab8c;}.cls-5{fill:#d9b297;}.cls-6{fill:#bdbdbe;}.cls-7{fill:#a6a6a8;}.cls-8{fill:#4c4c4e;}.cls-9{fill:#78787a;}.cls-10{fill:#c69575;}.cls-11{fill:#b37b55;}.cls-12{fill:#3a3c3b;}.cls-13{fill:#151515;}.cls-14{fill:#c08a67;}.cls-15{fill:#e5cfc0;mix-blend-mode:multiply;}.cls-16{fill:#313131;}.cls-17{fill:#28b0b8;}.cls-18{fill:#ddbaa1;}.cls-19{fill:#d9d8ec;}.cls-20{fill:#c6c5e3;}.cls-21{fill:#ead5c6;}.cls-22{fill:#2d241f;}.cls-23{fill:#767676;}.cls-24{fill:#2f2f2f;}.cls-25{fill:#ededed;}.cls-26{fill:#383838;}</style></defs><title>curl2.1</title><g class="cls-1"><g id="Calque_2" data-name="Calque 2"><g id="Layer_2" data-name="Layer 2"><ellipse class="cls-2" cx="34.87" cy="260.9" rx="34.87" ry="16.7"/><ellipse class="cls-2" cx="210.54" cy="260.9" rx="34.87" ry="16.7"/><path class="cls-3" d="M198.7,55.6s-5.63,19.89-7,25.87c-2.55,11.13,0,11.69-.18,27.06s-.77,20-.77,20,5.26,6.88,12.39,1.79c0,0,2.62-11.08,4.56-19.2s5-22.59,4.53-27.22c-.53-4.93-1-16-2.12-18.38C207.66,61,203.36,60.1,198.7,55.6Z"/><path class="cls-3" d="M168.54,33s2,.91,10.71,5c6.45,3,8,3.58,12.91,8.61A159.54,159.54,0,0,1,205.3,62l-9.44,7.63S169.3,58.74,168.54,33Z"/><path class="cls-4" d="M157.51,57.91s1.18,0,5.12,4.25S179.46,75,183.55,75.61c6.11,1,4,0,9.26,3.43.73-1.83,4.95-5.92,3.05-13.47-1.78-7.12-4.58-11.9-12.33-16.37S157.51,57.91,157.51,57.91Z"/><path class="cls-5" d="M135.11,33S132.86,36,135.8,45s14.06,9.24,21.81,10.53c0,0,18.87-8.53,24.22-5,0,0-6.58-13.54-11.63-17.87C164.18,27.59,146.8,20.52,135.11,33Z"/><path class="cls-3" d="M166.33,40.72c3.55-2.58,3.23-6.3,2-9.37-6.32-4.26-18.91-8.52-29.1-1.86C143.75,41.85,159.63,45.59,166.33,40.72Z"/><path class="cls-3" d="M169.41,47.05c-6.32,2.76-13,9.93-13,9.93s8.57,7.41,10.24,8.73a88.85,88.85,0,0,0,11.61,7.75c1.47.79,6.9,1.54,10.79-.28,1.83-.86,3.42-2.07,3.24-4.08-.41-4.5,1.06-12.61-11.89-21.32A11.48,11.48,0,0,0,169.41,47.05Z"/><path class="cls-4" d="M70.74,74.3s3.34-25.61,36.6-31.43l22.82-37,.43,63.73-23.25,8.61Z"/><path class="cls-3" d="M105.62,43.3c-28,4.31-34.88,31-34.88,31l5,.54,4.66-6s13.37-5.21,21.1-16c2.15-3,4.37-7.51,5.81-9.91Z"/><path class="cls-2" d="M192.84,258.84H52.71a5,5,0,1,0,0,10.07H192.84a5,5,0,1,0,0-10.07Z"/><rect class="cls-6" x="113.92" y="180.11" width="17.72" height="74.94"/><rect class="cls-7" x="116.13" y="193.09" width="13.3" height="126.26" transform="translate(-133.44 378.99) rotate(-90)"/><rect class="cls-8" x="59.65" y="249.57" width="12.51" height="13.3"/><rect class="cls-8" x="173.39" y="249.57" width="12.51" height="13.3"/><rect class="cls-9" x="85.36" y="155.65" width="74.83" height="28" rx="5.27"/><rect class="cls-8" x="85.36" y="174.17" width="74.83" height="17.12" rx="5.27"/><path class="cls-3" d="M157.5,53.06H122.62V163.32S155,128.72,155,122.63c0,0-3.15-19.85-3.56-25.41-.48-6.44,4-12.88,4.55-22.58C156.5,65.6,157,58.56,157.5,53.06Z"/><path class="cls-4" d="M123.92,62l1.29,26.91s1.1,3.37,6.67,3.88A64,64,0,0,0,147,92l7.43-38.65S142,39.79,144,31.41c-4.37-5.16-7.67.4-10.35-.38l-.26,14.19A20.38,20.38,0,0,1,123.92,62Z"/><path class="cls-3" d="M149.9,47.66a38.25,38.25,0,0,1-5.56-10.61,6.07,6.07,0,0,0-.29,1.41,102.93,102.93,0,0,1-2.59,14.85A18.87,18.87,0,0,0,149.9,47.66Z"/><path class="cls-10" d="M141.05,30.39l-.45-10.06s-4.47-4.63-14-4.63-14.07,4.63-14.07,4.63L112,30.39l-1.94,5.92-.61,2.47c.83,6.46,8.77,22.25,14.21,25.84,0,0,13.24-7.11,17.14-19.34l2.15-9Z"/><path class="cls-11" d="M126.9,122.45a4.12,4.12,0,0,0-2.23,1v-2.76l1.59,1.34A3.92,3.92,0,0,0,126.9,122.45Z"/><path class="cls-10" d="M124.67,99s.33,3.1,4.29,3,14.66.85,16.92-3.46a5.62,5.62,0,0,1-4.42,4.74c-2.76.65-10,.55-13,.83a4.59,4.59,0,0,0-3.28,1.81,2.33,2.33,0,0,0-.53,1.79Z"/><path class="cls-10" d="M144.18,110s.11,2-6.91,2.62l-8.94,1a3.59,3.59,0,0,1-3.63-1.81l0-.06v6.46s.32-2.63,3.92-2.74a81,81,0,0,0,12.14-1.63S144.11,113.13,144.18,110Z"/><path class="cls-4" d="M154.62,120.14l-.35-2.28-.42-2.77c-.1-.66-.2-1.33-.31-2-.21-1.39-.42-2.84-.63-4.28-.1-.72-.21-1.44-.31-2.15-.45-3.19-.84-6.18-1-8.21,0-.45-.08-.85-.1-1.2-.48-6.44,4-12.88,4.55-22.58l.06-1.13L149,78.41a24.14,24.14,0,0,1-4.6,13.12s4.85,3.28-1.29,10.87c0,0,4.3,5.6-.54,10.55,3.12,4.09-7,21.68-7,21.68l14.29-2.91,1.11-1.52.52-.73.47-.69c.17-.24.31-.46.45-.67l0,0,.39-.6,0-.06.35-.56,0-.07q.17-.25.3-.51l.06-.09.26-.45.06-.12.22-.41.07-.13.18-.36.06-.14c.05-.11.1-.22.14-.33a.75.75,0,0,0,.06-.13c0-.11.08-.2.11-.3a.69.69,0,0,0,.05-.13,2.76,2.76,0,0,0,.08-.27s0-.08,0-.12,0-.16.05-.24a.36.36,0,0,1,0-.11,1.67,1.67,0,0,0,0-.31s-.07-.48-.21-1.32Q154.73,120.8,154.62,120.14Z"/><path class="cls-10" d="M156,74.64l.06-1.13L149,78.41a36.85,36.85,0,0,1-5.89,13.66c6.78,1,8.37,5.15,8.37,5.15C151,90.78,155.45,84.34,156,74.64Z"/><path class="cls-4" d="M86,74.59v0C88.55,84,94.68,90.78,94.2,97.22c-.41,5.56-3.56,25.41-3.56,25.41,0,6.09,34,40.69,34,40.69V74.59Z"/><path class="cls-10" d="M124.44,68.44V66.07c0-1.73-3.64-6.3-8.17-7.27-2.15-.46-24.1,3.88-24.1,3.88l32.36,28.74Z"/><path class="cls-11" d="M119.84,92.12s4.69-1.36,4.69,2.53V81.09Z"/><path class="cls-10" d="M107.34,114.35c-5.38-3.88-1.72-9.26-1.72-9.26-4.71-6.62.21-9.47.21-9.47L92.06,96.69c2.41,5.11,5.46,15.37,5.16,19.44-.34,4.47-5.78-2.08-6.59,4.09l16.93,2.31C103.9,116.5,107.34,114.35,107.34,114.35Z"/><path class="cls-10" d="M122.06,145.68c14.2-19.48,30.41-35.33,30.61-33.9.87,6.24,1.71,10.85,1.71,10.85,0,4.52-17.88,23.94-27.07,36.63l-5.25-1.14Z"/><path class="cls-3" d="M120.75,63.51l-2.22-1.31a10.39,10.39,0,0,0-5.29-1.45L97,62.34a27.17,27.17,0,0,0-12.59,4.44c-4.56,3.09-9.08,8.26-8.93,16.57,0,2.17,11.14,3.32,12.06,4.87,1.74,2.93,3.54,8.28,6.94,8.28l18.45-1.25a10.53,10.53,0,0,0,8-3.71s2.62-4.49,2.62-6.9V68.44A5.72,5.72,0,0,0,120.75,63.51Z"/><path class="cls-3" d="M133.17,59.23l12.14-3.52c3.35-1,6.76-3.94,5.29-7.11l6.53,8.29s-.87,7.27-1.7,17.7c-.58,7.3-5.84,14.07-9.5,15.32-5,1.71-14.39,2.63-17-.57l-.21-.25a10.28,10.28,0,0,1-2.55-6.79V67C126.15,64.93,128.22,61.6,133.17,59.23Z"/><path class="cls-11" d="M122.45,122.45a4.09,4.09,0,0,1,2.22,1v-2.76L123.08,122A4.31,4.31,0,0,1,122.45,122.45Z"/><path class="cls-12" d="M50.53,248.69v7.75s-1.75,3.22-4.65,3.22C45.88,259.66,44.2,252.25,50.53,248.69Z"/><path class="cls-13" d="M57.63,131.35s-8.18,1.29-6.89,10.33,15.93,34,31.86,28.42S88.2,132.21,57.63,131.35Z"/><path class="cls-4" d="M84.32,128.34l-30.14,5.59C46,136.42,38,141.47,38.45,149.86c.61,11.87,10.17,12.54,14.64,11.85C79.46,157.62,82.22,172.28,111,155,130.4,143.42,84.32,128.34,84.32,128.34Z"/><path class="cls-14" d="M103.34,159.19l-1.8-7.17L74.19,151c-5.89-.37-16,4.66-16.66,11.16,12.51-1.54,17.41,4.55,30,3.91S102.07,162.79,103.34,159.19Z"/><path class="cls-15" d="M91.79,131.1c-4.31-1.73-7.47-2.76-7.47-2.76l-17.15,3.18c.64,2.2,1.06,3.6,1.06,3.6l.3-.12a25.36,25.36,0,0,0-1.63,6.62c0,2.58,3,19.66,4.17,21.49,4.3,1.24,10.25,3.22,16.46,2.91s9.83-1.11,12-2.26c-4.48-10.35-6-16.55-9.85-20.09a3.33,3.33,0,0,0,.71.28C90.55,139.3,90.65,135.21,91.79,131.1Z"/><path class="cls-13" d="M89.79,120.12l-5.24,9.61S110,137.53,117.6,165l5.1-.65V122.43s-24.4-1-31.83-7.43Z"/><path class="cls-16" d="M117.6,165l-35,5.13s3.87-3.87,2.15-11.62c-2.2-9.9-12.8-22.68-27.12-27.13,0,0,18.08-3.88,30-7.13C87.63,124.22,120.62,138.43,117.6,165Z"/><path class="cls-17" d="M68.08,136.39c8.74-3.46,19.87-7.07,19.55-12.17-11,2.77-30,7.13-30,7.13A40.4,40.4,0,0,1,68.08,136.39Z"/><path class="cls-4" d="M57.65,158s.92,11.24,1.33,21.05a54.54,54.54,0,0,1-4.72,24.81,32.94,32.94,0,0,1-2.63,4.95S35.26,177.38,57.65,158Z"/><path class="cls-18" d="M38.45,148.36s-7.32,22.82-5.6,41.34c1.65,17.71,2.59,45.64,2.15,54.68s12.75,4.91,12.75,4.91,3.88-36.6,6-46.08S57.65,158,57.65,158Z"/><path class="cls-18" d="M57.91,162.07s-.74-3.17,4.76-7.36c6.78-5.16.33-15.65-9-16.14-6.79-.36-13,3.14-15.1,9.63C35.61,157.25,57.91,162.07,57.91,162.07Z"/><path class="cls-4" d="M44.19,204.7c-.57,18.47-1.54,31.07-2.19,45.07a31.66,31.66,0,0,0,5.75-.48s2.28-24.84,4.48-37.2c.31-.62,7.32-17.66,6.75-33-.25-6.7-.53-15.17-.83-19.17C55.3,163.49,45.17,172.92,44.19,204.7Z"/><path class="cls-19" d="M34.37,241.86s-1.83-1.93-2.4,2.23.31,7.27-3.34,13.21-7,8.76-7.31,11.58c-.52,4.45-.06,5.93-.06,5.93s1.69,3.34,9.28,3.54c6.78.17,11-.57,12.91-2.79,1.28-1.49,2.09-4.31,2.12-9.35s1.18-9.21,2.51-11.28-.75-9.86-.75-9.86A2.93,2.93,0,0,0,44.58,242C37.06,243.5,34.37,241.86,34.37,241.86Z"/><path class="cls-20" d="M47.13,243.79s1.22-.44,1.42-1.33a4,4,0,0,0,.1-1.49s1.24-.74,1.64,2.23a31.18,31.18,0,0,1,.24,5.49,33.42,33.42,0,0,1-1.66,5.05,44.67,44.67,0,0,0-1.77,8.9c-.26,4.16.63,15.8-15.36,14.9,9.53-2.67,9.87-8,9.87-8l.23-6.49a42.74,42.74,0,0,1,4.09-16.69Z"/><path class="cls-12" d="M44,275.78c.82-1.19,1.47-3.84,1.9-5.3-2.9,4.38-4.7,4.68-7.3,5-1.78.2-3.73-.39-6.69-.6-2.75-.2-5.49.74-7.82.15a4.64,4.64,0,0,1-3.06-2.31c0,1.53.15,2.76.15,2.76s1.65,3.93,9.24,4.12C34.24,279.68,41.65,279.46,44,275.78Z"/><path class="cls-12" d="M48.87,253.74a33.42,33.42,0,0,0,1.66-5.05,31.45,31.45,0,0,0-.05-3.59,22.31,22.31,0,0,0-4.15,10.17c-.46,4,.47,7.66.39,11.46.22-1.56.31-3,.38-4.09A44.67,44.67,0,0,1,48.87,253.74Z"/><path class="cls-12" d="M194.88,248.69v7.75s1.75,3.22,4.65,3.22C199.53,259.66,201.21,252.25,194.88,248.69Z"/><path class="cls-13" d="M187.78,131.35s8.18,1.29,6.89,10.33-15.93,34-31.86,28.42S157.21,132.21,187.78,131.35Z"/><path class="cls-4" d="M161.09,128.34l30.14,5.59c8.18,2.49,16.16,7.54,15.73,15.93-.61,11.87-10.17,12.54-14.64,11.85-26.37-4.09-29.13,10.57-57.93-6.68C115,143.42,161.09,128.34,161.09,128.34Z"/><path class="cls-14" d="M142.07,159.19l1.8-7.17L171.22,151c5.89-.37,16,4.66,16.65,11.16-12.5-1.54-17.4,4.55-30,3.91S143.34,162.79,142.07,159.19Z"/><path class="cls-12" d="M155.62,120.12l5.24,9.61s-25.42,7.8-33.05,35.24l-5.11-.65V122.43s24.41-1,31.84-7.43Z"/><path class="cls-13" d="M127.81,165l35,5.13s-3.87-3.87-2.15-11.62c2.2-9.9,12.8-22.68,27.12-27.13,0,0-18.08-3.88-30-7.13C157.78,124.22,124.79,138.43,127.81,165Z"/><path class="cls-17" d="M177.33,136.39c-8.74-3.46-19.87-7.07-19.55-12.17,11.05,2.77,30,7.13,30,7.13A40.4,40.4,0,0,0,177.33,136.39Z"/><path class="cls-4" d="M187.76,158s-.92,11.24-1.33,21.05a54.54,54.54,0,0,0,4.72,24.81,32.94,32.94,0,0,0,2.63,4.95S210.14,177.38,187.76,158Z"/><path class="cls-18" d="M207,148.36s7.32,22.82,5.6,41.34c-1.65,17.71-2.59,45.64-2.16,54.68s-12.74,4.91-12.74,4.91-3.88-36.6-6-46.08S187.76,158,187.76,158Z"/><path class="cls-18" d="M187.5,162.07s.74-3.17-4.76-7.36c-6.78-5.16-.33-15.65,9-16.14,6.79-.36,13,3.14,15.1,9.63C209.8,157.25,187.5,162.07,187.5,162.07Z"/><path class="cls-4" d="M201.22,204.7c.57,18.47,1.54,31.07,2.19,45.07a31.66,31.66,0,0,1-5.75-.48s-2.28-24.84-4.48-37.2c-.31-.62-7.32-17.66-6.75-33,.25-6.7.53-15.17.83-19.17C190.11,163.49,200.24,172.92,201.22,204.7Z"/><path class="cls-19" d="M211,241.86s1.83-1.93,2.4,2.23-.31,7.27,3.34,13.21,7,8.76,7.31,11.58c.52,4.45.06,5.93.06,5.93s-1.69,3.34-9.28,3.54c-6.78.17-11-.57-12.91-2.79-1.28-1.49-2.09-4.31-2.12-9.35s-1.18-9.21-2.51-11.28.75-9.86.75-9.86a2.93,2.93,0,0,1,2.75-3.06C208.35,243.5,211,241.86,211,241.86Z"/><path class="cls-20" d="M198.28,243.79s-1.22-.44-1.43-1.33a4.09,4.09,0,0,1-.09-1.49s-1.24-.74-1.64,2.23a31.18,31.18,0,0,0-.24,5.49,33.42,33.42,0,0,0,1.66,5.05,44.67,44.67,0,0,1,1.77,8.9c.26,4.16-.63,15.8,15.36,14.9-9.53-2.67-9.87-8-9.87-8l-.23-6.49a42.74,42.74,0,0,0-4.09-16.69Z"/><path class="cls-12" d="M201.37,275.78c-.82-1.19-1.47-3.84-1.9-5.3,2.9,4.38,4.7,4.68,7.3,5,1.78.2,3.73-.39,6.69-.6,2.75-.2,5.49.74,7.82.15a4.64,4.64,0,0,0,3.06-2.31c0,1.53-.15,2.76-.15,2.76s-1.65,3.93-9.24,4.12C211.17,279.68,203.76,279.46,201.37,275.78Z"/><path class="cls-12" d="M196.54,253.74a33.42,33.42,0,0,1-1.66-5.05,31.45,31.45,0,0,1,.05-3.59,22.31,22.31,0,0,1,4.15,10.17c.46,4-.47,7.66-.39,11.46-.22-1.56-.31-3-.38-4.09A44.67,44.67,0,0,0,196.54,253.74Z"/><path class="cls-10" d="M102.6,84.85s-1.5,7.75,1.94,9.26c2.83,1.24,9.47,1.08,14.86-.86,0,0-.86,1.72-4.74,3s-21.53,2.59-21.53,2.59l1.08-16.8Z"/><path class="cls-11" d="M90.87,115c2.18,1.9,5.82,3.32,9.88,4.38a97.38,97.38,0,0,0-.94-17.95c.21-1.51,2.36-14,2.36-14L95.72,74.52,81.29,97.12l4.95,23s1,.84,2.51,1.86l1-1.9Z"/><path class="cls-3" d="M76.48,130.53s12.08,13.74,16.65,17.83S99,160.2,105.62,174.09s8.59,19.3,8.59,19.3-5.22,9.83-13.83,8.2c0,0-5.82-8.09-11-14.66s-14-18.41-15.51-22.82c-1.58-4.69-3.44-15.07-3.44-17.65C71,140.64,74,130.06,76.48,130.53Z"/><path class="cls-21" d="M93.13,148.36c-2.08-1.86-5.72-5.73-9.07-9.38l-2.12-1.07s1.72,4.21,11.08,18.74c6.27,9.72,15,27.66,20.07,38.49a17.62,17.62,0,0,0,1.12-1.75s-2-5.41-8.59-19.3S97.7,152.45,93.13,148.36Z"/><path class="cls-3" d="M68.92,93.4S68.43,95.57,67,105s-1.21,14.18,1.58,24c1.72,6,3.19,11,3.19,11l9.9-3.69S89.82,108.52,68.92,93.4Z"/><path class="cls-4" d="M96.89,100.24s-.68,1,.64,6.62,1.14,21.12-.62,24.87c-2.64,5.6-2.77,10.83-2.92,17.06-1.92-.42-6.87-5.08-12-10.88-4.88-5.48-3.93-14.06-3.26-23S96.89,100.24,96.89,100.24Z"/><path class="cls-5" d="M86.68,65.36s9,1.07,14,9.08,0,18-3.84,25.8c0,0-17.56,8.28-18.21,14.68a44.43,44.43,0,0,0-4.91-12.23c-3.37-5.33-5.6-8.75-6.24-15.37S69.63,66.41,86.68,65.36Z"/><path class="cls-3" d="M86.68,65.36s8.18-.15,11.19,6.79c3.23,7.47-11.63,29.5-19.38,25.41-5.29-2.8-5.4-13.64-5.44-14C72.54,78.31,75.26,66.34,86.68,65.36Z"/><path class="cls-3" d="M83.73,107.74c5.82-3.68,13.16-7.5,13.16-7.5s1.19,9.79,1.34,11.91a89,89,0,0,1-.11,14c-.17,1.66-3.82,6-6.29,8.76a3.76,3.76,0,0,1-5.2.39,22.14,22.14,0,0,1-8.47-18A11.78,11.78,0,0,1,83.73,107.74Z"/><path class="cls-4" d="M71.71,130.17c-1.22-1.82-3-4.51-4.56-6.84.37,1.72.84,3.57,1.44,5.66,1.44,5,2.7,9.33,3.07,10.59C72.39,135.37,72.66,131.59,71.71,130.17Z"/><path class="cls-11" d="M124.67,98.85a4.67,4.67,0,0,1-4.2,3.87c-3.87.65-14.85,2.37-16.66-.23,0,0,0,3.41,4.57,3.22,3.55-.14,13.06-.73,13.06-.73s3.59.88,3.26,2.81Z"/><path class="cls-11" d="M105.16,112.16s-.11,2,6.92,1.86H121a4.05,4.05,0,0,0,3.62-2.2l0-.06v6.46s-.32-2.59-3.92-2.32a78.52,78.52,0,0,1-12.14-.31S105.23,115.24,105.16,112.16Z"/><path class="cls-10" d="M152.43,50.88c4.76,5.88,3.66,12.36,4,15.34l.59-6.26c.22-1.22,1.5-1.22,2.35-.33,1.64,1.72,5.88,5,5.88,5a63.89,63.89,0,0,1-6.79-9.86Z"/><path class="cls-22" d="M109.42,31.69V15.1S110.33,1.2,127.53,0V12L113.67,35.73Z"/><path class="cls-10" d="M111.07,31.41s-.45-2.69-2.55-2.69-1.34,3.89-.89,6.73,3.14,6.73,5.38,4.34S111.07,31.41,111.07,31.41Z"/><path class="cls-22" d="M145.6,31.69V15.1S144.72,1.2,127.53,0V12l13.82,23.77Z"/><path class="cls-10" d="M144,31.41s.45-2.69,2.54-2.69,1.35,3.89.9,6.73-3.14,6.73-5.38,4.34S144,31.41,144,31.41Z"/><path class="cls-4" d="M113.46,17.1,113,27.16l-1.94,5.92.93,7.26a22.35,22.35,0,0,0,9.88,15.82,3.34,3.34,0,0,0,1.87.56h3.18V12.48C117.78,12.67,113.46,17.1,113.46,17.1Z"/><path class="cls-3" d="M142,27.16l-.45-10.06s-4.47-4.63-14-4.63h-.6V56.72h4.69a2.38,2.38,0,0,0,1.53-.56,26.72,26.72,0,0,0,8.66-14.11l2.15-9Z"/><path class="cls-22" d="M112.62,19.84l7,1.83a31.47,31.47,0,0,0,15.72,0l7.26-1.86V15.32L127.53,9.83s-14.59,2.58-16.21,7.1S112.62,19.84,112.62,19.84Z"/><path class="cls-23" d="M113.73,211.23a33.27,33.27,0,0,0,2.38,12.57h29.14a34.68,34.68,0,0,0,0-25.15H116.11A33.29,33.29,0,0,0,113.73,211.23Z"/><path class="cls-24" d="M125.1,234.53v1.37h5.62c6.19,0,11.59-4.88,14.53-12.1H116.11C118.13,228.76,121.31,232.6,125.1,234.53Z"/><path class="cls-25" d="M130.67,186.55H125.1v1.38c-3.79,1.92-7,5.76-9,10.72h29.14C142.3,191.41,136.88,186.55,130.67,186.55Z"/><ellipse class="cls-24" cx="125.06" cy="211.23" rx="17.78" ry="24.67"/><ellipse class="cls-24" cx="124.42" cy="211.23" rx="14.91" ry="22"/><path class="cls-3" d="M113.37,192.28a8.75,8.75,0,0,1,7.1,6.67,100.74,100.74,0,0,0,3.45,11l-14.43,4.53L95.93,203.05l.86-13.57Z"/><path class="cls-4" d="M121.21,201.7c-.2,1-.67,2-1.81,2-2.16,0-11.2,1.08-11.2,1.08l.22,4.3,14.66-1.42C122.57,206.17,121.88,204.09,121.21,201.7Z"/><path class="cls-23" d="M124.42,206H95.18v10.4h29.24c2.07,0,3.75-2.33,3.75-5.2S126.49,206,124.42,206Z"/><path class="cls-3" d="M115.74,220.05l2.51-.14a4.28,4.28,0,0,0,2.43-.92l2.45-1.94a5.67,5.67,0,0,0,2.05-3.37l.51-2.62a6.21,6.21,0,0,0-.48-3.82,3.21,3.21,0,0,0-2.89-1.83H114Z"/><path class="cls-3" d="M125.69,211.06a6.21,6.21,0,0,0-.48-3.82,3.21,3.21,0,0,0-2.89-1.83H114l.76,6.46h10.76Z"/><path class="cls-4" d="M114.77,211.87l1,8.18,2.51-.14a4.28,4.28,0,0,0,2.43-.92l2.45-1.94a5.67,5.67,0,0,0,2.05-3.37l.35-1.81Z"/><path class="cls-23" d="M84.56,211.23a33.47,33.47,0,0,0,2.37,12.57h29.15a34.68,34.68,0,0,0,0-25.15H86.94A33.29,33.29,0,0,0,84.56,211.23Z"/><path class="cls-24" d="M95.93,234.53v1.37h5.62c6.18,0,11.58-4.88,14.53-12.1H86.93C89,228.76,92.13,232.6,95.93,234.53Z"/><path class="cls-25" d="M101.5,186.55H95.93v1.37c-3.79,1.93-7,5.77-9,10.73h29.14C113.13,191.41,107.7,186.55,101.5,186.55Z"/><ellipse class="cls-24" cx="95.89" cy="211.23" rx="17.78" ry="24.67"/><ellipse class="cls-26" cx="95.25" cy="211.23" rx="14.91" ry="22"/><path class="cls-23" d="M79.33,211.23a24.25,24.25,0,0,0,1.72,9.12H102.2a25.13,25.13,0,0,0,0-18.25H81.05A24.26,24.26,0,0,0,79.33,211.23Z"/><path class="cls-24" d="M87.58,228.13v1h4.08c4.48,0,8.4-3.53,10.54-8.77H81.05A14.75,14.75,0,0,0,87.58,228.13Z"/><path class="cls-25" d="M91.62,193.33h-4v1a14.79,14.79,0,0,0-6.53,7.78h21.14C100.05,196.85,96.12,193.33,91.62,193.33Z"/><ellipse class="cls-24" cx="87.55" cy="211.23" rx="12.9" ry="17.9"/><path class="cls-23" d="M84.84,206h-.11c-2,.05-3.68,2.36-3.68,5.2s1.64,5.14,3.68,5.2h1.66c2-.06,3.68-2.36,3.68-5.2s-1.64-5.15-3.68-5.2Z"/><path class="cls-25" d="M90.07,211.27c0-2.88-1.64-5.19-3.68-5.24H84.73c-2,.05-3.68,2.36-3.68,5.2C81.05,211.27,90.07,211.27,90.07,211.27Z"/><path class="cls-23" d="M84.69,206.14h-.11c-2,.05-3.6,2.31-3.6,5.09s1.61,5,3.6,5.08h0c2-.05,3.59-2.3,3.59-5.08s-1.6-5-3.6-5.09Z"/><path class="cls-24" d="M84.66,207.05h-.08c-1.64,0-3,1.89-3,4.17s1.31,4.13,3,4.17h0c1.63,0,3-1.89,3-4.17s-1.32-4.13-3-4.17C84.55,207.06,84.69,207.06,84.66,207.05Z"/><path class="cls-3" d="M191.09,125.11a5.4,5.4,0,0,1-5.05,3.51l-7.43.8c-1.85,0-4,.32-4.7,2L170,140.18l1.29,8.83a9.18,9.18,0,0,0,4.95,1.08c2.8-.22,3.45-6,3.45-6s3.87-7.11,11.84-7.11h6.67s4.09-1.29,5.17-7.32l-9-4.95Z"/><path class="cls-4" d="M191.09,84.45c-1.47,8.4.59,10.21.43,24.08-.1,8.62-.33,13.85-.51,16.78a5.33,5.33,0,0,1-5,3.31s6.12,1.23,7.2-3.29.21-22.82.21-22.82A117.25,117.25,0,0,1,191.09,84.45Z"/></g></g></g></svg>