<svg xmlns="http://www.w3.org/2000/svg" viewBox="0 0 119.72 252.13"><defs><style>.cls-1{isolation:isolate;}.cls-2{fill:#c69575;}.cls-3{fill:#ddbaa1;}.cls-4{fill:#d6ab8c;}.cls-5{fill:#e2c4af;}.cls-6{fill:#d9d8ec;}.cls-7{fill:#c6c5e3;}.cls-8{fill:#3a3c3b;}.cls-9{fill:#b37b55;}.cls-10{fill:#2d241f;}.cls-11{fill:#9c6a51;}.cls-12{mix-blend-mode:multiply;}.cls-13{fill:#e8c9af;}.cls-14{fill:#151515;}.cls-15{fill:#28b0b8;}.cls-16{fill:#2f2f2f;}.cls-17{fill:#cbcbcb;}.cls-18{fill:#ededed;}.cls-19{fill:#767676;}.cls-20{fill:#d8af92;}.cls-21{fill:#c08a67;}</style></defs><title>curl1</title><g class="cls-1"><g id="Calque_2" data-name="Calque 2"><g id="Layer_2" data-name="Layer 2"><path class="cls-2" d="M26.51,83.7s-5.4,9.89-5,19.63c.62,14,.56,17.58,0,27.39l10.08.22s-.37-1.9,4.46-19.57c1.09-4,4.49-15.88,1-25.63C35.64,81.83,26.51,83.7,26.51,83.7Z"/><path class="cls-2" d="M37.05,85.91c.83-1.35,2.28-6.79,2.28-20.69-3.08-16-8.68-6.54-8.68-6.54V92.52A24.77,24.77,0,0,0,37.05,85.91Z"/><path class="cls-3" d="M36.72,42.59a20.49,20.49,0,0,0-9.26,4.26c-4.13,3.56-5,13.54-1.75,21.25A21,21,0,0,0,38.13,55C41.23,44.93,36.72,42.59,36.72,42.59Z"/><path class="cls-4" d="M35.33,74.48C34.91,65.64,28.12,65,28.12,65l-1.71.77a136.58,136.58,0,0,0-1.36,15.88c0,5.58,2,7.66,3.22,9.07.67.8,2,.27,2.72-.47C31.9,89.37,35.88,85.79,35.33,74.48Z"/><path class="cls-5" d="M23.34,77.71c.1,6.85,2.19,9.17,3,10.69a19.43,19.43,0,0,1-1-7.49c0-2.64.67-9.19,2.91-11.53.75-.79-1.92-4.22-3.05-5.25A47.78,47.78,0,0,0,23.34,77.71Z"/><path class="cls-2" d="M28.16,70c2.19-1,9.24-7.79,8.7-12.35-6.68,10.79-13.34,3.69-12.75-3.3C22.67,60.81,24.35,67.54,28.16,70Z"/><path class="cls-4" d="M59.08,97.1a58.06,58.06,0,0,1-18.26-3.37l0,.06a199.72,199.72,0,0,1-3.13,22.39c-.69,6.1-7,11.43-3.37,49.11l4.76,12a7,7,0,0,0,3.07,2.86l.67.62.05-.4c3,.57,7-6.19,8.08-11.39.58-2.81,5.94-29.9,7.07-38a4,4,0,0,1,1.09-.13Z"/><path class="cls-4" d="M47.34,174.26s.58,7.19.85,13.48a35,35,0,0,1-3,15.89,22.49,22.49,0,0,1-1.69,3.17S33,186.67,47.34,174.26Z"/><path class="cls-4" d="M35.62,168.74s-4,17.65-3.45,26.47,1.11,26.2.83,32,8,5.52,8,5.52,2.48-23.44,3.86-29.51,2.48-29,2.48-29Z"/><path class="cls-3" d="M36.12,204.17c0,10,.76,23.61,0,28.86a39.61,39.61,0,0,0,4.88-.31s2.09-19.79,3.5-27.71c.2-.39.43-.85.67-1.38a35,35,0,0,0,3-15.89c-.18-4.29-.51-9-.7-11.56C45.66,178.49,36.12,186.79,36.12,204.17Z"/><path class="cls-6" d="M32.43,228s-1.18-1.23-1.54,1.43.2,4.66-2.14,8.46-4.47,5.61-4.68,7.42a10.72,10.72,0,0,0,0,3.8s1.08,2.13,5.94,2.26c4.35.11,7-.36,8.27-1.79.82-.95,1.34-2.75,1.36-6a14.85,14.85,0,0,1,1.6-7.22c.85-1.33-.47-6.31-.47-6.31a1.89,1.89,0,0,0-1.77-2C34.15,229,32.43,228,32.43,228Z"/><path class="cls-7" d="M40.6,229.2s.78-.28.91-.85a2.63,2.63,0,0,0,.06-1s.79-.47,1,1.43a19.36,19.36,0,0,1,.15,3.52,20.57,20.57,0,0,1-1.06,3.23,28.46,28.46,0,0,0-1.13,5.7c-.17,2.66.4,10.12-9.84,9.55,6.11-1.72,6.33-5.14,6.33-5.14l.14-4.16a27.34,27.34,0,0,1,2.62-10.69Z"/><path class="cls-8" d="M38.62,249.69a14.27,14.27,0,0,0,1.21-3.4c-1.85,2.81-3,3-4.67,3.19a31.41,31.41,0,0,1-4.28-.38c-1.77-.13-3.52.47-5,.09a2.94,2.94,0,0,1-2-1.48c0,1,.1,1.77.1,1.77s1,2.52,5.91,2.64C32.35,252.19,37.09,252.05,38.62,249.69Z"/><path class="cls-8" d="M41.71,235.57a20.57,20.57,0,0,0,1.06-3.23,17.37,17.37,0,0,0,0-2.3,14.27,14.27,0,0,0-2.65,6.51c-.3,2.58.3,4.9.25,7.34.14-1,.2-1.92.24-2.62A28.46,28.46,0,0,1,41.71,235.57Z"/><path class="cls-4" d="M46.22,160.74s-9.38-1-11.4,3.48c-1.38,3-2.19,14.82,1.59,19.13,1.86,2.13,10.1-5.51,10.1-10.75S46.22,160.74,46.22,160.74Z"/><path class="cls-9" d="M52.9,158.88l-2-10.69-17.52,4.44c.18,3.76.48,8,.94,12.66l.1.25C34.24,166.1,52.53,160.8,52.9,158.88Z"/><polygon class="cls-4" points="52.34 32.75 38.75 41.94 59.89 41.94 59.89 32.75 52.34 32.75"/><path class="cls-9" d="M50.81,36.64V34L41.1,40.41A30.55,30.55,0,0,1,50.81,36.64Z"/><polygon class="cls-4" points="50.81 25.57 50.81 39.93 59.89 39.93 59.89 26.33 50.81 25.57"/><path class="cls-10" d="M48.32,18.29V9.67S48.88.77,59.89,0V5.65L51,20.88Z"/><path class="cls-3" d="M49.37,18.39s-.28-1.73-1.62-1.73-.87,2.49-.58,4.31,2,4.31,3.45,2.78S49.37,18.39,49.37,18.39Z"/><path class="cls-11" d="M59.89,33.37H58a2.15,2.15,0,0,1-1.52-.62L50.81,27.2h9.08Z"/><path class="cls-4" d="M50.91,7.56l-.29,4.31L49.37,15v5.65l1.44,6.52,5.49,3.61a2.2,2.2,0,0,0,1.2.36h2.39V4.6C53.76,4.6,50.91,7.56,50.91,7.56Z"/><path class="cls-4" d="M32.08,44.84S30.62,48,34,60.05c.59,2.15,4.35,2.76,5.59,6.42C41.75,73,41.6,83.21,41.4,85.85c-.26,3.56-2.28,18.76-2.28,18.76,0,3.9,20.77,31.85,20.77,31.85l0-50.61V39.46S32.08,40.94,32.08,44.84Z"/><path class="cls-2" d="M39.32,103.07l12.85,2.06s-3.53-10.31-5-14.76a6.34,6.34,0,0,1,1-6.2c-3.93-4.86-1.38-8.29-1.38-8.29a14.45,14.45,0,0,1-2.54-8.95L38.09,73.7C39.64,77,41.6,83.24,41.4,85.85,41.19,88.72,39.84,99.11,39.32,103.07Z"/><g class="cls-12"><path class="cls-13" d="M56.36,30.81l-3.73-2.45,7.26,15.31V31.17H57.56A2.22,2.22,0,0,1,56.36,30.81Z"/></g><path class="cls-4" d="M53.47,65.18a40.11,40.11,0,0,1,6.42-1.38V58.51Z"/><path class="cls-2" d="M59.89,126.26V90.9l-1,.86a2.66,2.66,0,0,1-1.67.59H53.54c-4.08,0-5.31-.4-6.35-2A322.22,322.22,0,0,0,59.89,126.26Z"/><path class="cls-9" d="M58.06,44l-1.42-.85a6.74,6.74,0,0,0-3.39-.92H42.75a33.5,33.5,0,0,0-6.69,10.31l-.35-3.62c-3.09,4-2.55,10-1.81,11.42a40.68,40.68,0,0,0,3.36,6.54c.53,1.93.41,1.74.62,5.17.41,3.72,2.85,9.82,3.38,12,.09.12.56-16,3-17.07,0,0,6.51,0,10.14-1.59a10.21,10.21,0,0,0,3.73-2.77l1.72-2.07V47.23A3.71,3.71,0,0,0,58.06,44Z"/><path class="cls-9" d="M59.89,123.09c-9.09-12.47-16.26-22.92-19.16-30-.66,5.38-1.47,11.49-1.47,11.49,0,2.89,11.44,19,17.33,27.18l3.3-.73Z"/><path class="cls-9" d="M58.44,92a2.7,2.7,0,0,1,1.45.64V90.9l-1,.86A2.11,2.11,0,0,1,58.44,92Z"/><path class="cls-9" d="M51.6,92.17s-2.55.58-1.66,7.14l-2.75-8.94S48.43,92.13,51.6,92.17Z"/><path class="cls-2" d="M57.7,70.48c-2.35.63-5.37,1.56-7.73,2.25a6.31,6.31,0,0,1-3.82-.1,16.33,16.33,0,0,1-1.94-1.14l2.63,4.39a1.56,1.56,0,0,0,1.74.06,21.92,21.92,0,0,1,8.14-2.7,3,3,0,0,1,3.17,1.81V68.48A3.62,3.62,0,0,1,57.7,70.48Z"/><path class="cls-2" d="M57.92,80.57c-2.1.55-4.81,1.35-6.92,2a5.81,5.81,0,0,1-3.43-.08c-.6-.21-.88-.9-1.59-1.28l1.63,3.3a2.37,2.37,0,0,0,2.92.85,34.07,34.07,0,0,1,6.7-1.92c.88-.17,1.39-.35,2.07.06.26.16.59,1.15.59,1.15V78.83A3.23,3.23,0,0,1,57.92,80.57Z"/><path class="cls-3" d="M57.23,44l-1.42-.85a6.74,6.74,0,0,0-3.39-.92H41.92S34.06,46,34.22,56.31A5.17,5.17,0,0,0,36,59.82c1.56,1.52,3.07,3.09,5.25,3.09h11a6.76,6.76,0,0,0,5.13-2.37l.15-.19A6.63,6.63,0,0,0,59,56.11v-9A3.66,3.66,0,0,0,57.23,44Z"/><path class="cls-14" d="M39.48,99.72l-.7,1.62L36,108.22c-2.66,6.2-3.42,12.41-3.86,19.15l-2.39,30s9.1,7.66,27.09,2.9l3-24V104.48S44.23,103.86,39.48,99.72Z"/><path class="cls-15" d="M40.09,161.44c-.41-8.91-1.08-20.75-2-28.42-.89-7.38-3.11-12-5-14.64a89,89,0,0,0-1,9l-2.39,30S33.22,160.33,40.09,161.44Z"/><path class="cls-2" d="M38.3,92.52,21.87,111.64a180.53,180.53,0,0,1-.33,19.08l10.08.22s.15-9.17,4.56-21.91C37.06,106.46,39.48,98.72,38.3,92.52Z"/><path class="cls-3" d="M22.78,97.56s.28-7.52,2.48-8.21c.9-.28,4,2.76,4.56,8.83,0,0,2.27-6.48,5-9.38s3.51,11.17-1.45,23A54.77,54.77,0,0,0,29.4,128.1s-3.31.72-4.34,3.41l-3.15-4.84Z"/><path class="cls-4" d="M22,118.87c0,.73,0,1.44,0,2.15,0,.38,0,.73,0,1.08s0,.73,0,1.08,0,.73,0,1.09v.1c0,.35,0,.7-.05,1.06s0,.74-.05,1.12v.18c0,.36,0,.72-.06,1.1s0,.8-.06,1.2l0,.27-.06,1.21,1.34,0c.27-.26,1.05-.26,1.16-.81,1-4.81,2.05-15,.42-20.38-3-10-.23-20.62-.23-20.62L23.76,90a36.69,36.69,0,0,0-2.22,13.17c.14,3.27.25,6,.32,8.31,0,1,.06,1.86.07,2.72s0,1.66,0,2.44S22,118.13,22,118.87Z"/><path class="cls-3" d="M34.92,139.14,18.1,139l1.51-6.76s7.65-6.15,12.38-4.76l2.19,6.63a8.44,8.44,0,0,1,.66,3Z"/><path class="cls-4" d="M34.84,136H30.59s-3.31-.43-4.91-2.66v5.28l9.2.58Z"/><path class="cls-2" d="M30.92,148.24s2.62-.42,2.89-3.86-3.17-1.93-3.17-1.93Z"/><path class="cls-2" d="M25.27,131.82s1.37,5.52,6.06,7c3.76,1.22,0,2.21,0,2.21l-13.65.27-1.24-6.06Z"/><rect class="cls-16" y="138.94" width="49.13" height="6.66"/><polygon class="cls-16" points="42.95 154.22 41.78 158.07 41.78 126.47 42.95 130.31 42.95 154.22"/><polygon class="cls-17" points="36.25 154.22 37.42 158.07 37.42 126.47 36.25 130.31 36.25 154.22"/><rect class="cls-16" x="37.42" y="150.32" width="4.35" height="7.75"/><rect class="cls-18" x="37.42" y="126.47" width="4.35" height="7.75"/><rect class="cls-19" x="37.42" y="134.21" width="4.35" height="16.11"/><polygon class="cls-19" points="46.59 150.12 45.95 152.64 45.95 131.89 46.59 134.42 46.59 150.12"/><polygon class="cls-17" points="42.95 150.12 43.59 152.64 43.59 131.89 42.95 134.42 42.95 150.12"/><rect class="cls-16" x="43.59" y="147.55" width="2.37" height="5.09"/><rect class="cls-18" x="43.59" y="131.89" width="2.37" height="5.09"/><rect class="cls-19" x="43.59" y="136.98" width="2.37" height="10.58"/><polygon class="cls-16" points="6.18 154.22 7.35 158.07 7.35 126.47 6.18 130.31 6.18 154.22"/><polygon class="cls-17" points="12.88 154.22 11.71 158.07 11.71 126.47 12.88 130.31 12.88 154.22"/><rect class="cls-16" x="7.35" y="150.32" width="4.35" height="7.75"/><rect class="cls-18" x="7.35" y="126.47" width="4.35" height="7.75"/><rect class="cls-19" x="7.35" y="134.21" width="4.35" height="16.11"/><polygon class="cls-19" points="2.54 150.12 3.18 152.64 3.18 131.89 2.54 134.42 2.54 150.12"/><polygon class="cls-17" points="6.18 150.12 5.54 152.64 5.54 131.89 6.18 134.42 6.18 150.12"/><rect class="cls-16" x="3.18" y="147.55" width="2.37" height="5.09"/><rect class="cls-18" x="3.18" y="131.89" width="2.37" height="5.09"/><rect class="cls-19" x="3.18" y="136.98" width="2.37" height="10.58"/><path class="cls-2" d="M21,138.43a1.66,1.66,0,0,1,1.65,1.65v6.54a1.65,1.65,0,0,1-3.3,0v-6.54A1.66,1.66,0,0,1,21,138.43Z"/><path class="cls-2" d="M30.83,138.43a1.66,1.66,0,0,1,1.65,1.65v6.54a1.65,1.65,0,0,1-3.3,0v-6.54A1.66,1.66,0,0,1,30.83,138.43Z"/><path class="cls-2" d="M24.24,148.27a1.66,1.66,0,0,1-1.65-1.65V139a1.65,1.65,0,0,1,3.3,0v7.66A1.65,1.65,0,0,1,24.24,148.27Z"/><path class="cls-2" d="M27.52,148.27a1.66,1.66,0,0,1-1.65-1.65V139a1.65,1.65,0,0,1,3.3,0v7.66A1.65,1.65,0,0,1,27.52,148.27Z"/><path class="cls-3" d="M21,138.47a1.66,1.66,0,0,1,1.65,1.65v3.6a1.65,1.65,0,0,1-3.3,0v-3.6A1.65,1.65,0,0,1,21,138.47Z"/><path class="cls-2" d="M20.26,145.78a2.74,2.74,0,0,0,.06-4l-1-.95v4A6.63,6.63,0,0,1,20.26,145.78Z"/><path class="cls-3" d="M30.83,138.47a1.66,1.66,0,0,1,1.65,1.65v3.6a1.65,1.65,0,1,1-3.3,0v-3.6A1.65,1.65,0,0,1,30.83,138.47Z"/><path class="cls-3" d="M24.24,145.37a1.66,1.66,0,0,1-1.65-1.65V139a1.65,1.65,0,0,1,3.3,0v4.73A1.65,1.65,0,0,1,24.24,145.37Z"/><path class="cls-3" d="M27.52,145.37a1.66,1.66,0,0,1-1.65-1.65V139a1.65,1.65,0,0,1,3.3,0v4.73A1.65,1.65,0,0,1,27.52,145.37Z"/><path class="cls-5" d="M21.91,126.67a63.64,63.64,0,0,1-6.12,7.76,3.39,3.39,0,0,0-1,2.42V142s3.93,2.41,5,3.84a2.74,2.74,0,0,0,.05-4l-1-.95-.07-2.73s5.87-.06,6.9-5.38C26.85,126.72,21.91,126.67,21.91,126.67Z"/><path class="cls-2" d="M93.22,83.7s5.39,9.89,5,19.63c-.62,14-.56,17.58,0,27.39l-10.07.22s.36-1.9-4.47-19.57c-1.08-4-4.49-15.88-1-25.63C84.08,81.83,93.22,83.7,93.22,83.7Z"/><path class="cls-2" d="M82.67,85.91c-.83-1.35-2.27-6.79-2.27-20.69,3.07-16,8.67-6.54,8.67-6.54V92.52A24.77,24.77,0,0,1,82.67,85.91Z"/><path class="cls-3" d="M83,42.59a20.48,20.48,0,0,1,9.25,4.26c4.13,3.56,5,13.54,1.75,21.25A21,21,0,0,1,81.59,55C78.5,44.93,83,42.59,83,42.59Z"/><path class="cls-4" d="M84.39,74.48c.43-8.84,7.22-9.46,7.22-9.46l1.71.77a137.57,137.57,0,0,1,1.35,15.88c0,5.58-2,7.66-3.21,9.07-.68.8-2,.27-2.73-.47C87.83,89.37,83.84,85.79,84.39,74.48Z"/><path class="cls-5" d="M96.39,77.71c0,7.28-2.54,9-3.57,11.35.72-2.22,1.59-3.6,1.54-8.15,0-2.64-.67-9.19-2.9-11.53-.76-.79,1.91-4.22,3.05-5.25A54,54,0,0,1,96.39,77.71Z"/><path class="cls-2" d="M91.56,70c-2.19-1-9.23-7.79-8.69-12.35,6.68,10.79,13.34,3.69,12.74-3.3C97.05,60.81,95.37,67.54,91.56,70Z"/><path class="cls-4" d="M60.64,97.1a58.23,58.23,0,0,0,18.27-3.37.14.14,0,0,0,0,.06,201,201,0,0,0,3.14,22.39c.68,6.1,7,11.43,3.37,49.11l-4.77,12a7,7,0,0,1-3.07,2.86l-.66.62,0-.4c-3,.57-7-6.19-8.08-11.39-.58-2.81-5.94-29.9-7.08-38a4,4,0,0,0-1.09-.13Z"/><path class="cls-4" d="M72.38,174.26s-.58,7.19-.84,13.48a35,35,0,0,0,3,15.89,21.24,21.24,0,0,0,1.69,3.17S86.72,186.67,72.38,174.26Z"/><path class="cls-4" d="M84.11,168.74s4,17.65,3.44,26.47-1.1,26.2-.83,32-8,5.52-8,5.52-2.48-23.44-3.86-29.51-2.49-29-2.49-29Z"/><path class="cls-3" d="M83.6,204.17c0,10-.76,23.61,0,28.86a39.56,39.56,0,0,1-4.87-.31s-2.1-19.79-3.51-27.71q-.3-.58-.66-1.38a35,35,0,0,1-3-15.89c.18-4.29.51-9,.7-11.56C74.06,178.49,83.6,186.79,83.6,204.17Z"/><path class="cls-6" d="M87.3,228s1.17-1.23,1.53,1.43-.19,4.66,2.15,8.46,4.46,5.61,4.67,7.42a10.72,10.72,0,0,1,0,3.8s-1.08,2.13-5.94,2.26c-4.34.11-7-.36-8.27-1.79-.82-.95-1.33-2.75-1.35-6a14.72,14.72,0,0,0-1.61-7.22C77.67,235,79,230,79,230a1.88,1.88,0,0,1,1.76-2C85.57,229,87.3,228,87.3,228Z"/><path class="cls-7" d="M79.12,229.2s-.78-.28-.91-.85a2.63,2.63,0,0,1-.06-1s-.79-.47-1.05,1.43a20.5,20.5,0,0,0-.15,3.52A21.86,21.86,0,0,0,78,235.57a28.46,28.46,0,0,1,1.13,5.7c.17,2.66-.4,10.12,9.84,9.55-6.1-1.72-6.32-5.14-6.32-5.14l-.15-4.16a27.34,27.34,0,0,0-2.62-10.69Z"/><path class="cls-8" d="M81.11,249.69a14.29,14.29,0,0,1-1.22-3.4c1.86,2.81,3,3,4.67,3.19a31.66,31.66,0,0,0,4.29-.38c1.76-.13,3.51.47,5,.09a2.92,2.92,0,0,0,2-1.48,17.44,17.44,0,0,1-.09,1.77s-1.06,2.52-5.92,2.64C87.38,252.19,82.63,252.05,81.11,249.69Z"/><path class="cls-8" d="M78,235.57A21.86,21.86,0,0,1,77,232.34a19.76,19.76,0,0,1,0-2.3,14.36,14.36,0,0,1,2.66,6.51c.29,2.58-.3,4.9-.25,7.34-.14-1-.2-1.92-.25-2.62A28.46,28.46,0,0,0,78,235.57Z"/><path class="cls-4" d="M73.5,160.74s9.38-1,11.41,3.48c1.37,3,2.18,14.82-1.6,19.13-1.86,2.13-10.1-5.51-10.1-10.75S73.5,160.74,73.5,160.74Z"/><path class="cls-9" d="M85.8,158.88l-2-10.69-17.52,4.44c.06,1.25.13,2.55.22,3.9.68,3.5,1.29,6.65,1.74,8.92C71.93,164.68,85.48,160.53,85.8,158.88Z"/><polygon class="cls-3" points="67.38 32.75 80.97 41.94 59.89 41.94 59.89 32.75 67.38 32.75"/><path class="cls-9" d="M68.91,36.64V34l9.72,6.39A30.66,30.66,0,0,0,68.91,36.64Z"/><polygon class="cls-3" points="68.91 25.57 68.91 39.93 59.89 39.93 59.89 26.33 68.91 25.57"/><path class="cls-10" d="M71.4,18.29V9.67S70.9.77,59.89,0V5.65l8.79,15.23Z"/><path class="cls-3" d="M70.35,18.39s.29-1.73,1.63-1.73.86,2.49.57,4.31-2,4.31-3.45,2.78S70.35,18.39,70.35,18.39Z"/><path class="cls-11" d="M59.89,33.37H61.7a2.19,2.19,0,0,0,1.53-.62l5.68-5.55h-9Z"/><path class="cls-3" d="M68.82,7.56l.28,4.31L70.35,15v5.65L68.91,27.2l-5.48,3.61a2.25,2.25,0,0,1-1.2.36H59.89V4.6C66,4.6,68.82,7.56,68.82,7.56Z"/><path class="cls-3" d="M87.64,44.84S89.1,48,85.77,60.05c-.59,2.15-4.35,2.76-5.58,6.42C78,73,78.13,83.21,78.32,85.85c.27,3.56,2.29,18.76,2.29,18.76,0,3.9-20.72,31.85-20.72,31.85l0-50.61V39.46S87.64,40.94,87.64,44.84Z"/><path class="cls-20" d="M87.64,44.84c0-1.26-2.88-2.26-6.78-3.05-5.09-1-11.93-.93-16.39-.71a7,7,0,0,0-4.61,2.63V48.1s0-1,0-1c0-1.29,1.48-2.49,2.6-3.16l1.43-.84a6.68,6.68,0,0,1,3.38-.92H77.8S85.67,46,85.51,56.31a4.51,4.51,0,0,1-.8,2.37h1.43C89,47.76,87.64,44.84,87.64,44.84Z"/><path class="cls-4" d="M80.4,103.07l-12.85,2.06s3.54-10.31,5-14.76a6.36,6.36,0,0,0-1-6.2c3.94-4.86,1.38-8.29,1.38-8.29a14.37,14.37,0,0,0,2.54-8.95l6.22,6.77c-1.55,3.27-3.51,9.54-3.32,12.15C78.54,88.72,79.89,99.11,80.4,103.07Z"/><g class="cls-12"><path class="cls-13" d="M63.36,30.81l3.73-2.45-7.2,15.31V31.17h2.27A2.2,2.2,0,0,0,63.36,30.81Z"/></g><path class="cls-4" d="M66.25,65.18a39,39,0,0,0-6.36-1.38V58.51Z"/><path class="cls-2" d="M59.89,126.26V90.9l1,.86a2.66,2.66,0,0,0,1.67.59h3.63c4.08,0,5.31-.4,6.36-2A319.15,319.15,0,0,1,59.89,126.26Z"/><path class="cls-21" d="M61.66,44l1.43-.85a6.74,6.74,0,0,1,3.39-.92H77a33.57,33.57,0,0,1,6.68,10.31L84,48.92c3.08,4,2.55,10,1.8,11.42a39.88,39.88,0,0,1-3.36,6.54c-.53,1.93-.41,1.74-.62,5.17-.41,3.72-2.85,9.82-3.37,12-.09.12-.56-16-3-17.07,0,0-6.51,0-10.14-1.59a10.26,10.26,0,0,1-3.72-2.77L59.89,60.5V47.23A3.68,3.68,0,0,1,61.66,44Z"/><path class="cls-9" d="M59.89,123.09C69,110.62,76.1,100.17,79,93.12c.67,5.38,1.48,11.49,1.48,11.49,0,2.89-11.45,19-17.34,27.18l-3.24-.73Z"/><path class="cls-9" d="M61.29,92a2.57,2.57,0,0,0-1.4.64V90.9l1,.86A2.19,2.19,0,0,0,61.29,92Z"/><path class="cls-9" d="M68.13,92.17s2.54.58,1.65,7.14l2.76-8.94S71.3,92.13,68.13,92.17Z"/><path class="cls-2" d="M62,70.48c2.36.63,5.37,1.56,7.73,2.25a6.34,6.34,0,0,0,3.83-.1,17.17,17.17,0,0,0,1.94-1.14l-2.64,4.39a1.56,1.56,0,0,1-1.74.06A21.92,21.92,0,0,0,63,73.24a2.87,2.87,0,0,0-3.12,1.81V68.48A3.43,3.43,0,0,0,62,70.48Z"/><path class="cls-2" d="M61.8,80.57c2.11.55,4.81,1.35,6.93,2a5.78,5.78,0,0,0,3.42-.08c.61-.21.88-.9,1.59-1.28l-1.62,3.3a2.39,2.39,0,0,1-2.93.85,33.87,33.87,0,0,0-6.7-1.92c-.88-.17-1.39-.35-2.07.06-.26.16-.53,1.15-.53,1.15V78.83A3,3,0,0,0,61.8,80.57Z"/><path class="cls-3" d="M62.49,44l1.43-.85a6.68,6.68,0,0,1,3.38-.92H77.8S85.67,46,85.51,56.31a5.22,5.22,0,0,1-1.75,3.51c-1.56,1.52-3.06,3.09-5.24,3.09h-11a6.74,6.74,0,0,1-5.13-2.37l-.15-.19c-1-1.19-2.33-2.69-2.33-4.24v-9C59.89,45.86,61.37,44.66,62.49,44Z"/><path class="cls-14" d="M80.25,99.72l.69,1.62,2.77,6.88c2.66,6.2,3.42,12.41,3.87,19.15l2.39,30s-9.1,7.66-27.1,2.9l-3-24V104.48S75.49,103.86,80.25,99.72Z"/><path class="cls-15" d="M79.64,161.44c.4-8.91,1.07-20.75,2-28.42.9-7.38,3.12-12,5-14.64.49,2.92.76,5.9,1,9l2.39,30S86.5,160.33,79.64,161.44Z"/><path class="cls-2" d="M81.42,92.52l16.44,19.12a180.55,180.55,0,0,0,.32,19.08l-10.07.22S88,121.77,83.55,109C82.66,106.46,80.25,98.72,81.42,92.52Z"/><path class="cls-3" d="M96.94,97.56s-.75-8.69-2.6-8.07c-.83.28-4.28,2.9-4.44,8.69,0,0-2.27-6.48-5-9.38s-3.52,11.17,1.44,23a54.4,54.4,0,0,1,3.93,16.34s3.31.72,4.35,3.41l3.14-4.84Z"/><path class="cls-3" d="M84.81,139.14l16.82-.14-1.52-6.76s-7.65-6.15-12.37-4.76l-2.2,6.63a8.65,8.65,0,0,0-.65,3Z"/><path class="cls-4" d="M84.89,136h4.24s3.31-.43,4.92-2.66v5.28l-9.21.58Z"/><path class="cls-2" d="M88.81,148.24s-2.62-.42-2.9-3.86,3.17-1.93,3.17-1.93Z"/><path class="cls-2" d="M94.46,131.82s-1.38,5.52-6.07,7c-3.75,1.22,0,2.21,0,2.21l13.65.27,1.24-6.06Z"/><rect class="cls-16" x="70.59" y="138.94" width="49.13" height="6.66"/><polygon class="cls-16" points="76.78 154.22 77.95 158.07 77.95 126.47 76.78 130.31 76.78 154.22"/><polygon class="cls-17" points="83.47 154.22 82.3 158.07 82.3 126.47 83.47 130.31 83.47 154.22"/><rect class="cls-16" x="77.95" y="150.32" width="4.35" height="7.75"/><rect class="cls-18" x="77.95" y="126.47" width="4.35" height="7.75"/><rect class="cls-19" x="77.95" y="134.21" width="4.35" height="16.11"/><polygon class="cls-19" points="73.13 150.12 73.77 152.64 73.77 131.89 73.13 134.42 73.13 150.12"/><polygon class="cls-17" points="76.77 150.12 76.14 152.64 76.14 131.89 76.77 134.42 76.77 150.12"/><rect class="cls-16" x="73.77" y="147.55" width="2.37" height="5.09"/><rect class="cls-18" x="73.77" y="131.89" width="2.37" height="5.09"/><rect class="cls-19" x="73.77" y="136.98" width="2.37" height="10.58"/><polygon class="cls-16" points="113.54 154.22 112.37 158.07 112.37 126.47 113.54 130.31 113.54 154.22"/><polygon class="cls-17" points="106.84 154.22 108.02 158.07 108.02 126.47 106.84 130.31 106.84 154.22"/><rect class="cls-16" x="108.02" y="150.32" width="4.35" height="7.75"/><rect class="cls-18" x="108.02" y="126.47" width="4.35" height="7.75"/><rect class="cls-19" x="108.02" y="134.21" width="4.35" height="16.11"/><polygon class="cls-19" points="117.19 150.12 116.55 152.64 116.55 131.89 117.19 134.42 117.19 150.12"/><polygon class="cls-17" points="113.55 150.12 114.18 152.64 114.18 131.89 113.55 134.42 113.55 150.12"/><rect class="cls-16" x="114.18" y="147.55" width="2.37" height="5.09"/><rect class="cls-18" x="114.18" y="131.89" width="2.37" height="5.09"/><rect class="cls-19" x="114.18" y="136.98" width="2.37" height="10.58"/><path class="cls-2" d="M98.74,138.43a1.66,1.66,0,0,0-1.65,1.65v6.54a1.65,1.65,0,0,0,3.3,0v-6.54A1.66,1.66,0,0,0,98.74,138.43Z"/><path class="cls-2" d="M88.9,138.43a1.66,1.66,0,0,0-1.65,1.65v6.54a1.65,1.65,0,1,0,3.3,0v-6.54A1.66,1.66,0,0,0,88.9,138.43Z"/><path class="cls-2" d="M95.48,148.27a1.65,1.65,0,0,0,1.65-1.65V139a1.65,1.65,0,1,0-3.3,0v7.66A1.65,1.65,0,0,0,95.48,148.27Z"/><path class="cls-2" d="M92.2,148.27a1.65,1.65,0,0,0,1.65-1.65V139a1.65,1.65,0,1,0-3.3,0v7.66A1.65,1.65,0,0,0,92.2,148.27Z"/><path class="cls-3" d="M98.74,138.47a1.65,1.65,0,0,0-1.65,1.65v3.6a1.65,1.65,0,0,0,3.3,0v-3.6A1.66,1.66,0,0,0,98.74,138.47Z"/><path class="cls-2" d="M99.46,145.78a2.74,2.74,0,0,1,0-4l1-.95v4A6.25,6.25,0,0,0,99.46,145.78Z"/><path class="cls-3" d="M88.9,138.47a1.65,1.65,0,0,0-1.65,1.65v3.6a1.65,1.65,0,1,0,3.3,0v-3.6A1.65,1.65,0,0,0,88.9,138.47Z"/><path class="cls-3" d="M95.48,145.37a1.65,1.65,0,0,0,1.65-1.65V139a1.65,1.65,0,1,0-3.3,0v4.73A1.65,1.65,0,0,0,95.48,145.37Z"/><path class="cls-3" d="M92.2,145.37a1.65,1.65,0,0,0,1.65-1.65V139a1.65,1.65,0,1,0-3.3,0v4.73A1.65,1.65,0,0,0,92.2,145.37Z"/><path class="cls-4" d="M97.67,118.87c0,.73,0,1.44,0,2.15,0,.38,0,.73,0,1.08s0,.73,0,1.08,0,.73,0,1.09v.1c0,.35,0,.7,0,1.06s0,.74.05,1.12v.18c0,.36,0,.72,0,1.1s.05.8.07,1.2v.27c0,.4,0,.8.07,1.21l-1.34,0c-.27-.26-1.06-.26-1.17-.81-1-4.81-2-15-.41-20.38,3-10,.23-20.62.23-20.62L95.89,90a36.69,36.69,0,0,1,2.22,13.17c-.14,3.27-.25,6-.32,8.31,0,1-.06,1.86-.07,2.72s0,1.66,0,2.44S97.67,118.13,97.67,118.87Z"/><path class="cls-5" d="M97.81,126.67a63.07,63.07,0,0,0,6.13,7.76,3.39,3.39,0,0,1,1,2.42V142s-3.93,2.41-5,3.84a2.74,2.74,0,0,1-.06-4l1-.95.06-2.73s-5.87-.06-6.89-5.38C92.87,126.72,97.81,126.67,97.81,126.67Z"/></g></g></g></svg>