<svg xmlns="http://www.w3.org/2000/svg" viewBox="0 0 103.55 165.37"><defs><style>.cls-1{fill:silver;}.cls-2{fill:#acacac;}.cls-3{fill:#909090;}.cls-4{fill:#d6ab8c;}.cls-5{fill:#dab498;}.cls-6{fill:#e2c4af;}.cls-7{fill:#d1a07d;}.cls-8{fill:#d8af92;}.cls-9{fill:#d4a685;}.cls-10{fill:#dfbda6;}.cls-11{fill:#c69575;}.cls-12{fill:#ddbaa1;}.cls-13{fill:#e4c9b5;}.cls-14{fill:#b37b55;}.cls-15{fill:#d9d8ec;}.cls-16{fill:#3a3c3b;}.cls-17{fill:#1c1b16;}.cls-18{fill:#4d4f4e;}.cls-19{fill:#ddbaa0;}.cls-20{fill:#2f2924;}.cls-21{fill:#151515;}.cls-22{fill:#28b0b8;}.cls-23{fill:#bdbdbe;}</style></defs><title>traction1</title><g id="Calque_2" data-name="Calque 2"><g id="Layer_2" data-name="Layer 2"><rect class="cls-1" x="3.97" y="3.62" width="95.61" height="2.43"/><rect class="cls-2" x="3.97" y="4.35" width="95.61" height="0.95"/><polygon class="cls-3" points="14.02 6.04 19.94 6.04 16.62 3.62 16.45 3.62 14.02 6.04"/><polygon class="cls-3" points="77.38 6.04 83.31 6.04 79.99 3.62 79.81 3.62 77.38 6.04"/><path class="cls-4" d="M81.88,34.63a36.58,36.58,0,0,1-7.74,12l1.21-13.93s-.55-2,1.33-7.41Z"/><path class="cls-4" d="M76,44.34c4.39-5.16,5.53-9.29,5.53-9.29V32.73l-2.93-1.49s0,2.82-3.15,8Z"/><path class="cls-4" d="M75.91,26c.51-2.06,1.73-5,2-6,1.17-4.13,1.09-4.29,1.69-9.69l5.76.83a67.54,67.54,0,0,0-.36,9c0,2.37.47,7.3-1.51,12.06-.51,1.23-2,3.15-2.27,3.89a2.73,2.73,0,0,1-3.37,1.38C76.74,37,74.24,32.68,75.91,26Z"/><path class="cls-5" d="M78.29,21.84c1.51-5.65,2.18-7.73,2.76-12.91l3.48.51S84,16,84,21.5c0,1.86,0,8-2.47,12.61-.92,1.74-3,6-3.32,4.65A36.63,36.63,0,0,1,78.29,21.84Z"/><path class="cls-4" d="M80.55,29c.37-2.07,2.66-17.7,2.66-17.7.88,0,1-.33,1-.33l.16.09c-.15,2.29-.41,6.6-.42,10.41a24.08,24.08,0,0,1-5.79,17.26C79.25,35.35,79.29,36.16,80.55,29Z"/><path class="cls-6" d="M80.71,5.89a.9.9,0,0,0,.9-.91V3A.91.91,0,1,0,79.8,3V5A.91.91,0,0,0,80.71,5.89Z"/><path class="cls-6" d="M82.53,5.89a.9.9,0,0,0,.9-.91V3a.91.91,0,1,0-1.81,0V5A.91.91,0,0,0,82.53,5.89Z"/><path class="cls-6" d="M84.33,5.89A.91.91,0,0,0,85.24,5V3a.91.91,0,1,0-1.82,0V5A.91.91,0,0,0,84.33,5.89Z"/><path class="cls-6" d="M86.17,6.39a.91.91,0,0,0,.91-.91V3.54a.91.91,0,1,0-1.82,0V5.48A.91.91,0,0,0,86.17,6.39Z"/><path class="cls-5" d="M77.11,6H78a2.18,2.18,0,0,0,1.77-.89l.1-.05a1.7,1.7,0,0,1,1.73.05,1.87,1.87,0,0,1,1.86,0,1.76,1.76,0,0,1,1.76,0,.16.16,0,0,0,.1,0,1.41,1.41,0,0,1,1.73.47,31,31,0,0,1-.44,3.2,9.2,9.2,0,0,1-1.37,2.64,11.52,11.52,0,0,0-5.53-.18L77.48,8.69a1.64,1.64,0,0,1-.37-1.37Z"/><path class="cls-6" d="M82.47,31.35c.59-1.57,1.21-3.65,1.32-8.3s.45-12,.45-12A8.14,8.14,0,0,0,86.3,8.13a10.49,10.49,0,0,0,.78-2.53,31,31,0,0,1-.44,3.2,8.76,8.76,0,0,1-1.32,2.56,78.4,78.4,0,0,0-.33,8.8c0,2.37.47,7.3-1.51,12.06a35.9,35.9,0,0,1-2.27,3.89S81.07,35.07,82.47,31.35Z"/><path class="cls-7" d="M77.11,7.32V6H78a4.69,4.69,0,0,1,0,.94c0,1.25,1.59,2.11,1.92,2.42a1.91,1.91,0,0,1,.75,1.7c-.6.07-1,.16-1,.16s-.7-.7-2.26-2.57A1.68,1.68,0,0,1,77.11,7.32Z"/><path class="cls-8" d="M51.79,53.71s14.87.77,14.87,2.86c0,0,1,1.52-.34,7a60,60,0,0,1-1.88,8.63s-2.5,8.45-2.51,8.4A79,79,0,0,0,51.79,94.33Z"/><path class="cls-9" d="M58,85.27a86,86,0,0,0-5,7.11H51.79V70.78S54.12,77.19,58,81.32Z"/><path class="cls-7" d="M61,71.39C62.53,68,63.63,66.08,66.29,64c-.33,1.73-1.2,6.24-1.85,8.39,0,0-2.5,8.26-2.51,8.21s-5,5.68-8.55,10.77C54.34,86,58.25,77.43,61,71.39Z"/><path class="cls-10" d="M53.27,58.7c2.29-1.85,4.94-7.19,4.94-7.19L71.37,49.6c-2.43,5.75-2.28,8.16-3.31,10.95-.81,2.16-1.9,4.85-6.64,6.52-1.88.67-6.29-.78-8.15-1.52Z"/><path class="cls-11" d="M62.93,88.53c0,2.09-11.14,17-11.14,17V94.33A79,79,0,0,1,61.93,80.58C61.87,81,62.91,88.25,62.93,88.53Z"/><path class="cls-12" d="M52.2,92.82a20,20,0,0,1,6-8.4s3.48-1.85,3.8,6S52.2,92.82,52.2,92.82Z"/><path class="cls-12" d="M58.44,44.31c-.42.86-1.29,1.84-2,1.25-.42-.34,0-1.69.41-2.56s1.1-1.4,1.6-1.18S58.84,43.46,58.44,44.31Z"/><polygon class="cls-11" points="56.33 46.7 57.11 44.79 56.82 43 54.9 42.98 56.33 46.7"/><path class="cls-11" d="M51.79,41.61V56.12c2.26.18,4.5-.07,4.73-.86V43.46Z"/><path class="cls-4" d="M54.76,44.75v4.13c0,.11,0,.21,0,.31s0,.06,0,.09l0,.19,0,.11a.88.88,0,0,0,0,.15.3.3,0,0,0,0,.1L55,50l0,.09a.62.62,0,0,0,.08.12l.06.09.09.11.07.08.1.1.09.08.11.09.09.06.12.09.1.06.13.07.1.06.15.07.1,0,.17.07.1.05.27.1.11,0,.17.06.15.05.12,0a6.67,6.67,0,0,0-5.74,4.52V44.75Z"/><path class="cls-7" d="M77.29,30.35s2.09,8.08-.05,14.27c-2,5.75-4.54,7.41-7.86,9.29l-.66-1.55-.66-5.2L74.8,36l.67-4.2Z"/><path class="cls-4" d="M67.72,46.61s-.88-3.65,3.1-11.17a13.33,13.33,0,0,1,4.53-4.64c.67,1,1.17,4.26,1.15,7.15,0,5.38-3.84,11.06-8.7,13C59.89,54,67.72,46.61,67.72,46.61Z"/><path class="cls-6" d="M67.72,46.61s-.88-3.65,3.1-11.17a13.33,13.33,0,0,1,4.53-4.64c.23.33.22-.1.39.77-2.1,2.16-5.84,6.32-6.62,16.55-.4,5.32-1.63,3.7-2.85.36C67,47.42,67.72,46.61,67.72,46.61Z"/><path class="cls-4" d="M69.88,43.24l-2.06.38a26.52,26.52,0,0,1,2.81-7.8C70.24,36.67,69.44,39,69.88,43.24Z"/><path class="cls-12" d="M55.89,55.13c1.44-7.41,3-7.63,12.28-12.83,0,0,4.35-.37.55,10.06-.89.94-5.25.67-7.08.33C58.73,53,55.79,55.62,55.89,55.13Z"/><path class="cls-13" d="M68.17,42.3a1.24,1.24,0,0,1,1.71.94c-9.73,4.09-8.24,9.45-8.24,9.45l-5.32.45C57.71,47.63,59.79,47,68.17,42.3Z"/><path class="cls-5" d="M61.64,52.69c1.59.59,1.45,3.62,1.14,4.58-3.83,11.94-11,13.51-11,13.51V56.12C53.46,49.71,61.64,52.69,61.64,52.69Z"/><path class="cls-9" d="M58.21,51.51s-5.54,4.84-6.42,19.27V50.26Z"/><path class="cls-12" d="M61.75,50.76a12.72,12.72,0,0,0-.11,1.93c-7.3-.77-9.85,3.43-9.85,3.43C53.46,49.71,61.75,50.76,61.75,50.76Z"/><path class="cls-14" d="M66.18,61.76c1.7-3,2.54-9.4,2.54-9.4a1.64,1.64,0,0,1,1.51.22c-1.28,3.71-1.34,5.72-2.17,8s-1.9,4.85-6.64,6.52A16.25,16.25,0,0,0,66.18,61.76Z"/><path class="cls-14" d="M75.65,48.21c-1.7,3-3.74,4.27-6.21,5.67l-.11-.23-.27-1.39A14.8,14.8,0,0,0,75.65,48.21Z"/><path class="cls-11" d="M78.19,38.76a36,36,0,0,0,4.28-7.41s-1,3.54-1.26,4.76l0,0A28.07,28.07,0,0,1,78,41.85,17.6,17.6,0,0,0,78.19,38.76Z"/><path class="cls-6" d="M86.3,8.13a10.49,10.49,0,0,0,.78-2.53,31,31,0,0,1-.44,3.2,8.76,8.76,0,0,1-1.32,2.56L84.24,11A8.14,8.14,0,0,0,86.3,8.13Z"/><path class="cls-8" d="M56.86,51.37c1.17-3.24,3.07-4.49,7.8-7.13A16.16,16.16,0,0,0,59.1,49.3a7.62,7.62,0,0,0-.83,2A8.72,8.72,0,0,0,56.86,51.37Z"/><path class="cls-8" d="M51.79,56.12a7.89,7.89,0,0,1,8.56-4.61s-3.56-.92-5.6-.07A5.4,5.4,0,0,0,51.79,56.12Z"/><path class="cls-4" d="M21.67,34.63a36.58,36.58,0,0,0,7.74,12L28.19,32.68s.56-2-1.32-7.41Z"/><path class="cls-4" d="M27.53,44.34C23.14,39.18,22,35.05,22,35.05V32.73l2.93-1.49s0,2.82,3.15,8Z"/><path class="cls-6" d="M27.64,26c-.52-2.06-1.73-5-2-6-1.17-4.13-1.1-4.29-1.69-9.69l-5.76.83a67.54,67.54,0,0,1,.36,9c0,2.37-.47,7.3,1.51,12.06.51,1.23,2,3.15,2.27,3.89a2.73,2.73,0,0,0,3.37,1.38C26.81,37,29.31,32.68,27.64,26Z"/><path class="cls-5" d="M25.26,21.84c-1.51-5.65-2.19-7.73-2.76-12.91L19,9.44s.54,6.54.55,12.06c0,1.86,0,8,2.47,12.61.92,1.74,3,6,3.32,4.65A36.63,36.63,0,0,0,25.26,21.84Z"/><path class="cls-4" d="M23,29c-.37-2.07-2.66-17.7-2.66-17.7-.88,0-1-.33-1-.33l-.17.09c.16,2.29.42,6.6.43,10.41a24.08,24.08,0,0,0,5.79,17.26C24.3,35.35,24.26,36.16,23,29Z"/><path class="cls-6" d="M22.84,5.89A.91.91,0,0,1,21.93,5V3a.91.91,0,0,1,1.82,0V5A.91.91,0,0,1,22.84,5.89Z"/><path class="cls-6" d="M21,5.89A.91.91,0,0,1,20.11,5V3a.91.91,0,0,1,1.82,0V5A.91.91,0,0,1,21,5.89Z"/><path class="cls-6" d="M19.22,5.89A.91.91,0,0,1,18.31,5V3a.91.91,0,1,1,1.81,0V5A.9.9,0,0,1,19.22,5.89Z"/><path class="cls-6" d="M17.38,6.39a.91.91,0,0,1-.91-.91V3.54a.91.91,0,0,1,1.82,0V5.48A.91.91,0,0,1,17.38,6.39Z"/><path class="cls-5" d="M26.44,6h-.92a2.18,2.18,0,0,1-1.77-.89l-.1-.05a1.7,1.7,0,0,0-1.73.05,1.87,1.87,0,0,0-1.86,0,1.76,1.76,0,0,0-1.76,0,.16.16,0,0,1-.1,0,1.41,1.41,0,0,0-1.73.47,28.43,28.43,0,0,0,.44,3.2,9.2,9.2,0,0,0,1.37,2.64,11.52,11.52,0,0,1,5.53-.18l2.26-2.57a1.64,1.64,0,0,0,.37-1.37Z"/><path class="cls-7" d="M21.08,31.35c-.59-1.57-1.22-3.65-1.33-8.3s-.44-12-.44-12a8.14,8.14,0,0,1-2.06-2.87,10.49,10.49,0,0,1-.78-2.53,28.43,28.43,0,0,0,.44,3.2,9,9,0,0,0,1.31,2.56,76.71,76.71,0,0,1,.34,8.8c0,2.37-.47,7.3,1.51,12.06a35.9,35.9,0,0,0,2.27,3.89S22.48,35.07,21.08,31.35Z"/><path class="cls-7" d="M26.44,7.32V6h-.92a4.69,4.69,0,0,0,0,.94c0,1.25-1.59,2.11-1.92,2.42a1.92,1.92,0,0,0-.76,1.7,10,10,0,0,1,1,.16s.7-.7,2.26-2.57A1.68,1.68,0,0,0,26.44,7.32Z"/><path class="cls-11" d="M38.75,111.37a98.63,98.63,0,0,0,.44,11.06s.65,8.26,4.62,8.13c1.55.3,4.89-.76,5.64-6.29.14-1.07.78-6.82,1.47-12.9Z"/><path class="cls-14" d="M50.06,119.74l-2.35-6.58-9.05,2.37c.09,2,.25,4.25.48,6.77l0,.13C39.12,122.73,48.4,121,50.06,119.74Z"/><path class="cls-4" d="M45.62,138.61A54,54,0,0,0,43,133.52c-1.17-2.06-2.8-3-3.46-6.85a4.28,4.28,0,0,1,4.5-5.16c2.2.19,5.45,1.32,6,6,.29,2.28.75,4.32.22,5.75C49.14,136.48,45.62,138.61,45.62,138.61Z"/><path class="cls-7" d="M46.47,137.16a52.58,52.58,0,0,0-2.58-5.09c-1.17-2.06-2.8-3-3.46-6.86a4.69,4.69,0,0,1,.1-2.27,4.18,4.18,0,0,0-1,3.73c.66,3.83,2.29,4.79,3.46,6.85a54,54,0,0,1,2.58,5.09,12.87,12.87,0,0,0,4.51-4.87A13.92,13.92,0,0,1,46.47,137.16Z"/><path class="cls-15" d="M45,130.8s-.89.81-.91,4.66-1.89,7.27-1.62,10.95,5.3-3.12,5.3-3.12l0-8.84Z"/><path class="cls-15" d="M51,129.89s1.1.18.67,5.19a46,46,0,0,0-.13,5.75c.07,2.1.13,4.79,0,6.71-.25,3.62-5.51-4.8-5.51-4.8l2.06-9.63Z"/><path class="cls-16" d="M48.62,128.58s-3.68-.57-4.11,3.81.62,5.33-.55,7.84c-1.08,2.29-2,4.67-1.48,7.58s2,5.29,4.51,5.8c2.32.48,4.29-1.62,4.57-5.68s-1.7-6.46-1.51-8,1.2-4.17,1.44-6.07S52.17,129.25,48.62,128.58Z"/><path class="cls-17" d="M45.33,139.8a.85.85,0,0,0,.26-.94,16.76,16.76,0,0,1-1-6.9c0,.14,0,.28-.05.43-.43,4.38.62,5.33-.55,7.84a15.21,15.21,0,0,0-1.58,4.87A9.81,9.81,0,0,1,45.33,139.8Z"/><path class="cls-17" d="M51.56,147.93c.27-4.06-1.7-6.46-1.51-8s1.2-4.17,1.44-6.07l0-.25a18.19,18.19,0,0,1-1.3,3.77,14.63,14.63,0,0,0-.76,2.1c-.11.65-.07,1.35.71,3.14A12.48,12.48,0,0,1,51.55,148S51.56,148,51.56,147.93Z"/><path class="cls-18" d="M50.23,146.45c.19,2.91-1.07,5.36-2.82,5.48s-3.33-2.15-3.52-5.05,1.06-5.36,2.81-5.47S50,143.55,50.23,146.45Z"/><path class="cls-18" d="M50.41,133.66c-.24,2.23-1.43,4.29-2.86,4s-2.19-2.26-2-4.5,1.27-3.63,2.72-3.47C50.24,129.89,50.66,131.33,50.41,133.66Z"/><path class="cls-4" d="M51.76,53.71s-14.87.77-14.87,2.86c0,0-1,1.52.34,7a60,60,0,0,0,1.88,8.63s2.5,8.45,2.51,8.4A79,79,0,0,1,51.76,94.33Z"/><path class="cls-9" d="M45.6,85.27a86,86,0,0,1,5,7.11h1.18V70.78s-2.33,6.41-6.16,10.54Z"/><path class="cls-11" d="M42.57,71.39C41,68,39.92,66.08,37.26,64c.33,1.73,1.2,6.24,1.85,8.39,0,0,2.5,8.26,2.51,8.21s5,5.68,8.55,10.77C49.21,86,45.3,77.43,42.57,71.39Z"/><path class="cls-19" d="M50.28,58.7c-2.29-1.85-4.94-7.19-4.94-7.19L32.18,49.6c2.43,5.75,2.28,8.16,3.31,10.95.81,2.16,1.9,4.85,6.64,6.52,1.88.67,6.29-.78,8.15-1.52Z"/><path class="cls-14" d="M40.61,88.53c0,2.09,11.15,17,11.15,17V94.33A79,79,0,0,0,41.62,80.58C41.68,81,40.64,88.25,40.61,88.53Z"/><path class="cls-4" d="M51.35,92.82a20,20,0,0,0-6.05-8.4s-3.49-1.85-3.81,6S51.35,92.82,51.35,92.82Z"/><path class="cls-11" d="M45.11,44.31c.42.86,1.29,1.84,2,1.25.42-.34,0-1.69-.41-2.56s-1.11-1.4-1.6-1.18S44.71,43.46,45.11,44.31Z"/><polygon class="cls-11" points="47.21 46.7 46.44 44.79 46.73 43 48.65 42.98 47.21 46.7"/><path class="cls-14" d="M51.76,41.61V56.12c-2.27.18-4.51-.07-4.73-.86V43.46Z"/><path class="cls-7" d="M48.79,44.75v4.13a3,3,0,0,1,0,.31s0,.06,0,.09l0,.19,0,.11c0,.05,0,.1-.05.15a1,1,0,0,1,0,.1l-.06.14a.41.41,0,0,0,0,.09.62.62,0,0,1-.08.12l-.06.09-.09.11-.08.08-.09.1-.09.08-.11.09-.09.06-.12.09-.1.06-.13.07-.11.06-.14.07-.11,0-.16.07-.1.05-.27.1-.12,0-.16.06-.15.05-.12,0a6.67,6.67,0,0,1,5.74,4.52V44.75Z"/><path class="cls-20" d="M49.52,33.24a5.36,5.36,0,0,0-3.93,4.48v2.75a5.19,5.19,0,0,0,.57,2.38l2.34,4.59s.4-.12,1-.26a10.35,10.35,0,0,1,4.5,0c.61.14,1,.27,1,.26l2.35-4.59a5.31,5.31,0,0,0,.57-2.38V37.72A5.38,5.38,0,0,0,54,33.24,7.26,7.26,0,0,0,49.52,33.24Z"/><path class="cls-21" d="M40.86,87.24s-2.19,3.41-3.49,13.89l1,17.61s2.77,3.45,12.39.91l1-12.82,0-17S43.4,89.45,40.86,87.24Z"/><path class="cls-11" d="M64.78,111.37a98.42,98.42,0,0,1-.43,11.06s-.66,8.26-4.62,8.13c-1.56.3-4.9-.76-5.64-6.29-.15-1.07-.78-6.82-1.48-12.9Z"/><path class="cls-14" d="M64.56,119.8q0-.73.09-1.44v-5.2l-11.56,2.37v.06c.32,2.8.59,5.26.78,6.87C55.35,122.38,62.87,120.89,64.56,119.8Z"/><path class="cls-16" d="M62.67,87.24s2.2,3.19,3.49,13.67l-1,17.83s-2.76,3.45-12.39.91l-1-12.82,0-17S60.13,89.45,62.67,87.24Z"/><path class="cls-4" d="M57.91,138.61a54,54,0,0,1,2.58-5.09c1.17-2.06,2.8-3,3.47-6.85a4.28,4.28,0,0,0-4.5-5.16c-2.2.19-5.46,1.32-6.05,6-.29,2.28-.74,4.32-.22,5.75C54.39,136.48,57.91,138.61,57.91,138.61Z"/><path class="cls-7" d="M57.06,137.16a55.62,55.62,0,0,1,2.58-5.09c1.17-2.06,2.81-3,3.47-6.86a4.81,4.81,0,0,0-.11-2.27,4.18,4.18,0,0,1,1,3.73c-.67,3.83-2.3,4.79-3.47,6.85a54,54,0,0,0-2.58,5.09,12.8,12.8,0,0,1-4.5-4.87A14,14,0,0,0,57.06,137.16Z"/><path class="cls-15" d="M58.54,130.8s.9.81.91,4.66,1.9,7.27,1.63,10.95-5.3-3.12-5.3-3.12l0-8.84Z"/><path class="cls-15" d="M52.52,129.89s-1.09.18-.66,5.19a48,48,0,0,1,.13,5.75c-.08,2.1-.13,4.79,0,6.71.25,3.62,5.51-4.8,5.51-4.8l-2.06-9.63Z"/><path class="cls-16" d="M54.92,128.58S58.6,128,59,132.39s-.63,5.33.55,7.84c1.07,2.29,2,4.67,1.47,7.58s-2,5.29-4.5,5.8c-2.32.48-4.3-1.62-4.57-5.68s1.7-6.46,1.5-8-1.2-4.17-1.43-6.07S51.36,129.25,54.92,128.58Z"/><path class="cls-17" d="M58.2,139.8a.84.84,0,0,1-.25-.94,17,17,0,0,0,1-6.9l.06.43c.43,4.38-.63,5.33.55,7.84a15.72,15.72,0,0,1,1.58,4.87A9.77,9.77,0,0,0,58.2,139.8Z"/><path class="cls-17" d="M52,147.93c-.28-4.06,1.7-6.46,1.5-8s-1.2-4.17-1.43-6.07a2.17,2.17,0,0,1,0-.25,18.39,18.39,0,0,0,1.31,3.77,13.75,13.75,0,0,1,.75,2.1c.12.65.07,1.35-.7,3.14A12.48,12.48,0,0,0,52,148Z"/><path class="cls-18" d="M53.31,146.45c-.2,2.91,1.07,5.36,2.82,5.48s3.33-2.15,3.52-5.05-1.07-5.36-2.82-5.47S53.5,143.55,53.31,146.45Z"/><path class="cls-18" d="M53.12,133.66c.24,2.23,1.44,4.29,2.86,4s2.2-2.26,2-4.5-1.27-3.63-2.72-3.47C53.3,129.89,52.87,131.33,53.12,133.66Z"/><path class="cls-22" d="M39.11,100.49l-1-4.33c-.29,1.47-.56,3.12-.79,5l1,17.61A5,5,0,0,0,40.55,120Z"/><path class="cls-22" d="M64.43,100.27l.94-4.34c.29,1.48.57,3.13.79,5l-1,17.83A4.93,4.93,0,0,1,63,120Z"/><path class="cls-7" d="M26.26,30.35s-2.09,8.08,0,14.27c2,5.75,4.54,7.41,7.86,9.29l.66-1.55.66-5.2L28.75,36l-.67-4.2Z"/><path class="cls-5" d="M35.82,46.61s.89-3.65-3.09-11.17a13.27,13.27,0,0,0-4.54-4.64c-.66,1-1.16,4.26-1.14,7.15,0,5.38,3.83,11.06,8.7,13C43.66,54,35.82,46.61,35.82,46.61Z"/><path class="cls-6" d="M35.82,46.61s.89-3.65-3.09-11.17a13.27,13.27,0,0,0-4.54-4.64c-.22.33-.21-.1-.38.77,2.1,2.16,5.84,6.32,6.61,16.55.41,5.32,1.64,3.7,2.86.36C36.53,47.42,35.82,46.61,35.82,46.61Z"/><path class="cls-4" d="M33.67,43.24l2.06.38a26.52,26.52,0,0,0-2.81-7.8C33.31,36.67,34.11,39,33.67,43.24Z"/><path class="cls-4" d="M47.66,55.13c-1.44-7.41-3-7.63-12.28-12.83,0,0-4.35-.37-.55,10.06.88.94,5.25.67,7.08.33C44.82,53,47.75,55.62,47.66,55.13Z"/><path class="cls-12" d="M35.38,42.3a1.24,1.24,0,0,0-1.71.94c9.73,4.09,8.24,9.45,8.24,9.45l5.31.45C45.84,47.63,43.76,47,35.38,42.3Z"/><path class="cls-4" d="M41.91,52.69c-1.59.59-1.45,3.62-1.14,4.58,3.83,11.94,11,13.51,11,13.51V56.12C50.09,49.71,41.91,52.69,41.91,52.69Z"/><path class="cls-7" d="M45.34,51.51s5.54,4.84,6.42,19.27V50.26Z"/><path class="cls-12" d="M41.8,50.76a12.72,12.72,0,0,1,.11,1.93c7.3-.77,9.85,3.43,9.85,3.43C50.09,49.71,41.8,50.76,41.8,50.76Z"/><path class="cls-14" d="M37.37,61.76c-1.7-3-2.54-9.4-2.54-9.4a1.64,1.64,0,0,0-1.51.22c1.27,3.71,1.34,5.72,2.17,8s1.9,4.85,6.64,6.52A16.13,16.13,0,0,1,37.37,61.76Z"/><path class="cls-14" d="M27.9,48.21c1.7,3,3.74,4.27,6.21,5.67l.11-.23.27-1.39A14.8,14.8,0,0,1,27.9,48.21Z"/><path class="cls-11" d="M25.36,38.76a35.48,35.48,0,0,1-4.28-7.41s1,3.54,1.26,4.76l.05,0a28.07,28.07,0,0,0,3.2,5.71A17.6,17.6,0,0,1,25.36,38.76Z"/><path class="cls-14" d="M17.25,8.13a10.49,10.49,0,0,1-.78-2.53,28.43,28.43,0,0,0,.44,3.2,9,9,0,0,0,1.31,2.56L19.31,11A8.14,8.14,0,0,1,17.25,8.13Z"/><path class="cls-11" d="M46.69,51.37c-1.18-3.24-3.07-4.49-7.8-7.13a16.16,16.16,0,0,1,5.56,5.06,7.57,7.57,0,0,1,.82,2A8.85,8.85,0,0,1,46.69,51.37Z"/><path class="cls-11" d="M51.76,56.12a7.89,7.89,0,0,0-8.56-4.61s3.56-.92,5.6-.07A5.4,5.4,0,0,1,51.76,56.12Z"/><rect class="cls-23" width="4.59" height="165.37"/><rect class="cls-23" x="98.96" width="4.59" height="165.37"/></g></g></svg>